M48
;GenerationSoftware,Autodesk,EAGLE,9.6.0*%
;CreationDate,2020-10-16T08:09:01Z*%
FMAT,2
ICI,OFF
METRIC,TZ,000.000
T5C0.200
T4C0.381
T3C0.508
T2C1.016
T1C3.302
%
G90
M71
T1
X90424Y99568
X72644Y99568
X2540Y2540
X20320Y2540
X20320Y48260
X2540Y48260
X25908Y2540
X43688Y2540
X43688Y48260
X25908Y48260
X49276Y2540
X67056Y2540
X67056Y48260
X49276Y48260
X72644Y2540
X90424Y2540
X90424Y48260
X72644Y48260
X2540Y53848
X20320Y53848
X20320Y99568
X2540Y99568
X25908Y53848
X43688Y53848
X43688Y99568
X25908Y99568
X49276Y53848
X67056Y53848
X67056Y99568
X49276Y99568
X72644Y53848
X90424Y53848
T2
X21590Y26670
X91694Y95758
X21590Y44450
X21590Y41910
X21590Y39370
X21590Y36830
X21590Y34290
X21590Y31750
X21590Y29210
X44958Y13970
X21590Y24130
X21590Y21590
X21590Y19050
X21590Y16510
X21590Y13970
X21590Y11430
X21590Y8890
X21590Y6350
X1270Y16510
X1270Y19050
X1270Y21590
X1270Y24130
X1270Y26670
X1270Y29210
X1270Y31750
X1270Y34290
X1270Y36830
X1270Y39370
X1270Y41910
X1270Y44450
X91694Y93218
X91694Y90678
X91694Y88138
X91694Y85598
X91694Y83058
X91694Y80518
X91694Y77978
X91694Y75438
X44958Y44450
X44958Y41910
X44958Y39370
X44958Y36830
X44958Y34290
X44958Y31750
X44958Y29210
X44958Y26670
X44958Y24130
X44958Y21590
X44958Y19050
X44958Y16510
X91694Y72898
X44958Y11430
X44958Y8890
X44958Y6350
X24638Y16510
X24638Y19050
X24638Y21590
X24638Y24130
X24638Y26670
X24638Y29210
X24638Y31750
X24638Y34290
X24638Y36830
X24638Y39370
X24638Y41910
X24638Y44450
X91694Y70358
X91694Y67818
X91694Y65278
X91694Y62738
X91694Y60198
X91694Y57658
X71374Y67818
X71374Y70358
X71374Y72898
X68326Y44450
X68326Y41910
X68326Y39370
X68326Y36830
X68326Y34290
X68326Y31750
X68326Y29210
X68326Y26670
X68326Y24130
X68326Y21590
X68326Y19050
X68326Y16510
X68326Y13970
X68326Y11430
X68326Y8890
X68326Y6350
X48006Y16510
X48006Y19050
X48006Y21590
X48006Y24130
X48006Y26670
X48006Y29210
X48006Y31750
X48006Y34290
X48006Y36830
X48006Y39370
X48006Y41910
X48006Y44450
X71374Y75438
X71374Y77978
X71374Y80518
X71374Y83058
X71374Y85598
X71374Y88138
X71374Y90678
X71374Y93218
X71374Y95758
X91694Y44450
X91694Y41910
X91694Y39370
X91694Y36830
X91694Y34290
X91694Y31750
X91694Y29210
X91694Y26670
X91694Y24130
X91694Y21590
X91694Y19050
X91694Y16510
X91694Y13970
X91694Y11430
X91694Y8890
X91694Y6350
X71374Y16510
X71374Y19050
X71374Y21590
X71374Y24130
X71374Y26670
X71374Y29210
X71374Y31750
X71374Y34290
X71374Y36830
X71374Y39370
X71374Y41910
X71374Y44450
X21590Y95758
X21590Y93218
X21590Y90678
X21590Y88138
X21590Y85598
X21590Y83058
X21590Y80518
X21590Y77978
X21590Y75438
X21590Y72898
X21590Y70358
X21590Y67818
X21590Y65278
X21590Y62738
X21590Y60198
X21590Y57658
X1270Y67818
X1270Y70358
X1270Y72898
X1270Y75438
X1270Y77978
X1270Y80518
X1270Y83058
X1270Y85598
X1270Y88138
X1270Y90678
X1270Y93218
X1270Y95758
X44958Y95758
X44958Y93218
X44958Y90678
X44958Y88138
X44958Y85598
X44958Y83058
X44958Y80518
X44958Y77978
X44958Y75438
X44958Y72898
X44958Y70358
X44958Y67818
X44958Y65278
X44958Y62738
X44958Y60198
X44958Y57658
X24638Y67818
X24638Y70358
X24638Y72898
X24638Y75438
X24638Y77978
X24638Y80518
X24638Y83058
X24638Y85598
X24638Y88138
X24638Y90678
X24638Y93218
X24638Y95758
X68326Y95758
X68326Y93218
X68326Y90678
X68326Y88138
X68326Y85598
X68326Y83058
X68326Y80518
X68326Y77978
X68326Y75438
X68326Y72898
X68326Y70358
X68326Y67818
X68326Y65278
X68326Y62738
X68326Y60198
X68326Y57658
X48006Y67818
X48006Y70358
X48006Y72898
X48006Y75438
X48006Y77978
X48006Y80518
X48006Y83058
X48006Y85598
X48006Y88138
X48006Y90678
X48006Y93218
X48006Y95758
T3
X39878Y60198
X13970Y8890
X13970Y6350
X16510Y8890
X16510Y6350
X19050Y8890
X19050Y6350
X39878Y57658
X42418Y60198
X86614Y6350
X37338Y8890
X37338Y6350
X39878Y8890
X39878Y6350
X42418Y8890
X42418Y6350
X42418Y57658
X60706Y60198
X84074Y60198
X60706Y8890
X60706Y6350
X63246Y8890
X63246Y6350
X65786Y8890
X65786Y6350
X84074Y57658
X86614Y60198
X16510Y60198
X60706Y57658
X63246Y60198
X63246Y57658
X65786Y60198
X65786Y57658
X86614Y57658
X89154Y60198
X89154Y57658
X13970Y57658
X16510Y57658
X19050Y60198
X19050Y57658
X84074Y6350
X86614Y8890
X89154Y8890
X89154Y6350
X84074Y8890
X13970Y60198
X37338Y60198
X37338Y57658
T4
X13970Y11430
X8890Y8890
X8890Y13970
X32258Y8890
X32258Y13970
X37338Y11430
X55626Y8890
X55626Y13970
X55626Y60198
X55626Y65278
X60706Y62738
X32258Y60198
X32258Y65278
X37338Y62738
X84074Y62738
X60706Y11430
X13970Y62738
X8890Y60198
X78994Y8890
X78994Y13970
X84074Y11430
X8890Y65278
X78994Y60198
X78994Y65278
T5
X31623Y30861
X35052Y40640
X34227Y41085
X35052Y41402
X29337Y36894
X27178Y38100
X37148Y38926
X31051Y34671
X30988Y46990
X26987Y39370
X27686Y40450
X29083Y32385
X30670Y31750
X33528Y46990
X30289Y40323
X32258Y31750
X32258Y33655
X42291Y21654
X42291Y28462
X43244Y26049
X43688Y17780
X30988Y9716
X42418Y38100
X42418Y36830
X42418Y34290
X42736Y31750
X43815Y30670
X36068Y10287
X42418Y15240
X24638Y7620
X30988Y5080
X30035Y6794
X28448Y3810
X26924Y7620
X26924Y12065
X29337Y12065
X29210Y14033
X28638Y5398
X41148Y15240
X39243Y13970
X24511Y13589
X42418Y19685
X26289Y30734
X26543Y33909
X26289Y36386
X25717Y43180
X33147Y5715
X43561Y28892
X44196Y33020
X44386Y35560
X25908Y45720
X41148Y3810
X30988Y14922
X39243Y17780
X25400Y22860
X29908Y43942
X29210Y9906
X26352Y9906
X40640Y24482
X36767Y42164
X40640Y24003
X39180Y42121
X25878Y5778
X43815Y25400
X29210Y23177
X41148Y17780
X42418Y17780
X39878Y12382
X40894Y20447
X38608Y12382
X40767Y20955
X34798Y18542
X41910Y32766
X35306Y18542
X42418Y33274
X35814Y18542
X34290Y18542
X41021Y29972
X32766Y18669
X32766Y19177
X32512Y19685
X32067Y20193
X28765Y30988
X29210Y21654
X32131Y15684
X42736Y21019
X42291Y29273
X36068Y11231
X32575Y18098
X37818Y17935
X37148Y34481
X37221Y18288
X34036Y26799
X35308Y26794
X37636Y26798
X29083Y44450
X33274Y37084
X30099Y39180
X41529Y42799
X33465Y42990
X36703Y5080
X27148Y11112
X31496Y13970
X27940Y33528
X28448Y33528
X31115Y43244
X26670Y14160
X26670Y14732
X62865Y26797
X61341Y27178
X61341Y31750
X61341Y30480
X61341Y29210
X61341Y27940
X63055Y28575
X63055Y27305
X61595Y41021
X62230Y41021
X62738Y40640
X63055Y31115
X63055Y32385
X63055Y40005
X59182Y25146
X60706Y25146
X62357Y25146
X62357Y22733
X62357Y24003
X60706Y22733
X59182Y22733
X57531Y22733
X57531Y25146
X57531Y24003
X57531Y20320
X59182Y20320
X60706Y20320
X62357Y20320
X62357Y21463
X57531Y21463
X63055Y29845
X63055Y33655
X63055Y34925
X61341Y33020
X61341Y34290
X63055Y36195
X63055Y37465
X61341Y35560
X61341Y36830
X63055Y38735
X61341Y38100
X59182Y27241
X59182Y28575
X59182Y30480
X59182Y31750
X59182Y33020
X59436Y34036
X57277Y33020
X57277Y31750
X57277Y30480
X57277Y29210
X57277Y27940
X57277Y27305
X61341Y39116
X59436Y36830
X59182Y37465
X59436Y39116
X60515Y36830
X57658Y38418
X59182Y38227
X55245Y41085
X59436Y40640
X57467Y39180
X60071Y40640
X56451Y39180
X60071Y41402
X64897Y40386
X60452Y43180
X60452Y44450
X60325Y45212
X62230Y44450
X62230Y43180
X62357Y45212
X59690Y45466
X62992Y45466
X63627Y46355
X63627Y47625
X59055Y46355
X59055Y47625
X59563Y48768
X60706Y49530
X61976Y49530
X63119Y48768
X59817Y27305
X60769Y27241
X54991Y24130
X52578Y24130
X51498Y26797
X57594Y42164
X63817Y41466
X57404Y35433
X57912Y35941
X58420Y35433
X57912Y34925
X57912Y35433
X50546Y46164
X50546Y43180
X51816Y46990
X65786Y12700
X52578Y22288
X52578Y20765
X56705Y15621
X59245Y15684
X57277Y14414
X56197Y10732
X54991Y10732
X58356Y9525
X54038Y26479
X54991Y26479
X53086Y30861
X54991Y30861
X58420Y40640
X57594Y41085
X58420Y41402
X52705Y36894
X50546Y38100
X60515Y38926
X54419Y34671
X54356Y46990
X50355Y39370
X51054Y40450
X52451Y32385
X54038Y31750
X56896Y46990
X53657Y40323
X55626Y31750
X55626Y33655
X65659Y21654
X65659Y28462
X66612Y26049
X67056Y17780
X54356Y9716
X65786Y38100
X65786Y36830
X65786Y34290
X66104Y31750
X67183Y30670
X59436Y10287
X65786Y15240
X48006Y7620
X54356Y5080
X53403Y6794
X51816Y3810
X50292Y7620
X50292Y12065
X52705Y12065
X52578Y14033
X52006Y5398
X64516Y15240
X62611Y13970
X47879Y13589
X65786Y19685
X49657Y30734
X49911Y33909
X49657Y36386
X49085Y43180
X56515Y5715
X66929Y28892
X67564Y33020
X67755Y35560
X49276Y45720
X64516Y3810
X54356Y14922
X62611Y17780
X48768Y22860
X53276Y43942
X52578Y9906
X49720Y9906
X64008Y24482
X60134Y42164
X64008Y24003
X62547Y42121
X49246Y5778
X67183Y25400
X52578Y23177
X64516Y17780
X65786Y17780
X63246Y12382
X64262Y20447
X61976Y12382
X64135Y20955
X58166Y18542
X65278Y32766
X58674Y18542
X65786Y33274
X59182Y18542
X57658Y18542
X64389Y29972
X56134Y18669
X56134Y19177
X55880Y19685
X55435Y20193
X52133Y30988
X52578Y21654
X55499Y15684
X66104Y21019
X65659Y29273
X59436Y11231
X55943Y18098
X61186Y17935
X60515Y34481
X60588Y18288
X57404Y26799
X58676Y26794
X61004Y26798
X52451Y44450
X56642Y37084
X53467Y39180
X64897Y42799
X56832Y42990
X60071Y5080
X50516Y11112
X54864Y13970
X51308Y33528
X51816Y33528
X54483Y43244
X50038Y14160
X50038Y14732
X86233Y26797
X84709Y27178
X84709Y31750
X84709Y30480
X84709Y29210
X84709Y27940
X86424Y28575
X86424Y27305
X84963Y41021
X85598Y41021
X86106Y40640
X86424Y31115
X86424Y32385
X86424Y40005
X82550Y25146
X84074Y25146
X85725Y25146
X85725Y22733
X85725Y24003
X84074Y22733
X82550Y22733
X80899Y22733
X80899Y25146
X80899Y24003
X80899Y20320
X82550Y20320
X84074Y20320
X85725Y20320
X85725Y21463
X80899Y21463
X86424Y29845
X86424Y33655
X86424Y34925
X84709Y33020
X84709Y34290
X86424Y36195
X86424Y37465
X84709Y35560
X84709Y36830
X86424Y38735
X84709Y38100
X82550Y27241
X82550Y28575
X82550Y30480
X82550Y31750
X82550Y33020
X82804Y34036
X80645Y33020
X80645Y31750
X80645Y30480
X80645Y29210
X80645Y27940
X80645Y27305
X84709Y39116
X82804Y36830
X82550Y37465
X82804Y39116
X83884Y36830
X81026Y38418
X82550Y38227
X78613Y41085
X82804Y40640
X80836Y39180
X83439Y40640
X79820Y39180
X83439Y41402
X88265Y40386
X83820Y43180
X83820Y44450
X83693Y45212
X85598Y44450
X85598Y43180
X85725Y45212
X83058Y45466
X86360Y45466
X86995Y46355
X86995Y47625
X82423Y46355
X82423Y47625
X82931Y48768
X84074Y49530
X85344Y49530
X86487Y48768
X83185Y27305
X84138Y27241
X78359Y24130
X75946Y24130
X74867Y26797
X80963Y42164
X87186Y41466
X80772Y35433
X81280Y35941
X81788Y35433
X81280Y34925
X81280Y35433
X73914Y46164
X73914Y43180
X75184Y46990
X89154Y12700
X75946Y22288
X75946Y20765
X80074Y15621
X82614Y15684
X80645Y14414
X79566Y10732
X78359Y10732
X81725Y9525
X77407Y26479
X78359Y26479
X76454Y30861
X78359Y30861
X81788Y40640
X80963Y41085
X81788Y41402
X76073Y36894
X73914Y38100
X83884Y38926
X77788Y34671
X77724Y46990
X73724Y39370
X74422Y40450
X75819Y32385
X77407Y31750
X80264Y46990
X77026Y40323
X78994Y31750
X78994Y33655
X89027Y21654
X89027Y28462
X89979Y26049
X90424Y17780
X77724Y9716
X89154Y38100
X89154Y36830
X89154Y34290
X89471Y31750
X90551Y30670
X82804Y10287
X89154Y15240
X71374Y7620
X77724Y5080
X76772Y6794
X75184Y3810
X73660Y7620
X73660Y12065
X76073Y12065
X75946Y14033
X75375Y5398
X87884Y15240
X85979Y13970
X71247Y13589
X89154Y19685
X73025Y30734
X73279Y33909
X73025Y36386
X72454Y43180
X79883Y5715
X90297Y28892
X90932Y33020
X91122Y35560
X72644Y45720
X87884Y3810
X77724Y14922
X85979Y17780
X72136Y22860
X76645Y43942
X75946Y9906
X73089Y9906
X87376Y24482
X83503Y42164
X87376Y24003
X85916Y42121
X72614Y5778
X90551Y25400
X75946Y23177
X87884Y17780
X89154Y17780
X86614Y12382
X87630Y20447
X85344Y12382
X87503Y20955
X81534Y18542
X88646Y32766
X82042Y18542
X89154Y33274
X82550Y18542
X81026Y18542
X87757Y29972
X79502Y18669
X79502Y19177
X79248Y19685
X78804Y20193
X75502Y30988
X75946Y21654
X78867Y15684
X89471Y21019
X89027Y29273
X82804Y11231
X79312Y18098
X84554Y17935
X83884Y34481
X83957Y18288
X80772Y26799
X82044Y26794
X84372Y26798
X75819Y44450
X80010Y37084
X76835Y39180
X88265Y42799
X80201Y42990
X83439Y5080
X73884Y11112
X78232Y13970
X74676Y33528
X75184Y33528
X77851Y43244
X73406Y14160
X73406Y14732
X16129Y78105
X14605Y78486
X14605Y83058
X14605Y81788
X14605Y80518
X14605Y79248
X16319Y79883
X16319Y78613
X14859Y92329
X15494Y92329
X16002Y91948
X16319Y82423
X16319Y83693
X16319Y91313
X12446Y76454
X13970Y76454
X15621Y76454
X15621Y74041
X15621Y75311
X13970Y74041
X12446Y74041
X10795Y74041
X10795Y76454
X10795Y75311
X10795Y71628
X12446Y71628
X13970Y71628
X15621Y71628
X15621Y72771
X10795Y72771
X16319Y81153
X16319Y84963
X16319Y86233
X14605Y84328
X14605Y85598
X16319Y87503
X16319Y88773
X14605Y86868
X14605Y88138
X16319Y90043
X14605Y89408
X12446Y78550
X12446Y79883
X12446Y81788
X12446Y83058
X12446Y84328
X12700Y85344
X10541Y84328
X10541Y83058
X10541Y81788
X10541Y80518
X10541Y79248
X10541Y78613
X14605Y90424
X12700Y88138
X12446Y88773
X12700Y90424
X13779Y88138
X10922Y89725
X12446Y89535
X8509Y92392
X12700Y91948
X10732Y90487
X13335Y91948
X9716Y90487
X13335Y92710
X18161Y91694
X13716Y94488
X13716Y95758
X13589Y96520
X15494Y95758
X15494Y94488
X15621Y96520
X12954Y96774
X16256Y96774
X16891Y97663
X16891Y98933
X12319Y97663
X12319Y98933
X12827Y100076
X13970Y100838
X15240Y100838
X16383Y100076
X13081Y78613
X14033Y78550
X8255Y75438
X5842Y75438
X4763Y78105
X10859Y93472
X17082Y92773
X10668Y86741
X11176Y87249
X11684Y86741
X11176Y86233
X11176Y86741
X3810Y97472
X3810Y94488
X5080Y98298
X19050Y64008
X5842Y73597
X5842Y72073
X9970Y66929
X12509Y66993
X10541Y65723
X9462Y62039
X8255Y62039
X11620Y60833
X7302Y77788
X8255Y77788
X6350Y82169
X8255Y82169
X11684Y91948
X10859Y92392
X11684Y92710
X5969Y88201
X3810Y89408
X13779Y90233
X7683Y85979
X7620Y98298
X3619Y90678
X4318Y91757
X5715Y83693
X7302Y83058
X10160Y98298
X6921Y91630
X8890Y83058
X8890Y84963
X18923Y72962
X18923Y79770
X19876Y77357
X20320Y69088
X7620Y61023
X19050Y89408
X19050Y88138
X19050Y85598
X19368Y83058
X20447Y81979
X12700Y61595
X19050Y66548
X1270Y58928
X7620Y56388
X6667Y58102
X5080Y55118
X3556Y58928
X3556Y63373
X5969Y63373
X5842Y65341
X5271Y56705
X17780Y66548
X15875Y65278
X1143Y64897
X19050Y70993
X2921Y82042
X3175Y85217
X2921Y87693
X2350Y94488
X9779Y57023
X20193Y80201
X20828Y84328
X21019Y86868
X2540Y97028
X17780Y55118
X7620Y66231
X15875Y69088
X35814Y27241
X6540Y95250
X5842Y61214
X2984Y61214
X17272Y75790
X13398Y93472
X17272Y75311
X15811Y93429
X2510Y57086
X20447Y76708
X5842Y74486
X17780Y69088
X19050Y69088
X16510Y63690
X17526Y71755
X15240Y63690
X17399Y72263
X11430Y69850
X18542Y84074
X11938Y69850
X19050Y84582
X12446Y69850
X10922Y69850
X17653Y81280
X9398Y69977
X9398Y70485
X9144Y70993
X8700Y71501
X5398Y82296
X5842Y72962
X8763Y66993
X19368Y72327
X18923Y80582
X12700Y62539
X9208Y69406
X14450Y69243
X13779Y85789
X13852Y69596
X10668Y78107
X11940Y78102
X14268Y78106
X5715Y95758
X9906Y88392
X6731Y90487
X18161Y94107
X10097Y94297
X13335Y56388
X3780Y62420
X8128Y65278
X4572Y84836
X5080Y84836
X7747Y94551
X3302Y65468
X3302Y66040
X39497Y78105
X37973Y78486
X37973Y83058
X37973Y81788
X37973Y80518
X37973Y79248
X39688Y79883
X39688Y78613
X38227Y92329
X38862Y92329
X39370Y91948
X39688Y82423
X39688Y83693
X39688Y91313
X35814Y76454
X37338Y76454
X38989Y76454
X38989Y74041
X38989Y75311
X37338Y74041
X35814Y74041
X34163Y74041
X34163Y76454
X34163Y75311
X34163Y71628
X35814Y71628
X37338Y71628
X38989Y71628
X38989Y72771
X34163Y72771
X39688Y81153
X39688Y84963
X39688Y86233
X37973Y84328
X37973Y85598
X39688Y87503
X39688Y88773
X37973Y86868
X37973Y88138
X39688Y90043
X37973Y89408
X35814Y78550
X35814Y79883
X35814Y81788
X35814Y83058
X35814Y84328
X36068Y85344
X33909Y84328
X33909Y83058
X33909Y81788
X33909Y80518
X33909Y79248
X33909Y78613
X37973Y90424
X36068Y88138
X35814Y88773
X36068Y90424
X37148Y88138
X34290Y89725
X35814Y89535
X31877Y92392
X36068Y91948
X34100Y90487
X36703Y91948
X33084Y90487
X36703Y92710
X41529Y91694
X37084Y94488
X37084Y95758
X36957Y96520
X38862Y95758
X38862Y94488
X38989Y96520
X36322Y96774
X39624Y96774
X40259Y97663
X40259Y98933
X35687Y97663
X35687Y98933
X36195Y100076
X37338Y100838
X38608Y100838
X39751Y100076
X36449Y78613
X37402Y78550
X31623Y75438
X29210Y75438
X28130Y78105
X34227Y93472
X40450Y92773
X34036Y86741
X34544Y87249
X35052Y86741
X34544Y86233
X34544Y86741
X27178Y97472
X27178Y94488
X28448Y98298
X42418Y64008
X29210Y73597
X29210Y72073
X33338Y66929
X35878Y66993
X33909Y65723
X32830Y62039
X31623Y62039
X34989Y60833
X30670Y77788
X31623Y77788
X29718Y82169
X31623Y82169
X35052Y91948
X34227Y92392
X35052Y92710
X29337Y88201
X27178Y89408
X37148Y90233
X31051Y85979
X30988Y98298
X26987Y90678
X27686Y91757
X29083Y83693
X30670Y83058
X33528Y98298
X30289Y91630
X32258Y83058
X32258Y84963
X42291Y72962
X42291Y79770
X43244Y77357
X43688Y69088
X30988Y61023
X42418Y89408
X42418Y88138
X42418Y85598
X42736Y83058
X43815Y81979
X36068Y61595
X42418Y66548
X24638Y58928
X30988Y56388
X30035Y58102
X28448Y55118
X26924Y58928
X26924Y63373
X29337Y63373
X29210Y65341
X28638Y56705
X41148Y66548
X39243Y65278
X24511Y64897
X42418Y70993
X26289Y82042
X26543Y85217
X26289Y87693
X25717Y94488
X33147Y57023
X43561Y80201
X44196Y84328
X44386Y86868
X25908Y97028
X41148Y55118
X30988Y66231
X39243Y69088
X25400Y74168
X29908Y95250
X29210Y61214
X26352Y61214
X40640Y75790
X36767Y93472
X40640Y75311
X39180Y93429
X25878Y57086
X43815Y76708
X29210Y74486
X41148Y69088
X42418Y69088
X39878Y63690
X40894Y71755
X38608Y63690
X40767Y72263
X34798Y69850
X41910Y84074
X35306Y69850
X42418Y84582
X35814Y69850
X34290Y69850
X41021Y81280
X32766Y69977
X32766Y70485
X32512Y70993
X32067Y71501
X28765Y82296
X29210Y72962
X32131Y66993
X42736Y72327
X42291Y80582
X36068Y62539
X32575Y69406
X37818Y69243
X37148Y85789
X37221Y69596
X34036Y78107
X35308Y78102
X37636Y78106
X29083Y95758
X33274Y88392
X30099Y90487
X41529Y94107
X33465Y94297
X36703Y56388
X27148Y62420
X31496Y65278
X27940Y84836
X28448Y84836
X31115Y94551
X26670Y65468
X26670Y66040
X62865Y78105
X61341Y78486
X61341Y83058
X61341Y81788
X61341Y80518
X61341Y79248
X63055Y79883
X63055Y78613
X61595Y92329
X62230Y92329
X62738Y91948
X63055Y82423
X63055Y83693
X63055Y91313
X59182Y76454
X60706Y76454
X62357Y76454
X62357Y74041
X62357Y75311
X60706Y74041
X59182Y74041
X57531Y74041
X57531Y76454
X57531Y75311
X57531Y71628
X59182Y71628
X60706Y71628
X62357Y71628
X62357Y72771
X57531Y72771
X63055Y81153
X63055Y84963
X63055Y86233
X61341Y84328
X61341Y85598
X63055Y87503
X63055Y88773
X61341Y86868
X61341Y88138
X63055Y90043
X61341Y89408
X59182Y78550
X59182Y79883
X59182Y81788
X59182Y83058
X59182Y84328
X59436Y85344
X57277Y84328
X57277Y83058
X57277Y81788
X57277Y80518
X57277Y79248
X57277Y78613
X61341Y90424
X59436Y88138
X59182Y88773
X59436Y90424
X60515Y88138
X57658Y89725
X59182Y89535
X55245Y92392
X59436Y91948
X57467Y90487
X60071Y91948
X56451Y90487
X60071Y92710
X64897Y91694
X60452Y94488
X60452Y95758
X60325Y96520
X62230Y95758
X62230Y94488
X62357Y96520
X59690Y96774
X62992Y96774
X63627Y97663
X63627Y98933
X59055Y97663
X59055Y98933
X59563Y100076
X60706Y100838
X61976Y100838
X63119Y100076
X59817Y78613
X60769Y78550
X54991Y75438
X52578Y75438
X51498Y78105
X57594Y93472
X63817Y92773
X57404Y86741
X57912Y87249
X58420Y86741
X57912Y86233
X57912Y86741
X50546Y97472
X50546Y94488
X51816Y98298
X65786Y64008
X52578Y73597
X52578Y72073
X56705Y66929
X59245Y66993
X57277Y65723
X56197Y62039
X54991Y62039
X58356Y60833
X54038Y77788
X54991Y77788
X53086Y82169
X54991Y82169
X58420Y91948
X57594Y92392
X58420Y92710
X52705Y88201
X50546Y89408
X60515Y90233
X54419Y85979
X54356Y98298
X50355Y90678
X51054Y91757
X52451Y83693
X54038Y83058
X56896Y98298
X53657Y91630
X55626Y83058
X55626Y84963
X65659Y72962
X65659Y79770
X66612Y77357
X67056Y69088
X54356Y61023
X65786Y89408
X65786Y88138
X65786Y85598
X66104Y83058
X67183Y81979
X59436Y61595
X65786Y66548
X48006Y58928
X54356Y56388
X53403Y58102
X51816Y55118
X50292Y58928
X50292Y63373
X52705Y63373
X52578Y65341
X52006Y56705
X64516Y66548
X62611Y65278
X47879Y64897
X65786Y70993
X49657Y82042
X49911Y85217
X49657Y87693
X49085Y94488
X56515Y57023
X66929Y80201
X67564Y84328
X67755Y86868
X49276Y97028
X64516Y55118
X54356Y66231
X62611Y69088
X48768Y74168
X53276Y95250
X52578Y61214
X49720Y61214
X64008Y75790
X60134Y93472
X64008Y75311
X62547Y93429
X49246Y57086
X67183Y76708
X52578Y74486
X64516Y69088
X65786Y69088
X63246Y63690
X64262Y71755
X61976Y63690
X64135Y72263
X58166Y69850
X65278Y84074
X58674Y69850
X65786Y84582
X59182Y69850
X57658Y69850
X64389Y81280
X56134Y69977
X56134Y70485
X55880Y70993
X55435Y71501
X52133Y82296
X52578Y72962
X55499Y66993
X66104Y72327
X65659Y80582
X59436Y62539
X55943Y69406
X61186Y69243
X60515Y85789
X60588Y69596
X57404Y78107
X58676Y78102
X61004Y78106
X52451Y95758
X56642Y88392
X53467Y90487
X64897Y94107
X56832Y94297
X60071Y56388
X50516Y62420
X54864Y65278
X51308Y84836
X51816Y84836
X54483Y94551
X50038Y65468
X50038Y66040
X86233Y78105
X84709Y78486
X84709Y83058
X84709Y81788
X84709Y80518
X84709Y79248
X86424Y79883
X86424Y78613
X84963Y92329
X85598Y92329
X86106Y91948
X86424Y82423
X86424Y83693
X86424Y91313
X82550Y76454
X84074Y76454
X85725Y76454
X85725Y74041
X85725Y75311
X84074Y74041
X82550Y74041
X80899Y74041
X80899Y76454
X80899Y75311
X80899Y71628
X82550Y71628
X84074Y71628
X16129Y26797
X85725Y72771
X80899Y72771
X86424Y81153
X86424Y84963
X86424Y86233
X84709Y84328
X84709Y85598
X86424Y87503
X86424Y88773
X84709Y86868
X84709Y88138
X86424Y90043
X84709Y89408
X82550Y78550
X82550Y79883
X82550Y81788
X82550Y83058
X82550Y84328
X82804Y85344
X80645Y84328
X80645Y83058
X80645Y81788
X80645Y80518
X80645Y79248
X80645Y78613
X84709Y90424
X82804Y88138
X82550Y88773
X82804Y90424
X83884Y88138
X81026Y89725
X82550Y89535
X78613Y92392
X82804Y91948
X80836Y90487
X83439Y91948
X79820Y90487
X83439Y92710
X88265Y91694
X83820Y94488
X83820Y95758
X83693Y96520
X85598Y95758
X85598Y94488
X85725Y96520
X83058Y96774
X86360Y96774
X86995Y97663
X86995Y98933
X82423Y97663
X82423Y98933
X82931Y100076
X84074Y100838
X85344Y100838
X86487Y100076
X83185Y78613
X84138Y78550
X78359Y75438
X75946Y75438
X74867Y78105
X80963Y93472
X87186Y92773
X80772Y86741
X81280Y87249
X81788Y86741
X81280Y86233
X81280Y86741
X73914Y97472
X73914Y94488
X75184Y98298
X89154Y64008
X75946Y73597
X75946Y72073
X80074Y66929
X82614Y66993
X80645Y65723
X79566Y62039
X78359Y62039
X81725Y60833
X77407Y77788
X78359Y77788
X76454Y82169
X78359Y82169
X81788Y91948
X80963Y92392
X81788Y92710
X76073Y88201
X73914Y89408
X83884Y90233
X77788Y85979
X77724Y98298
X73724Y90678
X74422Y91757
X75819Y83693
X77407Y83058
X80264Y98298
X77026Y91630
X78994Y83058
X78994Y84963
X89027Y72962
X89027Y79770
X89979Y77357
X90424Y69088
X77724Y61023
X89154Y89408
X89154Y88138
X89154Y85598
X89471Y83058
X90551Y81979
X82804Y61595
X89154Y66548
X71374Y58928
X77724Y56388
X76772Y58102
X75184Y55118
X73660Y58928
X73660Y63373
X76073Y63373
X75946Y65341
X75375Y56705
X87884Y66548
X85979Y65278
X71247Y64897
X89154Y70993
X73025Y82042
X73279Y85217
X73025Y87693
X72454Y94488
X79883Y57023
X90297Y80201
X90932Y84328
X91122Y86868
X72644Y97028
X87884Y55118
X77724Y66231
X85979Y69088
X72136Y74168
X76645Y95250
X75946Y61214
X73089Y61214
X87376Y75790
X83503Y93472
X87376Y75311
X85916Y93429
X72614Y57086
X90551Y76708
X75946Y74486
X87884Y69088
X89154Y69088
X86614Y63690
X87630Y71755
X85344Y63690
X87503Y72263
X81534Y69850
X88646Y84074
X82042Y69850
X89154Y84582
X82550Y69850
X81026Y69850
X87757Y81280
X79502Y69977
X79502Y70485
X79248Y70993
X78804Y71501
X75502Y82296
X75946Y72962
X78867Y66993
X89471Y72327
X89027Y80582
X82804Y62539
X79312Y69406
X84554Y69243
X83884Y85789
X83957Y69596
X80772Y78107
X82044Y78102
X84372Y78106
X75819Y95758
X80010Y88392
X76835Y90487
X88265Y94107
X80201Y94297
X83439Y56388
X73884Y62420
X78232Y65278
X74676Y84836
X75184Y84836
X77851Y94551
X73406Y65468
X73406Y66040
X14605Y27178
X14605Y31750
X14605Y30480
X14605Y29210
X14605Y27940
X16319Y28575
X16319Y27305
X14859Y41021
X15494Y41021
X16002Y40640
X16319Y31115
X16319Y32385
X16319Y40005
X12446Y25146
X13970Y25146
X15621Y25146
X15621Y22733
X15621Y24003
X13970Y22733
X12446Y22733
X10795Y22733
X10795Y25146
X10795Y24003
X10795Y20320
X12446Y20320
X13970Y20320
X15621Y20320
X15621Y21463
X10795Y21463
X16319Y29845
X16319Y33655
X16319Y34925
X14605Y33020
X14605Y34290
X16319Y36195
X16319Y37465
X14605Y35560
X14605Y36830
X16319Y38735
X14605Y38100
X12446Y27241
X12446Y28575
X12446Y30480
X12446Y31750
X12446Y33020
X12700Y34036
X10541Y33020
X10541Y31750
X10541Y30480
X10541Y29210
X10541Y27940
X10541Y27305
X14605Y39116
X12700Y36830
X12446Y37465
X12700Y39116
X13779Y36830
X10922Y38418
X12446Y38227
X8509Y41085
X12700Y40640
X10732Y39180
X13335Y40640
X9716Y39180
X13335Y41402
X18161Y40386
X13716Y43180
X13716Y44450
X2032Y74168
X13589Y45212
X15494Y44450
X15494Y43180
X15621Y45212
X12954Y45466
X16256Y45466
X16891Y46355
X16891Y47625
X12319Y46355
X12319Y47625
X12827Y48768
X13970Y49530
X15240Y49530
X16383Y48768
X13081Y27305
X14033Y27241
X8255Y24130
X5842Y24130
X4763Y26797
X10859Y42164
X17082Y41466
X10668Y35433
X11176Y35941
X11684Y35433
X11176Y34925
X11176Y35433
X3810Y46164
X3810Y43180
X5080Y46990
X19050Y12700
X5842Y22288
X5842Y20765
X9970Y15621
X12509Y15684
X10541Y14414
X9462Y10732
X8255Y10732
X11620Y9525
X7302Y26479
X8255Y26479
X6350Y30861
X8255Y30861
X11684Y40640
X10859Y41085
X11684Y41402
X5969Y36894
X3810Y38100
X13779Y38926
X7683Y34671
X7620Y46990
X3619Y39370
X4318Y40450
X5715Y32385
X7302Y31750
X10160Y46990
X6921Y40323
X8890Y31750
X8890Y33655
X18923Y21654
X18923Y28462
X19876Y26049
X20320Y17780
X7620Y9716
X19050Y38100
X19050Y36830
X19050Y34290
X19368Y31750
X20447Y30670
X12700Y10287
X19050Y15240
X1270Y7620
X7620Y5080
X6667Y6794
X5080Y3810
X3556Y7620
X3556Y12065
X5969Y12065
X5842Y14033
X5271Y5398
X17780Y15240
X15875Y13970
X1143Y13589
X19050Y19685
X2921Y30734
X3175Y33909
X2921Y36386
X2350Y43180
X9779Y5715
X20193Y28892
X20828Y33020
X21019Y35560
X2540Y45720
X17780Y3810
X7620Y14922
X15875Y17780
X2032Y22860
X6540Y43942
X5842Y9906
X2984Y9906
X17272Y24482
X13398Y42164
X17272Y24003
X15811Y42121
X2510Y5778
X20447Y25400
X5842Y23177
X17780Y17780
X19050Y17780
X16510Y12382
X17526Y20447
X15240Y12382
X17399Y20955
X11430Y18542
X18542Y32766
X11938Y18542
X19050Y33274
X12446Y18542
X10922Y18542
X17653Y29972
X9398Y18669
X9398Y19177
X9144Y19685
X8700Y20193
X5398Y30988
X5842Y21654
X8763Y15684
X19368Y21019
X18923Y29273
X12700Y11231
X9208Y18098
X14450Y17935
X13779Y34481
X13852Y18288
X10668Y26799
X11940Y26794
X14268Y26798
X5715Y44450
X9906Y37084
X6731Y39180
X18161Y42799
X10097Y42990
X13335Y5080
X3780Y11112
X8128Y13970
X4572Y33528
X5080Y33528
X7747Y43244
X3302Y14160
X3302Y14732
X39497Y26797
X37973Y27178
X37973Y31750
X37973Y30480
X37973Y29210
X37973Y27940
X39688Y28575
X39688Y27305
X38227Y41021
X38862Y41021
X39370Y40640
X39688Y31115
X39688Y32385
X39688Y40005
X35814Y25146
X37338Y25146
X38989Y25146
X38989Y22733
X38989Y24003
X37338Y22733
X35814Y22733
X34163Y22733
X34163Y25146
X34163Y24003
X34163Y20320
X35814Y20320
X37338Y20320
X38989Y20320
X38989Y21463
X34163Y21463
X39688Y29845
X39688Y33655
X39688Y34925
X37973Y33020
X37973Y34290
X39688Y36195
X39688Y37465
X37973Y35560
X37973Y36830
X39688Y38735
X37973Y38100
X35814Y28575
X35814Y30480
X35814Y31750
X35814Y33020
X36068Y34036
X33909Y33020
X33909Y31750
X33909Y30480
X33909Y29210
X33909Y27940
X33909Y27305
X37973Y39116
X36068Y36830
X35814Y37465
X36068Y39116
X37148Y36830
X34290Y38418
X35814Y38227
X31877Y41085
X36068Y40640
X34100Y39180
X36703Y40640
X33084Y39180
X36703Y41402
X41529Y40386
X37084Y43180
X37084Y44450
X36957Y45212
X38862Y44450
X38862Y43180
X38989Y45212
X36322Y45466
X39624Y45466
X40259Y46355
X40259Y47625
X35687Y46355
X35687Y47625
X36195Y48768
X37338Y49530
X38608Y49530
X39751Y48768
X36449Y27305
X37402Y27241
X31623Y24130
X29210Y24130
X28130Y26797
X34227Y42164
X40450Y41466
X34036Y35433
X34544Y35941
X35052Y35433
X34544Y34925
X34544Y35433
X27178Y46164
X27178Y43180
X28448Y46990
X42418Y12700
X29210Y22288
X29210Y20765
X33338Y15621
X35878Y15684
X33909Y14414
X32830Y10732
X31623Y10732
X34989Y9525
X30670Y26479
X31623Y26479
X29718Y30861
X85725Y71628
M30