G04 EAGLE Gerber RS-274X export*
G75*
%MOMM*%
%FSLAX34Y34*%
%LPD*%
%INSoldermask Top*%
%IPPOS*%
%AMOC8*
5,1,8,0,0,1.08239X$1,22.5*%
G01*
%ADD10C,1.203200*%
%ADD11R,5.803200X5.803200*%
%ADD12R,0.453200X0.903200*%
%ADD13R,0.903200X0.453200*%
%ADD14C,2.082800*%
%ADD15C,3.505200*%
%ADD16R,0.453200X1.003200*%
%ADD17R,1.003200X0.453200*%
%ADD18R,1.953200X1.953200*%
%ADD19R,0.653200X1.153200*%
%ADD20R,0.803200X0.803200*%
%ADD21R,1.053200X2.403200*%
%ADD22R,1.203200X1.253200*%
%ADD23R,0.953200X0.603200*%
%ADD24R,1.003200X1.103200*%
%ADD25R,0.803200X1.403200*%
%ADD26C,0.505344*%
%ADD27R,0.703200X0.753200*%
%ADD28R,0.863600X0.558800*%
%ADD29R,0.558800X0.863600*%
%ADD30R,0.600000X0.400000*%
%ADD31C,1.270000*%
%ADD32C,1.703200*%


D10*
X177800Y495300D03*
X12700Y50800D03*
D11*
X132080Y227330D03*
D12*
X104580Y193330D03*
X109580Y193330D03*
X114580Y193330D03*
X119580Y193330D03*
X124580Y193330D03*
X129580Y193330D03*
X134580Y193330D03*
X139580Y193330D03*
X144580Y193330D03*
X149580Y193330D03*
X154580Y193330D03*
X159580Y193330D03*
D13*
X166080Y199830D03*
X166080Y204830D03*
X166080Y209830D03*
X166080Y214830D03*
X166080Y219830D03*
X166080Y224830D03*
X166080Y229830D03*
X166080Y234830D03*
X166080Y239830D03*
X166080Y244830D03*
X166080Y249830D03*
X166080Y254830D03*
D12*
X159580Y261330D03*
X154580Y261330D03*
X149580Y261330D03*
X144580Y261330D03*
X139580Y261330D03*
X134580Y261330D03*
X129580Y261330D03*
X124580Y261330D03*
X119580Y261330D03*
X114580Y261330D03*
X109580Y261330D03*
X104580Y261330D03*
D13*
X98080Y254830D03*
X98080Y249830D03*
X98080Y244830D03*
X98080Y239830D03*
X98080Y234830D03*
X98080Y229830D03*
X98080Y224830D03*
X98080Y219830D03*
X98080Y214830D03*
X98080Y209830D03*
X98080Y204830D03*
X98080Y199830D03*
D14*
X215900Y444500D03*
X215900Y419100D03*
X215900Y393700D03*
X215900Y368300D03*
X215900Y342900D03*
X215900Y317500D03*
X215900Y292100D03*
X215900Y266700D03*
X215900Y241300D03*
X215900Y215900D03*
X215900Y190500D03*
X215900Y165100D03*
X215900Y139700D03*
X215900Y114300D03*
X215900Y88900D03*
X215900Y63500D03*
X12700Y165100D03*
X12700Y190500D03*
X12700Y215900D03*
X12700Y241300D03*
X12700Y266700D03*
X12700Y292100D03*
X12700Y317500D03*
X12700Y342900D03*
X12700Y368300D03*
X12700Y393700D03*
X12700Y419100D03*
X12700Y444500D03*
D15*
X25400Y25400D03*
X203200Y25400D03*
X203200Y482600D03*
X25400Y482600D03*
D16*
X104260Y339830D03*
X109260Y339830D03*
X114260Y339830D03*
X119260Y339830D03*
D17*
X126260Y346830D03*
X126260Y351830D03*
X126260Y356830D03*
X126260Y361830D03*
D16*
X119260Y368830D03*
X114260Y368830D03*
X109260Y368830D03*
X104260Y368830D03*
D17*
X97260Y361830D03*
X97260Y356830D03*
X97260Y351830D03*
X97260Y346830D03*
D18*
X111760Y354330D03*
D19*
X139550Y399210D03*
X146050Y399210D03*
X152550Y399210D03*
X152550Y421210D03*
X146050Y421210D03*
X139550Y421210D03*
D20*
X139620Y386080D03*
X129620Y386080D03*
X154305Y360600D03*
X154305Y350600D03*
X146050Y443150D03*
X146050Y433150D03*
D21*
X159800Y469900D03*
X132300Y469900D03*
D22*
X146050Y454650D03*
X146050Y485150D03*
D20*
X52705Y112475D03*
X52705Y122475D03*
D23*
X80005Y110975D03*
X80005Y117475D03*
X80005Y123975D03*
X63505Y123975D03*
X63505Y110975D03*
D20*
X92710Y110570D03*
X92710Y120570D03*
D24*
X104800Y88425D03*
X123800Y88425D03*
X114300Y109425D03*
D20*
X109300Y76200D03*
X119300Y76200D03*
D25*
X152400Y111700D03*
X165100Y111700D03*
X177800Y111700D03*
X190500Y111700D03*
X190500Y167700D03*
X177800Y167700D03*
X165100Y167700D03*
X152400Y167700D03*
D20*
X139700Y88185D03*
X139700Y78185D03*
X122475Y128905D03*
X112475Y128905D03*
X122475Y149225D03*
X112475Y149225D03*
X122475Y139065D03*
X112475Y139065D03*
X133350Y142955D03*
X133350Y152955D03*
X133350Y122000D03*
X133350Y132000D03*
X126920Y421640D03*
X116920Y421640D03*
X163910Y421640D03*
X173910Y421640D03*
X198755Y267415D03*
X198755Y277415D03*
X179705Y267415D03*
X179705Y277415D03*
X189230Y267415D03*
X189230Y277415D03*
X198755Y243920D03*
X198755Y253920D03*
X179705Y243920D03*
X179705Y253920D03*
X189230Y243920D03*
X189230Y253920D03*
X165100Y443150D03*
X165100Y433150D03*
X127000Y443150D03*
X127000Y433150D03*
D26*
X178120Y439220D02*
X185100Y439220D01*
X185100Y432240D01*
X178120Y432240D01*
X178120Y439220D01*
X178120Y437040D02*
X185100Y437040D01*
X185100Y456760D02*
X178120Y456760D01*
X185100Y456760D02*
X185100Y449780D01*
X178120Y449780D01*
X178120Y456760D01*
X178120Y454580D02*
X185100Y454580D01*
X113980Y439220D02*
X107000Y439220D01*
X113980Y439220D02*
X113980Y432240D01*
X107000Y432240D01*
X107000Y439220D01*
X107000Y437040D02*
X113980Y437040D01*
X113980Y456760D02*
X107000Y456760D01*
X113980Y456760D02*
X113980Y449780D01*
X107000Y449780D01*
X107000Y456760D01*
X107000Y454580D02*
X113980Y454580D01*
D20*
X87630Y173910D03*
X87630Y163910D03*
X106680Y173910D03*
X106680Y163910D03*
X97155Y173910D03*
X97155Y163910D03*
X116205Y173910D03*
X116205Y163910D03*
X135255Y173910D03*
X135255Y163910D03*
X125730Y173910D03*
X125730Y163910D03*
X66120Y183515D03*
X76120Y183515D03*
X76120Y193040D03*
X66120Y193040D03*
X53975Y291545D03*
X53975Y301545D03*
X63500Y281860D03*
X63500Y271860D03*
X82550Y281860D03*
X82550Y271860D03*
X73025Y281860D03*
X73025Y271860D03*
X76120Y202565D03*
X66120Y202565D03*
X76120Y212090D03*
X66120Y212090D03*
X76120Y231140D03*
X66120Y231140D03*
X76120Y221615D03*
X66120Y221615D03*
D27*
X51420Y249860D03*
X51420Y240360D03*
X65420Y240360D03*
X65420Y249860D03*
D20*
X50720Y260350D03*
X40720Y260350D03*
X40640Y250110D03*
X40640Y240110D03*
X76280Y250190D03*
X86280Y250190D03*
X82550Y291545D03*
X82550Y301545D03*
X73025Y291545D03*
X73025Y301545D03*
X63500Y291545D03*
X63500Y301545D03*
X114300Y273130D03*
X114300Y283130D03*
X114300Y303610D03*
X114300Y313610D03*
X124380Y293370D03*
X114380Y293370D03*
D28*
X114300Y322072D03*
X114300Y330708D03*
D20*
X67310Y427275D03*
X67310Y417275D03*
X92710Y427275D03*
X92710Y417275D03*
X85725Y401875D03*
X85725Y391875D03*
X76200Y401875D03*
X76200Y391875D03*
X77470Y325200D03*
X77470Y335200D03*
X67945Y325200D03*
X67945Y335200D03*
D29*
X78232Y356870D03*
X86868Y356870D03*
D20*
X69215Y356790D03*
X69215Y346790D03*
X59690Y356790D03*
X59690Y346790D03*
D29*
X94107Y379095D03*
X102743Y379095D03*
D28*
X116840Y377952D03*
X116840Y386588D03*
D29*
X163068Y279400D03*
X154432Y279400D03*
X163068Y330200D03*
X154432Y330200D03*
D30*
X154305Y300800D03*
X154305Y308800D03*
D20*
X116840Y405685D03*
X116840Y395685D03*
X85725Y379015D03*
X85725Y369015D03*
X76200Y379015D03*
X76200Y369015D03*
X66675Y379015D03*
X66675Y369015D03*
X137795Y325200D03*
X137795Y335200D03*
X137795Y351870D03*
X137795Y361870D03*
X50165Y356790D03*
X50165Y346790D03*
D14*
X190500Y88900D03*
X165100Y88900D03*
X63500Y88900D03*
X38100Y88900D03*
D25*
X92710Y497900D03*
X80010Y497900D03*
X67310Y497900D03*
X54610Y497900D03*
X54610Y441900D03*
X67310Y441900D03*
X80010Y441900D03*
X92710Y441900D03*
D20*
X34925Y447120D03*
X34925Y457120D03*
X40640Y435530D03*
X40640Y425530D03*
X198755Y233600D03*
X198755Y223600D03*
X179705Y233600D03*
X179705Y223600D03*
X189230Y233600D03*
X189230Y223600D03*
X85725Y87710D03*
X85725Y97710D03*
D26*
X119580Y51115D02*
X119580Y44135D01*
X119580Y51115D02*
X126560Y51115D01*
X126560Y44135D01*
X119580Y44135D01*
X119580Y48935D02*
X126560Y48935D01*
X102040Y51115D02*
X102040Y44135D01*
X102040Y51115D02*
X109020Y51115D01*
X109020Y44135D01*
X102040Y44135D01*
X102040Y48935D02*
X109020Y48935D01*
D10*
X411480Y495300D03*
X246380Y50800D03*
D11*
X365760Y227330D03*
D12*
X338260Y193330D03*
X343260Y193330D03*
X348260Y193330D03*
X353260Y193330D03*
X358260Y193330D03*
X363260Y193330D03*
X368260Y193330D03*
X373260Y193330D03*
X378260Y193330D03*
X383260Y193330D03*
X388260Y193330D03*
X393260Y193330D03*
D13*
X399760Y199830D03*
X399760Y204830D03*
X399760Y209830D03*
X399760Y214830D03*
X399760Y219830D03*
X399760Y224830D03*
X399760Y229830D03*
X399760Y234830D03*
X399760Y239830D03*
X399760Y244830D03*
X399760Y249830D03*
X399760Y254830D03*
D12*
X393260Y261330D03*
X388260Y261330D03*
X383260Y261330D03*
X378260Y261330D03*
X373260Y261330D03*
X368260Y261330D03*
X363260Y261330D03*
X358260Y261330D03*
X353260Y261330D03*
X348260Y261330D03*
X343260Y261330D03*
X338260Y261330D03*
D13*
X331760Y254830D03*
X331760Y249830D03*
X331760Y244830D03*
X331760Y239830D03*
X331760Y234830D03*
X331760Y229830D03*
X331760Y224830D03*
X331760Y219830D03*
X331760Y214830D03*
X331760Y209830D03*
X331760Y204830D03*
X331760Y199830D03*
D14*
X449580Y444500D03*
X449580Y419100D03*
X449580Y393700D03*
X449580Y368300D03*
X449580Y342900D03*
X449580Y317500D03*
X449580Y292100D03*
X449580Y266700D03*
X449580Y241300D03*
X449580Y215900D03*
X449580Y190500D03*
X449580Y165100D03*
X449580Y139700D03*
X449580Y114300D03*
X449580Y88900D03*
X449580Y63500D03*
X246380Y165100D03*
X246380Y190500D03*
X246380Y215900D03*
X246380Y241300D03*
X246380Y266700D03*
X246380Y292100D03*
X246380Y317500D03*
X246380Y342900D03*
X246380Y368300D03*
X246380Y393700D03*
X246380Y419100D03*
X246380Y444500D03*
D15*
X259080Y25400D03*
X436880Y25400D03*
X436880Y482600D03*
X259080Y482600D03*
D16*
X337940Y339830D03*
X342940Y339830D03*
X347940Y339830D03*
X352940Y339830D03*
D17*
X359940Y346830D03*
X359940Y351830D03*
X359940Y356830D03*
X359940Y361830D03*
D16*
X352940Y368830D03*
X347940Y368830D03*
X342940Y368830D03*
X337940Y368830D03*
D17*
X330940Y361830D03*
X330940Y356830D03*
X330940Y351830D03*
X330940Y346830D03*
D18*
X345440Y354330D03*
D19*
X373230Y399210D03*
X379730Y399210D03*
X386230Y399210D03*
X386230Y421210D03*
X379730Y421210D03*
X373230Y421210D03*
D20*
X373300Y386080D03*
X363300Y386080D03*
X387985Y360600D03*
X387985Y350600D03*
X379730Y443150D03*
X379730Y433150D03*
D21*
X393480Y469900D03*
X365980Y469900D03*
D22*
X379730Y454650D03*
X379730Y485150D03*
D20*
X286385Y112475D03*
X286385Y122475D03*
D23*
X313685Y110975D03*
X313685Y117475D03*
X313685Y123975D03*
X297185Y123975D03*
X297185Y110975D03*
D20*
X326390Y110570D03*
X326390Y120570D03*
D24*
X338480Y88425D03*
X357480Y88425D03*
X347980Y109425D03*
D20*
X342980Y76200D03*
X352980Y76200D03*
D25*
X386080Y111700D03*
X398780Y111700D03*
X411480Y111700D03*
X424180Y111700D03*
X424180Y167700D03*
X411480Y167700D03*
X398780Y167700D03*
X386080Y167700D03*
D20*
X373380Y88185D03*
X373380Y78185D03*
X356155Y128905D03*
X346155Y128905D03*
X356155Y149225D03*
X346155Y149225D03*
X356155Y139065D03*
X346155Y139065D03*
X367030Y142955D03*
X367030Y152955D03*
X367030Y122000D03*
X367030Y132000D03*
X360600Y421640D03*
X350600Y421640D03*
X397590Y421640D03*
X407590Y421640D03*
X432435Y267415D03*
X432435Y277415D03*
X413385Y267415D03*
X413385Y277415D03*
X422910Y267415D03*
X422910Y277415D03*
X432435Y243920D03*
X432435Y253920D03*
X413385Y243920D03*
X413385Y253920D03*
X422910Y243920D03*
X422910Y253920D03*
X398780Y443150D03*
X398780Y433150D03*
X360680Y443150D03*
X360680Y433150D03*
D26*
X411800Y439220D02*
X418780Y439220D01*
X418780Y432240D01*
X411800Y432240D01*
X411800Y439220D01*
X411800Y437040D02*
X418780Y437040D01*
X418780Y456760D02*
X411800Y456760D01*
X418780Y456760D02*
X418780Y449780D01*
X411800Y449780D01*
X411800Y456760D01*
X411800Y454580D02*
X418780Y454580D01*
X347660Y439220D02*
X340680Y439220D01*
X347660Y439220D02*
X347660Y432240D01*
X340680Y432240D01*
X340680Y439220D01*
X340680Y437040D02*
X347660Y437040D01*
X347660Y456760D02*
X340680Y456760D01*
X347660Y456760D02*
X347660Y449780D01*
X340680Y449780D01*
X340680Y456760D01*
X340680Y454580D02*
X347660Y454580D01*
D20*
X321310Y173910D03*
X321310Y163910D03*
X340360Y173910D03*
X340360Y163910D03*
X330835Y173910D03*
X330835Y163910D03*
X349885Y173910D03*
X349885Y163910D03*
X368935Y173910D03*
X368935Y163910D03*
X359410Y173910D03*
X359410Y163910D03*
X299800Y183515D03*
X309800Y183515D03*
X309800Y193040D03*
X299800Y193040D03*
X287655Y291545D03*
X287655Y301545D03*
X297180Y281860D03*
X297180Y271860D03*
X316230Y281860D03*
X316230Y271860D03*
X306705Y281860D03*
X306705Y271860D03*
X309800Y202565D03*
X299800Y202565D03*
X309800Y212090D03*
X299800Y212090D03*
X309800Y231140D03*
X299800Y231140D03*
X309800Y221615D03*
X299800Y221615D03*
D27*
X285100Y249860D03*
X285100Y240360D03*
X299100Y240360D03*
X299100Y249860D03*
D20*
X284400Y260350D03*
X274400Y260350D03*
X274320Y250110D03*
X274320Y240110D03*
X309960Y250190D03*
X319960Y250190D03*
X316230Y291545D03*
X316230Y301545D03*
X306705Y291545D03*
X306705Y301545D03*
X297180Y291545D03*
X297180Y301545D03*
X347980Y273130D03*
X347980Y283130D03*
X347980Y303610D03*
X347980Y313610D03*
X358060Y293370D03*
X348060Y293370D03*
D28*
X347980Y322072D03*
X347980Y330708D03*
D20*
X300990Y427275D03*
X300990Y417275D03*
X326390Y427275D03*
X326390Y417275D03*
X319405Y401875D03*
X319405Y391875D03*
X309880Y401875D03*
X309880Y391875D03*
X311150Y325200D03*
X311150Y335200D03*
X301625Y325200D03*
X301625Y335200D03*
D29*
X311912Y356870D03*
X320548Y356870D03*
D20*
X302895Y356790D03*
X302895Y346790D03*
X293370Y356790D03*
X293370Y346790D03*
D29*
X327787Y379095D03*
X336423Y379095D03*
D28*
X350520Y377952D03*
X350520Y386588D03*
D29*
X396748Y279400D03*
X388112Y279400D03*
X396748Y330200D03*
X388112Y330200D03*
D30*
X387985Y300800D03*
X387985Y308800D03*
D20*
X350520Y405685D03*
X350520Y395685D03*
X319405Y379015D03*
X319405Y369015D03*
X309880Y379015D03*
X309880Y369015D03*
X300355Y379015D03*
X300355Y369015D03*
X371475Y325200D03*
X371475Y335200D03*
X371475Y351870D03*
X371475Y361870D03*
X283845Y356790D03*
X283845Y346790D03*
D14*
X424180Y88900D03*
X398780Y88900D03*
X297180Y88900D03*
X271780Y88900D03*
D25*
X326390Y497900D03*
X313690Y497900D03*
X300990Y497900D03*
X288290Y497900D03*
X288290Y441900D03*
X300990Y441900D03*
X313690Y441900D03*
X326390Y441900D03*
D20*
X268605Y447120D03*
X268605Y457120D03*
X274320Y435530D03*
X274320Y425530D03*
X432435Y233600D03*
X432435Y223600D03*
X413385Y233600D03*
X413385Y223600D03*
X422910Y233600D03*
X422910Y223600D03*
X319405Y87710D03*
X319405Y97710D03*
D26*
X353260Y51115D02*
X353260Y44135D01*
X353260Y51115D02*
X360240Y51115D01*
X360240Y44135D01*
X353260Y44135D01*
X353260Y48935D02*
X360240Y48935D01*
X335720Y51115D02*
X335720Y44135D01*
X335720Y51115D02*
X342700Y51115D01*
X342700Y44135D01*
X335720Y44135D01*
X335720Y48935D02*
X342700Y48935D01*
D10*
X645160Y495300D03*
X480060Y50800D03*
D11*
X599440Y227330D03*
D12*
X571940Y193330D03*
X576940Y193330D03*
X581940Y193330D03*
X586940Y193330D03*
X591940Y193330D03*
X596940Y193330D03*
X601940Y193330D03*
X606940Y193330D03*
X611940Y193330D03*
X616940Y193330D03*
X621940Y193330D03*
X626940Y193330D03*
D13*
X633440Y199830D03*
X633440Y204830D03*
X633440Y209830D03*
X633440Y214830D03*
X633440Y219830D03*
X633440Y224830D03*
X633440Y229830D03*
X633440Y234830D03*
X633440Y239830D03*
X633440Y244830D03*
X633440Y249830D03*
X633440Y254830D03*
D12*
X626940Y261330D03*
X621940Y261330D03*
X616940Y261330D03*
X611940Y261330D03*
X606940Y261330D03*
X601940Y261330D03*
X596940Y261330D03*
X591940Y261330D03*
X586940Y261330D03*
X581940Y261330D03*
X576940Y261330D03*
X571940Y261330D03*
D13*
X565440Y254830D03*
X565440Y249830D03*
X565440Y244830D03*
X565440Y239830D03*
X565440Y234830D03*
X565440Y229830D03*
X565440Y224830D03*
X565440Y219830D03*
X565440Y214830D03*
X565440Y209830D03*
X565440Y204830D03*
X565440Y199830D03*
D14*
X683260Y444500D03*
X683260Y419100D03*
X683260Y393700D03*
X683260Y368300D03*
X683260Y342900D03*
X683260Y317500D03*
X683260Y292100D03*
X683260Y266700D03*
X683260Y241300D03*
X683260Y215900D03*
X683260Y190500D03*
X683260Y165100D03*
X683260Y139700D03*
X683260Y114300D03*
X683260Y88900D03*
X683260Y63500D03*
X480060Y165100D03*
X480060Y190500D03*
X480060Y215900D03*
X480060Y241300D03*
X480060Y266700D03*
X480060Y292100D03*
X480060Y317500D03*
X480060Y342900D03*
X480060Y368300D03*
X480060Y393700D03*
X480060Y419100D03*
X480060Y444500D03*
D15*
X492760Y25400D03*
X670560Y25400D03*
X670560Y482600D03*
X492760Y482600D03*
D16*
X571620Y339830D03*
X576620Y339830D03*
X581620Y339830D03*
X586620Y339830D03*
D17*
X593620Y346830D03*
X593620Y351830D03*
X593620Y356830D03*
X593620Y361830D03*
D16*
X586620Y368830D03*
X581620Y368830D03*
X576620Y368830D03*
X571620Y368830D03*
D17*
X564620Y361830D03*
X564620Y356830D03*
X564620Y351830D03*
X564620Y346830D03*
D18*
X579120Y354330D03*
D19*
X606910Y399210D03*
X613410Y399210D03*
X619910Y399210D03*
X619910Y421210D03*
X613410Y421210D03*
X606910Y421210D03*
D20*
X606980Y386080D03*
X596980Y386080D03*
X621665Y360600D03*
X621665Y350600D03*
X613410Y443150D03*
X613410Y433150D03*
D21*
X627160Y469900D03*
X599660Y469900D03*
D22*
X613410Y454650D03*
X613410Y485150D03*
D20*
X520065Y112475D03*
X520065Y122475D03*
D23*
X547365Y110975D03*
X547365Y117475D03*
X547365Y123975D03*
X530865Y123975D03*
X530865Y110975D03*
D20*
X560070Y110570D03*
X560070Y120570D03*
D24*
X572160Y88425D03*
X591160Y88425D03*
X581660Y109425D03*
D20*
X576660Y76200D03*
X586660Y76200D03*
D25*
X619760Y111700D03*
X632460Y111700D03*
X645160Y111700D03*
X657860Y111700D03*
X657860Y167700D03*
X645160Y167700D03*
X632460Y167700D03*
X619760Y167700D03*
D20*
X607060Y88185D03*
X607060Y78185D03*
X589835Y128905D03*
X579835Y128905D03*
X589835Y149225D03*
X579835Y149225D03*
X589835Y139065D03*
X579835Y139065D03*
X600710Y142955D03*
X600710Y152955D03*
X600710Y122000D03*
X600710Y132000D03*
X594280Y421640D03*
X584280Y421640D03*
X631270Y421640D03*
X641270Y421640D03*
X666115Y267415D03*
X666115Y277415D03*
X647065Y267415D03*
X647065Y277415D03*
X656590Y267415D03*
X656590Y277415D03*
X666115Y243920D03*
X666115Y253920D03*
X647065Y243920D03*
X647065Y253920D03*
X656590Y243920D03*
X656590Y253920D03*
X632460Y443150D03*
X632460Y433150D03*
X594360Y443150D03*
X594360Y433150D03*
D26*
X645480Y439220D02*
X652460Y439220D01*
X652460Y432240D01*
X645480Y432240D01*
X645480Y439220D01*
X645480Y437040D02*
X652460Y437040D01*
X652460Y456760D02*
X645480Y456760D01*
X652460Y456760D02*
X652460Y449780D01*
X645480Y449780D01*
X645480Y456760D01*
X645480Y454580D02*
X652460Y454580D01*
X581340Y439220D02*
X574360Y439220D01*
X581340Y439220D02*
X581340Y432240D01*
X574360Y432240D01*
X574360Y439220D01*
X574360Y437040D02*
X581340Y437040D01*
X581340Y456760D02*
X574360Y456760D01*
X581340Y456760D02*
X581340Y449780D01*
X574360Y449780D01*
X574360Y456760D01*
X574360Y454580D02*
X581340Y454580D01*
D20*
X554990Y173910D03*
X554990Y163910D03*
X574040Y173910D03*
X574040Y163910D03*
X564515Y173910D03*
X564515Y163910D03*
X583565Y173910D03*
X583565Y163910D03*
X602615Y173910D03*
X602615Y163910D03*
X593090Y173910D03*
X593090Y163910D03*
X533480Y183515D03*
X543480Y183515D03*
X543480Y193040D03*
X533480Y193040D03*
X521335Y291545D03*
X521335Y301545D03*
X530860Y281860D03*
X530860Y271860D03*
X549910Y281860D03*
X549910Y271860D03*
X540385Y281860D03*
X540385Y271860D03*
X543480Y202565D03*
X533480Y202565D03*
X543480Y212090D03*
X533480Y212090D03*
X543480Y231140D03*
X533480Y231140D03*
X543480Y221615D03*
X533480Y221615D03*
D27*
X518780Y249860D03*
X518780Y240360D03*
X532780Y240360D03*
X532780Y249860D03*
D20*
X518080Y260350D03*
X508080Y260350D03*
X508000Y250110D03*
X508000Y240110D03*
X543640Y250190D03*
X553640Y250190D03*
X549910Y291545D03*
X549910Y301545D03*
X540385Y291545D03*
X540385Y301545D03*
X530860Y291545D03*
X530860Y301545D03*
X581660Y273130D03*
X581660Y283130D03*
X581660Y303610D03*
X581660Y313610D03*
X591740Y293370D03*
X581740Y293370D03*
D28*
X581660Y322072D03*
X581660Y330708D03*
D20*
X534670Y427275D03*
X534670Y417275D03*
X560070Y427275D03*
X560070Y417275D03*
X553085Y401875D03*
X553085Y391875D03*
X543560Y401875D03*
X543560Y391875D03*
X544830Y325200D03*
X544830Y335200D03*
X535305Y325200D03*
X535305Y335200D03*
D29*
X545592Y356870D03*
X554228Y356870D03*
D20*
X536575Y356790D03*
X536575Y346790D03*
X527050Y356790D03*
X527050Y346790D03*
D29*
X561467Y379095D03*
X570103Y379095D03*
D28*
X584200Y377952D03*
X584200Y386588D03*
D29*
X630428Y279400D03*
X621792Y279400D03*
X630428Y330200D03*
X621792Y330200D03*
D30*
X621665Y300800D03*
X621665Y308800D03*
D20*
X584200Y405685D03*
X584200Y395685D03*
X553085Y379015D03*
X553085Y369015D03*
X543560Y379015D03*
X543560Y369015D03*
X534035Y379015D03*
X534035Y369015D03*
X605155Y325200D03*
X605155Y335200D03*
X605155Y351870D03*
X605155Y361870D03*
X517525Y356790D03*
X517525Y346790D03*
D14*
X657860Y88900D03*
X632460Y88900D03*
X530860Y88900D03*
X505460Y88900D03*
D25*
X560070Y497900D03*
X547370Y497900D03*
X534670Y497900D03*
X521970Y497900D03*
X521970Y441900D03*
X534670Y441900D03*
X547370Y441900D03*
X560070Y441900D03*
D20*
X502285Y447120D03*
X502285Y457120D03*
X508000Y435530D03*
X508000Y425530D03*
X666115Y233600D03*
X666115Y223600D03*
X647065Y233600D03*
X647065Y223600D03*
X656590Y233600D03*
X656590Y223600D03*
X553085Y87710D03*
X553085Y97710D03*
D26*
X586940Y51115D02*
X586940Y44135D01*
X586940Y51115D02*
X593920Y51115D01*
X593920Y44135D01*
X586940Y44135D01*
X586940Y48935D02*
X593920Y48935D01*
X569400Y51115D02*
X569400Y44135D01*
X569400Y51115D02*
X576380Y51115D01*
X576380Y44135D01*
X569400Y44135D01*
X569400Y48935D02*
X576380Y48935D01*
D10*
X878840Y495300D03*
X713740Y50800D03*
D11*
X833120Y227330D03*
D12*
X805620Y193330D03*
X810620Y193330D03*
X815620Y193330D03*
X820620Y193330D03*
X825620Y193330D03*
X830620Y193330D03*
X835620Y193330D03*
X840620Y193330D03*
X845620Y193330D03*
X850620Y193330D03*
X855620Y193330D03*
X860620Y193330D03*
D13*
X867120Y199830D03*
X867120Y204830D03*
X867120Y209830D03*
X867120Y214830D03*
X867120Y219830D03*
X867120Y224830D03*
X867120Y229830D03*
X867120Y234830D03*
X867120Y239830D03*
X867120Y244830D03*
X867120Y249830D03*
X867120Y254830D03*
D12*
X860620Y261330D03*
X855620Y261330D03*
X850620Y261330D03*
X845620Y261330D03*
X840620Y261330D03*
X835620Y261330D03*
X830620Y261330D03*
X825620Y261330D03*
X820620Y261330D03*
X815620Y261330D03*
X810620Y261330D03*
X805620Y261330D03*
D13*
X799120Y254830D03*
X799120Y249830D03*
X799120Y244830D03*
X799120Y239830D03*
X799120Y234830D03*
X799120Y229830D03*
X799120Y224830D03*
X799120Y219830D03*
X799120Y214830D03*
X799120Y209830D03*
X799120Y204830D03*
X799120Y199830D03*
D14*
X916940Y444500D03*
X916940Y419100D03*
X916940Y393700D03*
X916940Y368300D03*
X916940Y342900D03*
X916940Y317500D03*
X916940Y292100D03*
X916940Y266700D03*
X916940Y241300D03*
X916940Y215900D03*
X916940Y190500D03*
X916940Y165100D03*
X916940Y139700D03*
X916940Y114300D03*
X916940Y88900D03*
X916940Y63500D03*
X713740Y165100D03*
X713740Y190500D03*
X713740Y215900D03*
X713740Y241300D03*
X713740Y266700D03*
X713740Y292100D03*
X713740Y317500D03*
X713740Y342900D03*
X713740Y368300D03*
X713740Y393700D03*
X713740Y419100D03*
X713740Y444500D03*
D15*
X726440Y25400D03*
X904240Y25400D03*
X904240Y482600D03*
X726440Y482600D03*
D16*
X805300Y339830D03*
X810300Y339830D03*
X815300Y339830D03*
X820300Y339830D03*
D17*
X827300Y346830D03*
X827300Y351830D03*
X827300Y356830D03*
X827300Y361830D03*
D16*
X820300Y368830D03*
X815300Y368830D03*
X810300Y368830D03*
X805300Y368830D03*
D17*
X798300Y361830D03*
X798300Y356830D03*
X798300Y351830D03*
X798300Y346830D03*
D18*
X812800Y354330D03*
D19*
X840590Y399210D03*
X847090Y399210D03*
X853590Y399210D03*
X853590Y421210D03*
X847090Y421210D03*
X840590Y421210D03*
D20*
X840660Y386080D03*
X830660Y386080D03*
X855345Y360600D03*
X855345Y350600D03*
X847090Y443150D03*
X847090Y433150D03*
D21*
X860840Y469900D03*
X833340Y469900D03*
D22*
X847090Y454650D03*
X847090Y485150D03*
D20*
X753745Y112475D03*
X753745Y122475D03*
D23*
X781045Y110975D03*
X781045Y117475D03*
X781045Y123975D03*
X764545Y123975D03*
X764545Y110975D03*
D20*
X793750Y110570D03*
X793750Y120570D03*
D24*
X805840Y88425D03*
X824840Y88425D03*
X815340Y109425D03*
D20*
X810340Y76200D03*
X820340Y76200D03*
D25*
X853440Y111700D03*
X866140Y111700D03*
X878840Y111700D03*
X891540Y111700D03*
X891540Y167700D03*
X878840Y167700D03*
X866140Y167700D03*
X853440Y167700D03*
D20*
X840740Y88185D03*
X840740Y78185D03*
X823515Y128905D03*
X813515Y128905D03*
X823515Y149225D03*
X813515Y149225D03*
X823515Y139065D03*
X813515Y139065D03*
X834390Y142955D03*
X834390Y152955D03*
X834390Y122000D03*
X834390Y132000D03*
X827960Y421640D03*
X817960Y421640D03*
X864950Y421640D03*
X874950Y421640D03*
X899795Y267415D03*
X899795Y277415D03*
X880745Y267415D03*
X880745Y277415D03*
X890270Y267415D03*
X890270Y277415D03*
X899795Y243920D03*
X899795Y253920D03*
X880745Y243920D03*
X880745Y253920D03*
X890270Y243920D03*
X890270Y253920D03*
X866140Y443150D03*
X866140Y433150D03*
X828040Y443150D03*
X828040Y433150D03*
D26*
X879160Y439220D02*
X886140Y439220D01*
X886140Y432240D01*
X879160Y432240D01*
X879160Y439220D01*
X879160Y437040D02*
X886140Y437040D01*
X886140Y456760D02*
X879160Y456760D01*
X886140Y456760D02*
X886140Y449780D01*
X879160Y449780D01*
X879160Y456760D01*
X879160Y454580D02*
X886140Y454580D01*
X815020Y439220D02*
X808040Y439220D01*
X815020Y439220D02*
X815020Y432240D01*
X808040Y432240D01*
X808040Y439220D01*
X808040Y437040D02*
X815020Y437040D01*
X815020Y456760D02*
X808040Y456760D01*
X815020Y456760D02*
X815020Y449780D01*
X808040Y449780D01*
X808040Y456760D01*
X808040Y454580D02*
X815020Y454580D01*
D20*
X788670Y173910D03*
X788670Y163910D03*
X807720Y173910D03*
X807720Y163910D03*
X798195Y173910D03*
X798195Y163910D03*
X817245Y173910D03*
X817245Y163910D03*
X836295Y173910D03*
X836295Y163910D03*
X826770Y173910D03*
X826770Y163910D03*
X767160Y183515D03*
X777160Y183515D03*
X777160Y193040D03*
X767160Y193040D03*
X755015Y291545D03*
X755015Y301545D03*
X764540Y281860D03*
X764540Y271860D03*
X783590Y281860D03*
X783590Y271860D03*
X774065Y281860D03*
X774065Y271860D03*
X777160Y202565D03*
X767160Y202565D03*
X777160Y212090D03*
X767160Y212090D03*
X777160Y231140D03*
X767160Y231140D03*
X777160Y221615D03*
X767160Y221615D03*
D27*
X752460Y249860D03*
X752460Y240360D03*
X766460Y240360D03*
X766460Y249860D03*
D20*
X751760Y260350D03*
X741760Y260350D03*
X741680Y250110D03*
X741680Y240110D03*
X777320Y250190D03*
X787320Y250190D03*
X783590Y291545D03*
X783590Y301545D03*
X774065Y291545D03*
X774065Y301545D03*
X764540Y291545D03*
X764540Y301545D03*
X815340Y273130D03*
X815340Y283130D03*
X815340Y303610D03*
X815340Y313610D03*
X825420Y293370D03*
X815420Y293370D03*
D28*
X815340Y322072D03*
X815340Y330708D03*
D20*
X768350Y427275D03*
X768350Y417275D03*
X793750Y427275D03*
X793750Y417275D03*
X786765Y401875D03*
X786765Y391875D03*
X777240Y401875D03*
X777240Y391875D03*
X778510Y325200D03*
X778510Y335200D03*
X768985Y325200D03*
X768985Y335200D03*
D29*
X779272Y356870D03*
X787908Y356870D03*
D20*
X770255Y356790D03*
X770255Y346790D03*
X760730Y356790D03*
X760730Y346790D03*
D29*
X795147Y379095D03*
X803783Y379095D03*
D28*
X817880Y377952D03*
X817880Y386588D03*
D29*
X864108Y279400D03*
X855472Y279400D03*
X864108Y330200D03*
X855472Y330200D03*
D30*
X855345Y300800D03*
X855345Y308800D03*
D20*
X817880Y405685D03*
X817880Y395685D03*
X786765Y379015D03*
X786765Y369015D03*
X777240Y379015D03*
X777240Y369015D03*
X767715Y379015D03*
X767715Y369015D03*
X838835Y325200D03*
X838835Y335200D03*
X838835Y351870D03*
X838835Y361870D03*
X751205Y356790D03*
X751205Y346790D03*
D14*
X891540Y88900D03*
X866140Y88900D03*
X764540Y88900D03*
X739140Y88900D03*
D25*
X793750Y497900D03*
X781050Y497900D03*
X768350Y497900D03*
X755650Y497900D03*
X755650Y441900D03*
X768350Y441900D03*
X781050Y441900D03*
X793750Y441900D03*
D20*
X735965Y447120D03*
X735965Y457120D03*
X741680Y435530D03*
X741680Y425530D03*
X899795Y233600D03*
X899795Y223600D03*
X880745Y233600D03*
X880745Y223600D03*
X890270Y233600D03*
X890270Y223600D03*
X786765Y87710D03*
X786765Y97710D03*
D26*
X820620Y51115D02*
X820620Y44135D01*
X820620Y51115D02*
X827600Y51115D01*
X827600Y44135D01*
X820620Y44135D01*
X820620Y48935D02*
X827600Y48935D01*
X803080Y51115D02*
X803080Y44135D01*
X803080Y51115D02*
X810060Y51115D01*
X810060Y44135D01*
X803080Y44135D01*
X803080Y48935D02*
X810060Y48935D01*
D10*
X177800Y1008380D03*
X12700Y563880D03*
D11*
X132080Y740410D03*
D12*
X104580Y706410D03*
X109580Y706410D03*
X114580Y706410D03*
X119580Y706410D03*
X124580Y706410D03*
X129580Y706410D03*
X134580Y706410D03*
X139580Y706410D03*
X144580Y706410D03*
X149580Y706410D03*
X154580Y706410D03*
X159580Y706410D03*
D13*
X166080Y712910D03*
X166080Y717910D03*
X166080Y722910D03*
X166080Y727910D03*
X166080Y732910D03*
X166080Y737910D03*
X166080Y742910D03*
X166080Y747910D03*
X166080Y752910D03*
X166080Y757910D03*
X166080Y762910D03*
X166080Y767910D03*
D12*
X159580Y774410D03*
X154580Y774410D03*
X149580Y774410D03*
X144580Y774410D03*
X139580Y774410D03*
X134580Y774410D03*
X129580Y774410D03*
X124580Y774410D03*
X119580Y774410D03*
X114580Y774410D03*
X109580Y774410D03*
X104580Y774410D03*
D13*
X98080Y767910D03*
X98080Y762910D03*
X98080Y757910D03*
X98080Y752910D03*
X98080Y747910D03*
X98080Y742910D03*
X98080Y737910D03*
X98080Y732910D03*
X98080Y727910D03*
X98080Y722910D03*
X98080Y717910D03*
X98080Y712910D03*
D14*
X215900Y957580D03*
X215900Y932180D03*
X215900Y906780D03*
X215900Y881380D03*
X215900Y855980D03*
X215900Y830580D03*
X215900Y805180D03*
X215900Y779780D03*
X215900Y754380D03*
X215900Y728980D03*
X215900Y703580D03*
X215900Y678180D03*
X215900Y652780D03*
X215900Y627380D03*
X215900Y601980D03*
X215900Y576580D03*
X12700Y678180D03*
X12700Y703580D03*
X12700Y728980D03*
X12700Y754380D03*
X12700Y779780D03*
X12700Y805180D03*
X12700Y830580D03*
X12700Y855980D03*
X12700Y881380D03*
X12700Y906780D03*
X12700Y932180D03*
X12700Y957580D03*
D15*
X25400Y538480D03*
X203200Y538480D03*
X203200Y995680D03*
X25400Y995680D03*
D16*
X104260Y852910D03*
X109260Y852910D03*
X114260Y852910D03*
X119260Y852910D03*
D17*
X126260Y859910D03*
X126260Y864910D03*
X126260Y869910D03*
X126260Y874910D03*
D16*
X119260Y881910D03*
X114260Y881910D03*
X109260Y881910D03*
X104260Y881910D03*
D17*
X97260Y874910D03*
X97260Y869910D03*
X97260Y864910D03*
X97260Y859910D03*
D18*
X111760Y867410D03*
D19*
X139550Y912290D03*
X146050Y912290D03*
X152550Y912290D03*
X152550Y934290D03*
X146050Y934290D03*
X139550Y934290D03*
D20*
X139620Y899160D03*
X129620Y899160D03*
X154305Y873680D03*
X154305Y863680D03*
X146050Y956230D03*
X146050Y946230D03*
D21*
X159800Y982980D03*
X132300Y982980D03*
D22*
X146050Y967730D03*
X146050Y998230D03*
D20*
X52705Y625555D03*
X52705Y635555D03*
D23*
X80005Y624055D03*
X80005Y630555D03*
X80005Y637055D03*
X63505Y637055D03*
X63505Y624055D03*
D20*
X92710Y623650D03*
X92710Y633650D03*
D24*
X104800Y601505D03*
X123800Y601505D03*
X114300Y622505D03*
D20*
X109300Y589280D03*
X119300Y589280D03*
D25*
X152400Y624780D03*
X165100Y624780D03*
X177800Y624780D03*
X190500Y624780D03*
X190500Y680780D03*
X177800Y680780D03*
X165100Y680780D03*
X152400Y680780D03*
D20*
X139700Y601265D03*
X139700Y591265D03*
X122475Y641985D03*
X112475Y641985D03*
X122475Y662305D03*
X112475Y662305D03*
X122475Y652145D03*
X112475Y652145D03*
X133350Y656035D03*
X133350Y666035D03*
X133350Y635080D03*
X133350Y645080D03*
X126920Y934720D03*
X116920Y934720D03*
X163910Y934720D03*
X173910Y934720D03*
X198755Y780495D03*
X198755Y790495D03*
X179705Y780495D03*
X179705Y790495D03*
X189230Y780495D03*
X189230Y790495D03*
X198755Y757000D03*
X198755Y767000D03*
X179705Y757000D03*
X179705Y767000D03*
X189230Y757000D03*
X189230Y767000D03*
X165100Y956230D03*
X165100Y946230D03*
X127000Y956230D03*
X127000Y946230D03*
D26*
X178120Y952300D02*
X185100Y952300D01*
X185100Y945320D01*
X178120Y945320D01*
X178120Y952300D01*
X178120Y950120D02*
X185100Y950120D01*
X185100Y969840D02*
X178120Y969840D01*
X185100Y969840D02*
X185100Y962860D01*
X178120Y962860D01*
X178120Y969840D01*
X178120Y967660D02*
X185100Y967660D01*
X113980Y952300D02*
X107000Y952300D01*
X113980Y952300D02*
X113980Y945320D01*
X107000Y945320D01*
X107000Y952300D01*
X107000Y950120D02*
X113980Y950120D01*
X113980Y969840D02*
X107000Y969840D01*
X113980Y969840D02*
X113980Y962860D01*
X107000Y962860D01*
X107000Y969840D01*
X107000Y967660D02*
X113980Y967660D01*
D20*
X87630Y686990D03*
X87630Y676990D03*
X106680Y686990D03*
X106680Y676990D03*
X97155Y686990D03*
X97155Y676990D03*
X116205Y686990D03*
X116205Y676990D03*
X135255Y686990D03*
X135255Y676990D03*
X125730Y686990D03*
X125730Y676990D03*
X66120Y696595D03*
X76120Y696595D03*
X76120Y706120D03*
X66120Y706120D03*
X53975Y804625D03*
X53975Y814625D03*
X63500Y794940D03*
X63500Y784940D03*
X82550Y794940D03*
X82550Y784940D03*
X73025Y794940D03*
X73025Y784940D03*
X76120Y715645D03*
X66120Y715645D03*
X76120Y725170D03*
X66120Y725170D03*
X76120Y744220D03*
X66120Y744220D03*
X76120Y734695D03*
X66120Y734695D03*
D27*
X51420Y762940D03*
X51420Y753440D03*
X65420Y753440D03*
X65420Y762940D03*
D20*
X50720Y773430D03*
X40720Y773430D03*
X40640Y763190D03*
X40640Y753190D03*
X76280Y763270D03*
X86280Y763270D03*
X82550Y804625D03*
X82550Y814625D03*
X73025Y804625D03*
X73025Y814625D03*
X63500Y804625D03*
X63500Y814625D03*
X114300Y786210D03*
X114300Y796210D03*
X114300Y816690D03*
X114300Y826690D03*
X124380Y806450D03*
X114380Y806450D03*
D28*
X114300Y835152D03*
X114300Y843788D03*
D20*
X67310Y940355D03*
X67310Y930355D03*
X92710Y940355D03*
X92710Y930355D03*
X85725Y914955D03*
X85725Y904955D03*
X76200Y914955D03*
X76200Y904955D03*
X77470Y838280D03*
X77470Y848280D03*
X67945Y838280D03*
X67945Y848280D03*
D29*
X78232Y869950D03*
X86868Y869950D03*
D20*
X69215Y869870D03*
X69215Y859870D03*
X59690Y869870D03*
X59690Y859870D03*
D29*
X94107Y892175D03*
X102743Y892175D03*
D28*
X116840Y891032D03*
X116840Y899668D03*
D29*
X163068Y792480D03*
X154432Y792480D03*
X163068Y843280D03*
X154432Y843280D03*
D30*
X154305Y813880D03*
X154305Y821880D03*
D20*
X116840Y918765D03*
X116840Y908765D03*
X85725Y892095D03*
X85725Y882095D03*
X76200Y892095D03*
X76200Y882095D03*
X66675Y892095D03*
X66675Y882095D03*
X137795Y838280D03*
X137795Y848280D03*
X137795Y864950D03*
X137795Y874950D03*
X50165Y869870D03*
X50165Y859870D03*
D14*
X190500Y601980D03*
X165100Y601980D03*
X63500Y601980D03*
X38100Y601980D03*
D25*
X92710Y1010980D03*
X80010Y1010980D03*
X67310Y1010980D03*
X54610Y1010980D03*
X54610Y954980D03*
X67310Y954980D03*
X80010Y954980D03*
X92710Y954980D03*
D20*
X34925Y960200D03*
X34925Y970200D03*
X40640Y948610D03*
X40640Y938610D03*
X198755Y746680D03*
X198755Y736680D03*
X179705Y746680D03*
X179705Y736680D03*
X189230Y746680D03*
X189230Y736680D03*
X85725Y600790D03*
X85725Y610790D03*
D26*
X119580Y564195D02*
X119580Y557215D01*
X119580Y564195D02*
X126560Y564195D01*
X126560Y557215D01*
X119580Y557215D01*
X119580Y562015D02*
X126560Y562015D01*
X102040Y564195D02*
X102040Y557215D01*
X102040Y564195D02*
X109020Y564195D01*
X109020Y557215D01*
X102040Y557215D01*
X102040Y562015D02*
X109020Y562015D01*
D10*
X411480Y1008380D03*
X246380Y563880D03*
D11*
X365760Y740410D03*
D12*
X338260Y706410D03*
X343260Y706410D03*
X348260Y706410D03*
X353260Y706410D03*
X358260Y706410D03*
X363260Y706410D03*
X368260Y706410D03*
X373260Y706410D03*
X378260Y706410D03*
X383260Y706410D03*
X388260Y706410D03*
X393260Y706410D03*
D13*
X399760Y712910D03*
X399760Y717910D03*
X399760Y722910D03*
X399760Y727910D03*
X399760Y732910D03*
X399760Y737910D03*
X399760Y742910D03*
X399760Y747910D03*
X399760Y752910D03*
X399760Y757910D03*
X399760Y762910D03*
X399760Y767910D03*
D12*
X393260Y774410D03*
X388260Y774410D03*
X383260Y774410D03*
X378260Y774410D03*
X373260Y774410D03*
X368260Y774410D03*
X363260Y774410D03*
X358260Y774410D03*
X353260Y774410D03*
X348260Y774410D03*
X343260Y774410D03*
X338260Y774410D03*
D13*
X331760Y767910D03*
X331760Y762910D03*
X331760Y757910D03*
X331760Y752910D03*
X331760Y747910D03*
X331760Y742910D03*
X331760Y737910D03*
X331760Y732910D03*
X331760Y727910D03*
X331760Y722910D03*
X331760Y717910D03*
X331760Y712910D03*
D14*
X449580Y957580D03*
X449580Y932180D03*
X449580Y906780D03*
X449580Y881380D03*
X449580Y855980D03*
X449580Y830580D03*
X449580Y805180D03*
X449580Y779780D03*
X449580Y754380D03*
X449580Y728980D03*
X449580Y703580D03*
X449580Y678180D03*
X449580Y652780D03*
X449580Y627380D03*
X449580Y601980D03*
X449580Y576580D03*
X246380Y678180D03*
X246380Y703580D03*
X246380Y728980D03*
X246380Y754380D03*
X246380Y779780D03*
X246380Y805180D03*
X246380Y830580D03*
X246380Y855980D03*
X246380Y881380D03*
X246380Y906780D03*
X246380Y932180D03*
X246380Y957580D03*
D15*
X259080Y538480D03*
X436880Y538480D03*
X436880Y995680D03*
X259080Y995680D03*
D16*
X337940Y852910D03*
X342940Y852910D03*
X347940Y852910D03*
X352940Y852910D03*
D17*
X359940Y859910D03*
X359940Y864910D03*
X359940Y869910D03*
X359940Y874910D03*
D16*
X352940Y881910D03*
X347940Y881910D03*
X342940Y881910D03*
X337940Y881910D03*
D17*
X330940Y874910D03*
X330940Y869910D03*
X330940Y864910D03*
X330940Y859910D03*
D18*
X345440Y867410D03*
D19*
X373230Y912290D03*
X379730Y912290D03*
X386230Y912290D03*
X386230Y934290D03*
X379730Y934290D03*
X373230Y934290D03*
D20*
X373300Y899160D03*
X363300Y899160D03*
X387985Y873680D03*
X387985Y863680D03*
X379730Y956230D03*
X379730Y946230D03*
D21*
X393480Y982980D03*
X365980Y982980D03*
D22*
X379730Y967730D03*
X379730Y998230D03*
D20*
X286385Y625555D03*
X286385Y635555D03*
D23*
X313685Y624055D03*
X313685Y630555D03*
X313685Y637055D03*
X297185Y637055D03*
X297185Y624055D03*
D20*
X326390Y623650D03*
X326390Y633650D03*
D24*
X338480Y601505D03*
X357480Y601505D03*
X347980Y622505D03*
D20*
X342980Y589280D03*
X352980Y589280D03*
D25*
X386080Y624780D03*
X398780Y624780D03*
X411480Y624780D03*
X424180Y624780D03*
X424180Y680780D03*
X411480Y680780D03*
X398780Y680780D03*
X386080Y680780D03*
D20*
X373380Y601265D03*
X373380Y591265D03*
X356155Y641985D03*
X346155Y641985D03*
X356155Y662305D03*
X346155Y662305D03*
X356155Y652145D03*
X346155Y652145D03*
X367030Y656035D03*
X367030Y666035D03*
X367030Y635080D03*
X367030Y645080D03*
X360600Y934720D03*
X350600Y934720D03*
X397590Y934720D03*
X407590Y934720D03*
X432435Y780495D03*
X432435Y790495D03*
X413385Y780495D03*
X413385Y790495D03*
X422910Y780495D03*
X422910Y790495D03*
X432435Y757000D03*
X432435Y767000D03*
X413385Y757000D03*
X413385Y767000D03*
X422910Y757000D03*
X422910Y767000D03*
X398780Y956230D03*
X398780Y946230D03*
X360680Y956230D03*
X360680Y946230D03*
D26*
X411800Y952300D02*
X418780Y952300D01*
X418780Y945320D01*
X411800Y945320D01*
X411800Y952300D01*
X411800Y950120D02*
X418780Y950120D01*
X418780Y969840D02*
X411800Y969840D01*
X418780Y969840D02*
X418780Y962860D01*
X411800Y962860D01*
X411800Y969840D01*
X411800Y967660D02*
X418780Y967660D01*
X347660Y952300D02*
X340680Y952300D01*
X347660Y952300D02*
X347660Y945320D01*
X340680Y945320D01*
X340680Y952300D01*
X340680Y950120D02*
X347660Y950120D01*
X347660Y969840D02*
X340680Y969840D01*
X347660Y969840D02*
X347660Y962860D01*
X340680Y962860D01*
X340680Y969840D01*
X340680Y967660D02*
X347660Y967660D01*
D20*
X321310Y686990D03*
X321310Y676990D03*
X340360Y686990D03*
X340360Y676990D03*
X330835Y686990D03*
X330835Y676990D03*
X349885Y686990D03*
X349885Y676990D03*
X368935Y686990D03*
X368935Y676990D03*
X359410Y686990D03*
X359410Y676990D03*
X299800Y696595D03*
X309800Y696595D03*
X309800Y706120D03*
X299800Y706120D03*
X287655Y804625D03*
X287655Y814625D03*
X297180Y794940D03*
X297180Y784940D03*
X316230Y794940D03*
X316230Y784940D03*
X306705Y794940D03*
X306705Y784940D03*
X309800Y715645D03*
X299800Y715645D03*
X309800Y725170D03*
X299800Y725170D03*
X309800Y744220D03*
X299800Y744220D03*
X309800Y734695D03*
X299800Y734695D03*
D27*
X285100Y762940D03*
X285100Y753440D03*
X299100Y753440D03*
X299100Y762940D03*
D20*
X284400Y773430D03*
X274400Y773430D03*
X274320Y763190D03*
X274320Y753190D03*
X309960Y763270D03*
X319960Y763270D03*
X316230Y804625D03*
X316230Y814625D03*
X306705Y804625D03*
X306705Y814625D03*
X297180Y804625D03*
X297180Y814625D03*
X347980Y786210D03*
X347980Y796210D03*
X347980Y816690D03*
X347980Y826690D03*
X358060Y806450D03*
X348060Y806450D03*
D28*
X347980Y835152D03*
X347980Y843788D03*
D20*
X300990Y940355D03*
X300990Y930355D03*
X326390Y940355D03*
X326390Y930355D03*
X319405Y914955D03*
X319405Y904955D03*
X309880Y914955D03*
X309880Y904955D03*
X311150Y838280D03*
X311150Y848280D03*
X301625Y838280D03*
X301625Y848280D03*
D29*
X311912Y869950D03*
X320548Y869950D03*
D20*
X302895Y869870D03*
X302895Y859870D03*
X293370Y869870D03*
X293370Y859870D03*
D29*
X327787Y892175D03*
X336423Y892175D03*
D28*
X350520Y891032D03*
X350520Y899668D03*
D29*
X396748Y792480D03*
X388112Y792480D03*
X396748Y843280D03*
X388112Y843280D03*
D30*
X387985Y813880D03*
X387985Y821880D03*
D20*
X350520Y918765D03*
X350520Y908765D03*
X319405Y892095D03*
X319405Y882095D03*
X309880Y892095D03*
X309880Y882095D03*
X300355Y892095D03*
X300355Y882095D03*
X371475Y838280D03*
X371475Y848280D03*
X371475Y864950D03*
X371475Y874950D03*
X283845Y869870D03*
X283845Y859870D03*
D14*
X424180Y601980D03*
X398780Y601980D03*
X297180Y601980D03*
X271780Y601980D03*
D25*
X326390Y1010980D03*
X313690Y1010980D03*
X300990Y1010980D03*
X288290Y1010980D03*
X288290Y954980D03*
X300990Y954980D03*
X313690Y954980D03*
X326390Y954980D03*
D20*
X268605Y960200D03*
X268605Y970200D03*
X274320Y948610D03*
X274320Y938610D03*
X432435Y746680D03*
X432435Y736680D03*
X413385Y746680D03*
X413385Y736680D03*
X422910Y746680D03*
X422910Y736680D03*
X319405Y600790D03*
X319405Y610790D03*
D26*
X353260Y564195D02*
X353260Y557215D01*
X353260Y564195D02*
X360240Y564195D01*
X360240Y557215D01*
X353260Y557215D01*
X353260Y562015D02*
X360240Y562015D01*
X335720Y564195D02*
X335720Y557215D01*
X335720Y564195D02*
X342700Y564195D01*
X342700Y557215D01*
X335720Y557215D01*
X335720Y562015D02*
X342700Y562015D01*
D10*
X645160Y1008380D03*
X480060Y563880D03*
D11*
X599440Y740410D03*
D12*
X571940Y706410D03*
X576940Y706410D03*
X581940Y706410D03*
X586940Y706410D03*
X591940Y706410D03*
X596940Y706410D03*
X601940Y706410D03*
X606940Y706410D03*
X611940Y706410D03*
X616940Y706410D03*
X621940Y706410D03*
X626940Y706410D03*
D13*
X633440Y712910D03*
X633440Y717910D03*
X633440Y722910D03*
X633440Y727910D03*
X633440Y732910D03*
X633440Y737910D03*
X633440Y742910D03*
X633440Y747910D03*
X633440Y752910D03*
X633440Y757910D03*
X633440Y762910D03*
X633440Y767910D03*
D12*
X626940Y774410D03*
X621940Y774410D03*
X616940Y774410D03*
X611940Y774410D03*
X606940Y774410D03*
X601940Y774410D03*
X596940Y774410D03*
X591940Y774410D03*
X586940Y774410D03*
X581940Y774410D03*
X576940Y774410D03*
X571940Y774410D03*
D13*
X565440Y767910D03*
X565440Y762910D03*
X565440Y757910D03*
X565440Y752910D03*
X565440Y747910D03*
X565440Y742910D03*
X565440Y737910D03*
X565440Y732910D03*
X565440Y727910D03*
X565440Y722910D03*
X565440Y717910D03*
X565440Y712910D03*
D14*
X683260Y957580D03*
X683260Y932180D03*
X683260Y906780D03*
X683260Y881380D03*
X683260Y855980D03*
X683260Y830580D03*
X683260Y805180D03*
X683260Y779780D03*
X683260Y754380D03*
X683260Y728980D03*
X683260Y703580D03*
X683260Y678180D03*
X683260Y652780D03*
X683260Y627380D03*
X683260Y601980D03*
X683260Y576580D03*
X480060Y678180D03*
X480060Y703580D03*
X480060Y728980D03*
X480060Y754380D03*
X480060Y779780D03*
X480060Y805180D03*
X480060Y830580D03*
X480060Y855980D03*
X480060Y881380D03*
X480060Y906780D03*
X480060Y932180D03*
X480060Y957580D03*
D15*
X492760Y538480D03*
X670560Y538480D03*
X670560Y995680D03*
X492760Y995680D03*
D16*
X571620Y852910D03*
X576620Y852910D03*
X581620Y852910D03*
X586620Y852910D03*
D17*
X593620Y859910D03*
X593620Y864910D03*
X593620Y869910D03*
X593620Y874910D03*
D16*
X586620Y881910D03*
X581620Y881910D03*
X576620Y881910D03*
X571620Y881910D03*
D17*
X564620Y874910D03*
X564620Y869910D03*
X564620Y864910D03*
X564620Y859910D03*
D18*
X579120Y867410D03*
D19*
X606910Y912290D03*
X613410Y912290D03*
X619910Y912290D03*
X619910Y934290D03*
X613410Y934290D03*
X606910Y934290D03*
D20*
X606980Y899160D03*
X596980Y899160D03*
X621665Y873680D03*
X621665Y863680D03*
X613410Y956230D03*
X613410Y946230D03*
D21*
X627160Y982980D03*
X599660Y982980D03*
D22*
X613410Y967730D03*
X613410Y998230D03*
D20*
X520065Y625555D03*
X520065Y635555D03*
D23*
X547365Y624055D03*
X547365Y630555D03*
X547365Y637055D03*
X530865Y637055D03*
X530865Y624055D03*
D20*
X560070Y623650D03*
X560070Y633650D03*
D24*
X572160Y601505D03*
X591160Y601505D03*
X581660Y622505D03*
D20*
X576660Y589280D03*
X586660Y589280D03*
D25*
X619760Y624780D03*
X632460Y624780D03*
X645160Y624780D03*
X657860Y624780D03*
X657860Y680780D03*
X645160Y680780D03*
X632460Y680780D03*
X619760Y680780D03*
D20*
X607060Y601265D03*
X607060Y591265D03*
X589835Y641985D03*
X579835Y641985D03*
X589835Y662305D03*
X579835Y662305D03*
X589835Y652145D03*
X579835Y652145D03*
X600710Y656035D03*
X600710Y666035D03*
X600710Y635080D03*
X600710Y645080D03*
X594280Y934720D03*
X584280Y934720D03*
X631270Y934720D03*
X641270Y934720D03*
X666115Y780495D03*
X666115Y790495D03*
X647065Y780495D03*
X647065Y790495D03*
X656590Y780495D03*
X656590Y790495D03*
X666115Y757000D03*
X666115Y767000D03*
X647065Y757000D03*
X647065Y767000D03*
X656590Y757000D03*
X656590Y767000D03*
X632460Y956230D03*
X632460Y946230D03*
X594360Y956230D03*
X594360Y946230D03*
D26*
X645480Y952300D02*
X652460Y952300D01*
X652460Y945320D01*
X645480Y945320D01*
X645480Y952300D01*
X645480Y950120D02*
X652460Y950120D01*
X652460Y969840D02*
X645480Y969840D01*
X652460Y969840D02*
X652460Y962860D01*
X645480Y962860D01*
X645480Y969840D01*
X645480Y967660D02*
X652460Y967660D01*
X581340Y952300D02*
X574360Y952300D01*
X581340Y952300D02*
X581340Y945320D01*
X574360Y945320D01*
X574360Y952300D01*
X574360Y950120D02*
X581340Y950120D01*
X581340Y969840D02*
X574360Y969840D01*
X581340Y969840D02*
X581340Y962860D01*
X574360Y962860D01*
X574360Y969840D01*
X574360Y967660D02*
X581340Y967660D01*
D20*
X554990Y686990D03*
X554990Y676990D03*
X574040Y686990D03*
X574040Y676990D03*
X564515Y686990D03*
X564515Y676990D03*
X583565Y686990D03*
X583565Y676990D03*
X602615Y686990D03*
X602615Y676990D03*
X593090Y686990D03*
X593090Y676990D03*
X533480Y696595D03*
X543480Y696595D03*
X543480Y706120D03*
X533480Y706120D03*
X521335Y804625D03*
X521335Y814625D03*
X530860Y794940D03*
X530860Y784940D03*
X549910Y794940D03*
X549910Y784940D03*
X540385Y794940D03*
X540385Y784940D03*
X543480Y715645D03*
X533480Y715645D03*
X543480Y725170D03*
X533480Y725170D03*
X543480Y744220D03*
X533480Y744220D03*
X543480Y734695D03*
X533480Y734695D03*
D27*
X518780Y762940D03*
X518780Y753440D03*
X532780Y753440D03*
X532780Y762940D03*
D20*
X518080Y773430D03*
X508080Y773430D03*
X508000Y763190D03*
X508000Y753190D03*
X543640Y763270D03*
X553640Y763270D03*
X549910Y804625D03*
X549910Y814625D03*
X540385Y804625D03*
X540385Y814625D03*
X530860Y804625D03*
X530860Y814625D03*
X581660Y786210D03*
X581660Y796210D03*
X581660Y816690D03*
X581660Y826690D03*
X591740Y806450D03*
X581740Y806450D03*
D28*
X581660Y835152D03*
X581660Y843788D03*
D20*
X534670Y940355D03*
X534670Y930355D03*
X560070Y940355D03*
X560070Y930355D03*
X553085Y914955D03*
X553085Y904955D03*
X543560Y914955D03*
X543560Y904955D03*
X544830Y838280D03*
X544830Y848280D03*
X535305Y838280D03*
X535305Y848280D03*
D29*
X545592Y869950D03*
X554228Y869950D03*
D20*
X536575Y869870D03*
X536575Y859870D03*
X527050Y869870D03*
X527050Y859870D03*
D29*
X561467Y892175D03*
X570103Y892175D03*
D28*
X584200Y891032D03*
X584200Y899668D03*
D29*
X630428Y792480D03*
X621792Y792480D03*
X630428Y843280D03*
X621792Y843280D03*
D30*
X621665Y813880D03*
X621665Y821880D03*
D20*
X584200Y918765D03*
X584200Y908765D03*
X553085Y892095D03*
X553085Y882095D03*
X543560Y892095D03*
X543560Y882095D03*
X534035Y892095D03*
X534035Y882095D03*
X605155Y838280D03*
X605155Y848280D03*
X605155Y864950D03*
X605155Y874950D03*
X517525Y869870D03*
X517525Y859870D03*
D14*
X657860Y601980D03*
X632460Y601980D03*
X530860Y601980D03*
X505460Y601980D03*
D25*
X560070Y1010980D03*
X547370Y1010980D03*
X534670Y1010980D03*
X521970Y1010980D03*
X521970Y954980D03*
X534670Y954980D03*
X547370Y954980D03*
X560070Y954980D03*
D20*
X502285Y960200D03*
X502285Y970200D03*
X508000Y948610D03*
X508000Y938610D03*
X666115Y746680D03*
X666115Y736680D03*
X647065Y746680D03*
X647065Y736680D03*
X656590Y746680D03*
X656590Y736680D03*
X553085Y600790D03*
X553085Y610790D03*
D26*
X586940Y564195D02*
X586940Y557215D01*
X586940Y564195D02*
X593920Y564195D01*
X593920Y557215D01*
X586940Y557215D01*
X586940Y562015D02*
X593920Y562015D01*
X569400Y564195D02*
X569400Y557215D01*
X569400Y564195D02*
X576380Y564195D01*
X576380Y557215D01*
X569400Y557215D01*
X569400Y562015D02*
X576380Y562015D01*
D10*
X878840Y1008380D03*
X713740Y563880D03*
D11*
X833120Y740410D03*
D12*
X805620Y706410D03*
X810620Y706410D03*
X815620Y706410D03*
X820620Y706410D03*
X825620Y706410D03*
X830620Y706410D03*
X835620Y706410D03*
X840620Y706410D03*
X845620Y706410D03*
X850620Y706410D03*
X855620Y706410D03*
X860620Y706410D03*
D13*
X867120Y712910D03*
X867120Y717910D03*
X867120Y722910D03*
X867120Y727910D03*
X867120Y732910D03*
X867120Y737910D03*
X867120Y742910D03*
X867120Y747910D03*
X867120Y752910D03*
X867120Y757910D03*
X867120Y762910D03*
X867120Y767910D03*
D12*
X860620Y774410D03*
X855620Y774410D03*
X850620Y774410D03*
X845620Y774410D03*
X840620Y774410D03*
X835620Y774410D03*
X830620Y774410D03*
X825620Y774410D03*
X820620Y774410D03*
X815620Y774410D03*
X810620Y774410D03*
X805620Y774410D03*
D13*
X799120Y767910D03*
X799120Y762910D03*
X799120Y757910D03*
X799120Y752910D03*
X799120Y747910D03*
X799120Y742910D03*
X799120Y737910D03*
X799120Y732910D03*
X799120Y727910D03*
X799120Y722910D03*
X799120Y717910D03*
X799120Y712910D03*
D14*
X916940Y957580D03*
X916940Y932180D03*
X916940Y906780D03*
X916940Y881380D03*
X916940Y855980D03*
X916940Y830580D03*
X916940Y805180D03*
X916940Y779780D03*
X916940Y754380D03*
X916940Y728980D03*
X916940Y703580D03*
X916940Y678180D03*
X916940Y652780D03*
X916940Y627380D03*
X916940Y601980D03*
X916940Y576580D03*
X713740Y678180D03*
X713740Y703580D03*
X713740Y728980D03*
X713740Y754380D03*
X713740Y779780D03*
X713740Y805180D03*
X713740Y830580D03*
X713740Y855980D03*
X713740Y881380D03*
X713740Y906780D03*
X713740Y932180D03*
X713740Y957580D03*
D15*
X726440Y538480D03*
X904240Y538480D03*
X904240Y995680D03*
X726440Y995680D03*
D16*
X805300Y852910D03*
X810300Y852910D03*
X815300Y852910D03*
X820300Y852910D03*
D17*
X827300Y859910D03*
X827300Y864910D03*
X827300Y869910D03*
X827300Y874910D03*
D16*
X820300Y881910D03*
X815300Y881910D03*
X810300Y881910D03*
X805300Y881910D03*
D17*
X798300Y874910D03*
X798300Y869910D03*
X798300Y864910D03*
X798300Y859910D03*
D18*
X812800Y867410D03*
D19*
X840590Y912290D03*
X847090Y912290D03*
X853590Y912290D03*
X853590Y934290D03*
X847090Y934290D03*
X840590Y934290D03*
D20*
X840660Y899160D03*
X830660Y899160D03*
X855345Y873680D03*
X855345Y863680D03*
X847090Y956230D03*
X847090Y946230D03*
D21*
X860840Y982980D03*
X833340Y982980D03*
D22*
X847090Y967730D03*
X847090Y998230D03*
D20*
X753745Y625555D03*
X753745Y635555D03*
D23*
X781045Y624055D03*
X781045Y630555D03*
X781045Y637055D03*
X764545Y637055D03*
X764545Y624055D03*
D20*
X793750Y623650D03*
X793750Y633650D03*
D24*
X805840Y601505D03*
X824840Y601505D03*
X815340Y622505D03*
D20*
X810340Y589280D03*
X820340Y589280D03*
D25*
X853440Y624780D03*
X866140Y624780D03*
X878840Y624780D03*
X891540Y624780D03*
X891540Y680780D03*
X878840Y680780D03*
X866140Y680780D03*
X853440Y680780D03*
D20*
X840740Y601265D03*
X840740Y591265D03*
X823515Y641985D03*
X813515Y641985D03*
X823515Y662305D03*
X813515Y662305D03*
X823515Y652145D03*
X813515Y652145D03*
X834390Y656035D03*
X834390Y666035D03*
X834390Y635080D03*
X834390Y645080D03*
X827960Y934720D03*
X817960Y934720D03*
X864950Y934720D03*
X874950Y934720D03*
X899795Y780495D03*
X899795Y790495D03*
X880745Y780495D03*
X880745Y790495D03*
X890270Y780495D03*
X890270Y790495D03*
X899795Y757000D03*
X899795Y767000D03*
X880745Y757000D03*
X880745Y767000D03*
X890270Y757000D03*
X890270Y767000D03*
X866140Y956230D03*
X866140Y946230D03*
X828040Y956230D03*
X828040Y946230D03*
D26*
X879160Y952300D02*
X886140Y952300D01*
X886140Y945320D01*
X879160Y945320D01*
X879160Y952300D01*
X879160Y950120D02*
X886140Y950120D01*
X886140Y969840D02*
X879160Y969840D01*
X886140Y969840D02*
X886140Y962860D01*
X879160Y962860D01*
X879160Y969840D01*
X879160Y967660D02*
X886140Y967660D01*
X815020Y952300D02*
X808040Y952300D01*
X815020Y952300D02*
X815020Y945320D01*
X808040Y945320D01*
X808040Y952300D01*
X808040Y950120D02*
X815020Y950120D01*
X815020Y969840D02*
X808040Y969840D01*
X815020Y969840D02*
X815020Y962860D01*
X808040Y962860D01*
X808040Y969840D01*
X808040Y967660D02*
X815020Y967660D01*
D20*
X788670Y686990D03*
X788670Y676990D03*
X807720Y686990D03*
X807720Y676990D03*
X798195Y686990D03*
X798195Y676990D03*
X817245Y686990D03*
X817245Y676990D03*
X836295Y686990D03*
X836295Y676990D03*
X826770Y686990D03*
X826770Y676990D03*
X767160Y696595D03*
X777160Y696595D03*
X777160Y706120D03*
X767160Y706120D03*
X755015Y804625D03*
X755015Y814625D03*
X764540Y794940D03*
X764540Y784940D03*
X783590Y794940D03*
X783590Y784940D03*
X774065Y794940D03*
X774065Y784940D03*
X777160Y715645D03*
X767160Y715645D03*
X777160Y725170D03*
X767160Y725170D03*
X777160Y744220D03*
X767160Y744220D03*
X777160Y734695D03*
X767160Y734695D03*
D27*
X752460Y762940D03*
X752460Y753440D03*
X766460Y753440D03*
X766460Y762940D03*
D20*
X751760Y773430D03*
X741760Y773430D03*
X741680Y763190D03*
X741680Y753190D03*
X777320Y763270D03*
X787320Y763270D03*
X783590Y804625D03*
X783590Y814625D03*
X774065Y804625D03*
X774065Y814625D03*
X764540Y804625D03*
X764540Y814625D03*
X815340Y786210D03*
X815340Y796210D03*
X815340Y816690D03*
X815340Y826690D03*
X825420Y806450D03*
X815420Y806450D03*
D28*
X815340Y835152D03*
X815340Y843788D03*
D20*
X768350Y940355D03*
X768350Y930355D03*
X793750Y940355D03*
X793750Y930355D03*
X786765Y914955D03*
X786765Y904955D03*
X777240Y914955D03*
X777240Y904955D03*
X778510Y838280D03*
X778510Y848280D03*
X768985Y838280D03*
X768985Y848280D03*
D29*
X779272Y869950D03*
X787908Y869950D03*
D20*
X770255Y869870D03*
X770255Y859870D03*
X760730Y869870D03*
X760730Y859870D03*
D29*
X795147Y892175D03*
X803783Y892175D03*
D28*
X817880Y891032D03*
X817880Y899668D03*
D29*
X864108Y792480D03*
X855472Y792480D03*
X864108Y843280D03*
X855472Y843280D03*
D30*
X855345Y813880D03*
X855345Y821880D03*
D20*
X817880Y918765D03*
X817880Y908765D03*
X786765Y892095D03*
X786765Y882095D03*
X777240Y892095D03*
X777240Y882095D03*
X767715Y892095D03*
X767715Y882095D03*
X838835Y838280D03*
X838835Y848280D03*
X838835Y864950D03*
X838835Y874950D03*
X751205Y869870D03*
X751205Y859870D03*
D14*
X891540Y601980D03*
X866140Y601980D03*
X764540Y601980D03*
X739140Y601980D03*
D25*
X793750Y1010980D03*
X781050Y1010980D03*
X768350Y1010980D03*
X755650Y1010980D03*
X755650Y954980D03*
X768350Y954980D03*
X781050Y954980D03*
X793750Y954980D03*
D20*
X735965Y960200D03*
X735965Y970200D03*
X741680Y948610D03*
X741680Y938610D03*
X899795Y746680D03*
X899795Y736680D03*
X880745Y746680D03*
X880745Y736680D03*
X890270Y746680D03*
X890270Y736680D03*
X786765Y600790D03*
X786765Y610790D03*
D26*
X820620Y564195D02*
X820620Y557215D01*
X820620Y564195D02*
X827600Y564195D01*
X827600Y557215D01*
X820620Y557215D01*
X820620Y562015D02*
X827600Y562015D01*
X803080Y564195D02*
X803080Y557215D01*
X803080Y564195D02*
X810060Y564195D01*
X810060Y557215D01*
X803080Y557215D01*
X803080Y562015D02*
X810060Y562015D01*
D10*
X68580Y1042035D03*
X860425Y1042035D03*
D31*
X59525Y-20955D02*
X59528Y-20733D01*
X59536Y-20511D01*
X59550Y-20289D01*
X59569Y-20067D01*
X59593Y-19847D01*
X59623Y-19626D01*
X59658Y-19407D01*
X59699Y-19188D01*
X59745Y-18971D01*
X59796Y-18755D01*
X59853Y-18540D01*
X59915Y-18326D01*
X59982Y-18115D01*
X60054Y-17904D01*
X60132Y-17696D01*
X60214Y-17490D01*
X60302Y-17286D01*
X60394Y-17083D01*
X60492Y-16884D01*
X60594Y-16687D01*
X60701Y-16492D01*
X60813Y-16300D01*
X60930Y-16111D01*
X61051Y-15924D01*
X61177Y-15741D01*
X61307Y-15561D01*
X61442Y-15384D01*
X61580Y-15211D01*
X61723Y-15041D01*
X61871Y-14874D01*
X62022Y-14711D01*
X62177Y-14552D01*
X62336Y-14397D01*
X62499Y-14246D01*
X62666Y-14098D01*
X62836Y-13955D01*
X63009Y-13817D01*
X63186Y-13682D01*
X63366Y-13552D01*
X63549Y-13426D01*
X63736Y-13305D01*
X63925Y-13188D01*
X64117Y-13076D01*
X64312Y-12969D01*
X64509Y-12867D01*
X64708Y-12769D01*
X64911Y-12677D01*
X65115Y-12589D01*
X65321Y-12507D01*
X65529Y-12429D01*
X65740Y-12357D01*
X65951Y-12290D01*
X66165Y-12228D01*
X66380Y-12171D01*
X66596Y-12120D01*
X66813Y-12074D01*
X67032Y-12033D01*
X67251Y-11998D01*
X67472Y-11968D01*
X67692Y-11944D01*
X67914Y-11925D01*
X68136Y-11911D01*
X68358Y-11903D01*
X68580Y-11900D01*
X68802Y-11903D01*
X69024Y-11911D01*
X69246Y-11925D01*
X69468Y-11944D01*
X69688Y-11968D01*
X69909Y-11998D01*
X70128Y-12033D01*
X70347Y-12074D01*
X70564Y-12120D01*
X70780Y-12171D01*
X70995Y-12228D01*
X71209Y-12290D01*
X71420Y-12357D01*
X71631Y-12429D01*
X71839Y-12507D01*
X72045Y-12589D01*
X72249Y-12677D01*
X72452Y-12769D01*
X72651Y-12867D01*
X72848Y-12969D01*
X73043Y-13076D01*
X73235Y-13188D01*
X73424Y-13305D01*
X73611Y-13426D01*
X73794Y-13552D01*
X73974Y-13682D01*
X74151Y-13817D01*
X74324Y-13955D01*
X74494Y-14098D01*
X74661Y-14246D01*
X74824Y-14397D01*
X74983Y-14552D01*
X75138Y-14711D01*
X75289Y-14874D01*
X75437Y-15041D01*
X75580Y-15211D01*
X75718Y-15384D01*
X75853Y-15561D01*
X75983Y-15741D01*
X76109Y-15924D01*
X76230Y-16111D01*
X76347Y-16300D01*
X76459Y-16492D01*
X76566Y-16687D01*
X76668Y-16884D01*
X76766Y-17083D01*
X76858Y-17286D01*
X76946Y-17490D01*
X77028Y-17696D01*
X77106Y-17904D01*
X77178Y-18115D01*
X77245Y-18326D01*
X77307Y-18540D01*
X77364Y-18755D01*
X77415Y-18971D01*
X77461Y-19188D01*
X77502Y-19407D01*
X77537Y-19626D01*
X77567Y-19847D01*
X77591Y-20067D01*
X77610Y-20289D01*
X77624Y-20511D01*
X77632Y-20733D01*
X77635Y-20955D01*
X77632Y-21177D01*
X77624Y-21399D01*
X77610Y-21621D01*
X77591Y-21843D01*
X77567Y-22063D01*
X77537Y-22284D01*
X77502Y-22503D01*
X77461Y-22722D01*
X77415Y-22939D01*
X77364Y-23155D01*
X77307Y-23370D01*
X77245Y-23584D01*
X77178Y-23795D01*
X77106Y-24006D01*
X77028Y-24214D01*
X76946Y-24420D01*
X76858Y-24624D01*
X76766Y-24827D01*
X76668Y-25026D01*
X76566Y-25223D01*
X76459Y-25418D01*
X76347Y-25610D01*
X76230Y-25799D01*
X76109Y-25986D01*
X75983Y-26169D01*
X75853Y-26349D01*
X75718Y-26526D01*
X75580Y-26699D01*
X75437Y-26869D01*
X75289Y-27036D01*
X75138Y-27199D01*
X74983Y-27358D01*
X74824Y-27513D01*
X74661Y-27664D01*
X74494Y-27812D01*
X74324Y-27955D01*
X74151Y-28093D01*
X73974Y-28228D01*
X73794Y-28358D01*
X73611Y-28484D01*
X73424Y-28605D01*
X73235Y-28722D01*
X73043Y-28834D01*
X72848Y-28941D01*
X72651Y-29043D01*
X72452Y-29141D01*
X72249Y-29233D01*
X72045Y-29321D01*
X71839Y-29403D01*
X71631Y-29481D01*
X71420Y-29553D01*
X71209Y-29620D01*
X70995Y-29682D01*
X70780Y-29739D01*
X70564Y-29790D01*
X70347Y-29836D01*
X70128Y-29877D01*
X69909Y-29912D01*
X69688Y-29942D01*
X69468Y-29966D01*
X69246Y-29985D01*
X69024Y-29999D01*
X68802Y-30007D01*
X68580Y-30010D01*
X68358Y-30007D01*
X68136Y-29999D01*
X67914Y-29985D01*
X67692Y-29966D01*
X67472Y-29942D01*
X67251Y-29912D01*
X67032Y-29877D01*
X66813Y-29836D01*
X66596Y-29790D01*
X66380Y-29739D01*
X66165Y-29682D01*
X65951Y-29620D01*
X65740Y-29553D01*
X65529Y-29481D01*
X65321Y-29403D01*
X65115Y-29321D01*
X64911Y-29233D01*
X64708Y-29141D01*
X64509Y-29043D01*
X64312Y-28941D01*
X64117Y-28834D01*
X63925Y-28722D01*
X63736Y-28605D01*
X63549Y-28484D01*
X63366Y-28358D01*
X63186Y-28228D01*
X63009Y-28093D01*
X62836Y-27955D01*
X62666Y-27812D01*
X62499Y-27664D01*
X62336Y-27513D01*
X62177Y-27358D01*
X62022Y-27199D01*
X61871Y-27036D01*
X61723Y-26869D01*
X61580Y-26699D01*
X61442Y-26526D01*
X61307Y-26349D01*
X61177Y-26169D01*
X61051Y-25986D01*
X60930Y-25799D01*
X60813Y-25610D01*
X60701Y-25418D01*
X60594Y-25223D01*
X60492Y-25026D01*
X60394Y-24827D01*
X60302Y-24624D01*
X60214Y-24420D01*
X60132Y-24214D01*
X60054Y-24006D01*
X59982Y-23795D01*
X59915Y-23584D01*
X59853Y-23370D01*
X59796Y-23155D01*
X59745Y-22939D01*
X59699Y-22722D01*
X59658Y-22503D01*
X59623Y-22284D01*
X59593Y-22063D01*
X59569Y-21843D01*
X59550Y-21621D01*
X59536Y-21399D01*
X59528Y-21177D01*
X59525Y-20955D01*
D32*
X68580Y-20955D03*
M02*
