G04 EAGLE Gerber RS-274X export*
G75*
%MOMM*%
%FSLAX34Y34*%
%LPD*%
%INSoldermask Bottom*%
%IPPOS*%
%AMOC8*
5,1,8,0,0,1.08239X$1,22.5*%
G01*
%ADD10C,1.203200*%
%ADD11C,2.082800*%
%ADD12C,3.505200*%
%ADD13R,1.473200X0.863600*%
%ADD14R,0.863600X1.473200*%
%ADD15C,1.221313*%
%ADD16C,0.762000*%
%ADD17C,1.270000*%
%ADD18C,1.703200*%

G36*
X776035Y927112D02*
X776035Y927112D01*
X776101Y927114D01*
X776144Y927132D01*
X776191Y927140D01*
X776248Y927174D01*
X776308Y927199D01*
X776343Y927230D01*
X776384Y927255D01*
X776426Y927306D01*
X776474Y927350D01*
X776496Y927392D01*
X776525Y927429D01*
X776546Y927491D01*
X776577Y927550D01*
X776585Y927604D01*
X776597Y927641D01*
X776596Y927681D01*
X776604Y927735D01*
X776604Y931545D01*
X776593Y931610D01*
X776591Y931676D01*
X776573Y931719D01*
X776565Y931766D01*
X776531Y931823D01*
X776506Y931883D01*
X776475Y931918D01*
X776450Y931959D01*
X776399Y932001D01*
X776355Y932049D01*
X776313Y932071D01*
X776276Y932100D01*
X776214Y932121D01*
X776155Y932152D01*
X776101Y932160D01*
X776064Y932172D01*
X776024Y932171D01*
X775970Y932179D01*
X773430Y932179D01*
X773365Y932168D01*
X773299Y932166D01*
X773256Y932148D01*
X773209Y932140D01*
X773152Y932106D01*
X773092Y932081D01*
X773057Y932050D01*
X773016Y932025D01*
X772975Y931974D01*
X772926Y931930D01*
X772904Y931888D01*
X772875Y931851D01*
X772854Y931789D01*
X772823Y931730D01*
X772815Y931676D01*
X772803Y931639D01*
X772803Y931635D01*
X772803Y931634D01*
X772804Y931599D01*
X772796Y931545D01*
X772796Y927735D01*
X772807Y927670D01*
X772809Y927604D01*
X772827Y927561D01*
X772835Y927514D01*
X772869Y927457D01*
X772894Y927397D01*
X772925Y927362D01*
X772950Y927321D01*
X773001Y927280D01*
X773045Y927231D01*
X773087Y927209D01*
X773124Y927180D01*
X773186Y927159D01*
X773245Y927128D01*
X773299Y927120D01*
X773336Y927108D01*
X773376Y927109D01*
X773430Y927101D01*
X775970Y927101D01*
X776035Y927112D01*
G37*
G36*
X308675Y927112D02*
X308675Y927112D01*
X308741Y927114D01*
X308784Y927132D01*
X308831Y927140D01*
X308888Y927174D01*
X308948Y927199D01*
X308983Y927230D01*
X309024Y927255D01*
X309066Y927306D01*
X309114Y927350D01*
X309136Y927392D01*
X309165Y927429D01*
X309186Y927491D01*
X309217Y927550D01*
X309225Y927604D01*
X309237Y927641D01*
X309236Y927681D01*
X309244Y927735D01*
X309244Y931545D01*
X309233Y931610D01*
X309231Y931676D01*
X309213Y931719D01*
X309205Y931766D01*
X309171Y931823D01*
X309146Y931883D01*
X309115Y931918D01*
X309090Y931959D01*
X309039Y932001D01*
X308995Y932049D01*
X308953Y932071D01*
X308916Y932100D01*
X308854Y932121D01*
X308795Y932152D01*
X308741Y932160D01*
X308704Y932172D01*
X308664Y932171D01*
X308610Y932179D01*
X306070Y932179D01*
X306005Y932168D01*
X305939Y932166D01*
X305896Y932148D01*
X305849Y932140D01*
X305792Y932106D01*
X305732Y932081D01*
X305697Y932050D01*
X305656Y932025D01*
X305615Y931974D01*
X305566Y931930D01*
X305544Y931888D01*
X305515Y931851D01*
X305494Y931789D01*
X305463Y931730D01*
X305455Y931676D01*
X305443Y931639D01*
X305443Y931635D01*
X305443Y931634D01*
X305444Y931599D01*
X305436Y931545D01*
X305436Y927735D01*
X305447Y927670D01*
X305449Y927604D01*
X305467Y927561D01*
X305475Y927514D01*
X305509Y927457D01*
X305534Y927397D01*
X305565Y927362D01*
X305590Y927321D01*
X305641Y927280D01*
X305685Y927231D01*
X305727Y927209D01*
X305764Y927180D01*
X305826Y927159D01*
X305885Y927128D01*
X305939Y927120D01*
X305976Y927108D01*
X306016Y927109D01*
X306070Y927101D01*
X308610Y927101D01*
X308675Y927112D01*
G37*
G36*
X650305Y927112D02*
X650305Y927112D01*
X650371Y927114D01*
X650414Y927132D01*
X650461Y927140D01*
X650518Y927174D01*
X650578Y927199D01*
X650613Y927230D01*
X650654Y927255D01*
X650696Y927306D01*
X650744Y927350D01*
X650766Y927392D01*
X650795Y927429D01*
X650816Y927491D01*
X650847Y927550D01*
X650855Y927604D01*
X650867Y927641D01*
X650866Y927681D01*
X650874Y927735D01*
X650874Y931545D01*
X650863Y931610D01*
X650861Y931676D01*
X650843Y931719D01*
X650835Y931766D01*
X650801Y931823D01*
X650776Y931883D01*
X650745Y931918D01*
X650720Y931959D01*
X650669Y932001D01*
X650625Y932049D01*
X650583Y932071D01*
X650546Y932100D01*
X650484Y932121D01*
X650425Y932152D01*
X650371Y932160D01*
X650334Y932172D01*
X650294Y932171D01*
X650240Y932179D01*
X647700Y932179D01*
X647635Y932168D01*
X647569Y932166D01*
X647526Y932148D01*
X647479Y932140D01*
X647422Y932106D01*
X647362Y932081D01*
X647327Y932050D01*
X647286Y932025D01*
X647245Y931974D01*
X647196Y931930D01*
X647174Y931888D01*
X647145Y931851D01*
X647124Y931789D01*
X647093Y931730D01*
X647085Y931676D01*
X647073Y931639D01*
X647073Y931635D01*
X647073Y931634D01*
X647074Y931599D01*
X647066Y931545D01*
X647066Y927735D01*
X647077Y927670D01*
X647079Y927604D01*
X647097Y927561D01*
X647105Y927514D01*
X647139Y927457D01*
X647164Y927397D01*
X647195Y927362D01*
X647220Y927321D01*
X647271Y927280D01*
X647315Y927231D01*
X647357Y927209D01*
X647394Y927180D01*
X647456Y927159D01*
X647515Y927128D01*
X647569Y927120D01*
X647606Y927108D01*
X647646Y927109D01*
X647700Y927101D01*
X650240Y927101D01*
X650305Y927112D01*
G37*
G36*
X182945Y927112D02*
X182945Y927112D01*
X183011Y927114D01*
X183054Y927132D01*
X183101Y927140D01*
X183158Y927174D01*
X183218Y927199D01*
X183253Y927230D01*
X183294Y927255D01*
X183336Y927306D01*
X183384Y927350D01*
X183406Y927392D01*
X183435Y927429D01*
X183456Y927491D01*
X183487Y927550D01*
X183495Y927604D01*
X183507Y927641D01*
X183506Y927681D01*
X183514Y927735D01*
X183514Y931545D01*
X183503Y931610D01*
X183501Y931676D01*
X183483Y931719D01*
X183475Y931766D01*
X183441Y931823D01*
X183416Y931883D01*
X183385Y931918D01*
X183360Y931959D01*
X183309Y932001D01*
X183265Y932049D01*
X183223Y932071D01*
X183186Y932100D01*
X183124Y932121D01*
X183065Y932152D01*
X183011Y932160D01*
X182974Y932172D01*
X182934Y932171D01*
X182880Y932179D01*
X180340Y932179D01*
X180275Y932168D01*
X180209Y932166D01*
X180166Y932148D01*
X180119Y932140D01*
X180062Y932106D01*
X180002Y932081D01*
X179967Y932050D01*
X179926Y932025D01*
X179885Y931974D01*
X179836Y931930D01*
X179814Y931888D01*
X179785Y931851D01*
X179764Y931789D01*
X179733Y931730D01*
X179725Y931676D01*
X179713Y931639D01*
X179713Y931635D01*
X179713Y931634D01*
X179714Y931599D01*
X179706Y931545D01*
X179706Y927735D01*
X179717Y927670D01*
X179719Y927604D01*
X179737Y927561D01*
X179745Y927514D01*
X179779Y927457D01*
X179804Y927397D01*
X179835Y927362D01*
X179860Y927321D01*
X179911Y927280D01*
X179955Y927231D01*
X179997Y927209D01*
X180034Y927180D01*
X180096Y927159D01*
X180155Y927128D01*
X180209Y927120D01*
X180246Y927108D01*
X180286Y927109D01*
X180340Y927101D01*
X182880Y927101D01*
X182945Y927112D01*
G37*
G36*
X883985Y927112D02*
X883985Y927112D01*
X884051Y927114D01*
X884094Y927132D01*
X884141Y927140D01*
X884198Y927174D01*
X884258Y927199D01*
X884293Y927230D01*
X884334Y927255D01*
X884376Y927306D01*
X884424Y927350D01*
X884446Y927392D01*
X884475Y927429D01*
X884496Y927491D01*
X884527Y927550D01*
X884535Y927604D01*
X884547Y927641D01*
X884546Y927681D01*
X884554Y927735D01*
X884554Y931545D01*
X884543Y931610D01*
X884541Y931676D01*
X884523Y931719D01*
X884515Y931766D01*
X884481Y931823D01*
X884456Y931883D01*
X884425Y931918D01*
X884400Y931959D01*
X884349Y932001D01*
X884305Y932049D01*
X884263Y932071D01*
X884226Y932100D01*
X884164Y932121D01*
X884105Y932152D01*
X884051Y932160D01*
X884014Y932172D01*
X883974Y932171D01*
X883920Y932179D01*
X881380Y932179D01*
X881315Y932168D01*
X881249Y932166D01*
X881206Y932148D01*
X881159Y932140D01*
X881102Y932106D01*
X881042Y932081D01*
X881007Y932050D01*
X880966Y932025D01*
X880925Y931974D01*
X880876Y931930D01*
X880854Y931888D01*
X880825Y931851D01*
X880804Y931789D01*
X880773Y931730D01*
X880765Y931676D01*
X880753Y931639D01*
X880753Y931635D01*
X880753Y931634D01*
X880754Y931599D01*
X880746Y931545D01*
X880746Y927735D01*
X880757Y927670D01*
X880759Y927604D01*
X880777Y927561D01*
X880785Y927514D01*
X880819Y927457D01*
X880844Y927397D01*
X880875Y927362D01*
X880900Y927321D01*
X880951Y927280D01*
X880995Y927231D01*
X881037Y927209D01*
X881074Y927180D01*
X881136Y927159D01*
X881195Y927128D01*
X881249Y927120D01*
X881286Y927108D01*
X881326Y927109D01*
X881380Y927101D01*
X883920Y927101D01*
X883985Y927112D01*
G37*
G36*
X416625Y927112D02*
X416625Y927112D01*
X416691Y927114D01*
X416734Y927132D01*
X416781Y927140D01*
X416838Y927174D01*
X416898Y927199D01*
X416933Y927230D01*
X416974Y927255D01*
X417016Y927306D01*
X417064Y927350D01*
X417086Y927392D01*
X417115Y927429D01*
X417136Y927491D01*
X417167Y927550D01*
X417175Y927604D01*
X417187Y927641D01*
X417186Y927681D01*
X417194Y927735D01*
X417194Y931545D01*
X417183Y931610D01*
X417181Y931676D01*
X417163Y931719D01*
X417155Y931766D01*
X417121Y931823D01*
X417096Y931883D01*
X417065Y931918D01*
X417040Y931959D01*
X416989Y932001D01*
X416945Y932049D01*
X416903Y932071D01*
X416866Y932100D01*
X416804Y932121D01*
X416745Y932152D01*
X416691Y932160D01*
X416654Y932172D01*
X416614Y932171D01*
X416560Y932179D01*
X414020Y932179D01*
X413955Y932168D01*
X413889Y932166D01*
X413846Y932148D01*
X413799Y932140D01*
X413742Y932106D01*
X413682Y932081D01*
X413647Y932050D01*
X413606Y932025D01*
X413565Y931974D01*
X413516Y931930D01*
X413494Y931888D01*
X413465Y931851D01*
X413444Y931789D01*
X413413Y931730D01*
X413405Y931676D01*
X413393Y931639D01*
X413393Y931635D01*
X413393Y931634D01*
X413394Y931599D01*
X413386Y931545D01*
X413386Y927735D01*
X413397Y927670D01*
X413399Y927604D01*
X413417Y927561D01*
X413425Y927514D01*
X413459Y927457D01*
X413484Y927397D01*
X413515Y927362D01*
X413540Y927321D01*
X413591Y927280D01*
X413635Y927231D01*
X413677Y927209D01*
X413714Y927180D01*
X413776Y927159D01*
X413835Y927128D01*
X413889Y927120D01*
X413926Y927108D01*
X413966Y927109D01*
X414020Y927101D01*
X416560Y927101D01*
X416625Y927112D01*
G37*
G36*
X565215Y927112D02*
X565215Y927112D01*
X565281Y927114D01*
X565324Y927132D01*
X565371Y927140D01*
X565428Y927174D01*
X565488Y927199D01*
X565523Y927230D01*
X565564Y927255D01*
X565606Y927306D01*
X565654Y927350D01*
X565676Y927392D01*
X565705Y927429D01*
X565726Y927491D01*
X565757Y927550D01*
X565765Y927604D01*
X565777Y927641D01*
X565776Y927681D01*
X565784Y927735D01*
X565784Y931545D01*
X565773Y931610D01*
X565771Y931676D01*
X565753Y931719D01*
X565745Y931766D01*
X565711Y931823D01*
X565686Y931883D01*
X565655Y931918D01*
X565630Y931959D01*
X565579Y932001D01*
X565535Y932049D01*
X565493Y932071D01*
X565456Y932100D01*
X565394Y932121D01*
X565335Y932152D01*
X565281Y932160D01*
X565244Y932172D01*
X565204Y932171D01*
X565150Y932179D01*
X562610Y932179D01*
X562545Y932168D01*
X562479Y932166D01*
X562436Y932148D01*
X562389Y932140D01*
X562332Y932106D01*
X562272Y932081D01*
X562237Y932050D01*
X562196Y932025D01*
X562155Y931974D01*
X562106Y931930D01*
X562084Y931888D01*
X562055Y931851D01*
X562034Y931789D01*
X562003Y931730D01*
X561995Y931676D01*
X561983Y931639D01*
X561983Y931635D01*
X561983Y931634D01*
X561984Y931599D01*
X561976Y931545D01*
X561976Y927735D01*
X561987Y927670D01*
X561989Y927604D01*
X562007Y927561D01*
X562015Y927514D01*
X562049Y927457D01*
X562074Y927397D01*
X562105Y927362D01*
X562130Y927321D01*
X562181Y927280D01*
X562225Y927231D01*
X562267Y927209D01*
X562304Y927180D01*
X562366Y927159D01*
X562425Y927128D01*
X562479Y927120D01*
X562516Y927108D01*
X562556Y927109D01*
X562610Y927101D01*
X565150Y927101D01*
X565215Y927112D01*
G37*
G36*
X542355Y927112D02*
X542355Y927112D01*
X542421Y927114D01*
X542464Y927132D01*
X542511Y927140D01*
X542568Y927174D01*
X542628Y927199D01*
X542663Y927230D01*
X542704Y927255D01*
X542746Y927306D01*
X542794Y927350D01*
X542816Y927392D01*
X542845Y927429D01*
X542866Y927491D01*
X542897Y927550D01*
X542905Y927604D01*
X542917Y927641D01*
X542916Y927681D01*
X542924Y927735D01*
X542924Y931545D01*
X542913Y931610D01*
X542911Y931676D01*
X542893Y931719D01*
X542885Y931766D01*
X542851Y931823D01*
X542826Y931883D01*
X542795Y931918D01*
X542770Y931959D01*
X542719Y932001D01*
X542675Y932049D01*
X542633Y932071D01*
X542596Y932100D01*
X542534Y932121D01*
X542475Y932152D01*
X542421Y932160D01*
X542384Y932172D01*
X542344Y932171D01*
X542290Y932179D01*
X539750Y932179D01*
X539685Y932168D01*
X539619Y932166D01*
X539576Y932148D01*
X539529Y932140D01*
X539472Y932106D01*
X539412Y932081D01*
X539377Y932050D01*
X539336Y932025D01*
X539295Y931974D01*
X539246Y931930D01*
X539224Y931888D01*
X539195Y931851D01*
X539174Y931789D01*
X539143Y931730D01*
X539135Y931676D01*
X539123Y931639D01*
X539123Y931635D01*
X539123Y931634D01*
X539124Y931599D01*
X539116Y931545D01*
X539116Y927735D01*
X539127Y927670D01*
X539129Y927604D01*
X539147Y927561D01*
X539155Y927514D01*
X539189Y927457D01*
X539214Y927397D01*
X539245Y927362D01*
X539270Y927321D01*
X539321Y927280D01*
X539365Y927231D01*
X539407Y927209D01*
X539444Y927180D01*
X539506Y927159D01*
X539565Y927128D01*
X539619Y927120D01*
X539656Y927108D01*
X539696Y927109D01*
X539750Y927101D01*
X542290Y927101D01*
X542355Y927112D01*
G37*
G36*
X97855Y927112D02*
X97855Y927112D01*
X97921Y927114D01*
X97964Y927132D01*
X98011Y927140D01*
X98068Y927174D01*
X98128Y927199D01*
X98163Y927230D01*
X98204Y927255D01*
X98246Y927306D01*
X98294Y927350D01*
X98316Y927392D01*
X98345Y927429D01*
X98366Y927491D01*
X98397Y927550D01*
X98405Y927604D01*
X98417Y927641D01*
X98416Y927681D01*
X98424Y927735D01*
X98424Y931545D01*
X98413Y931610D01*
X98411Y931676D01*
X98393Y931719D01*
X98385Y931766D01*
X98351Y931823D01*
X98326Y931883D01*
X98295Y931918D01*
X98270Y931959D01*
X98219Y932001D01*
X98175Y932049D01*
X98133Y932071D01*
X98096Y932100D01*
X98034Y932121D01*
X97975Y932152D01*
X97921Y932160D01*
X97884Y932172D01*
X97844Y932171D01*
X97790Y932179D01*
X95250Y932179D01*
X95185Y932168D01*
X95119Y932166D01*
X95076Y932148D01*
X95029Y932140D01*
X94972Y932106D01*
X94912Y932081D01*
X94877Y932050D01*
X94836Y932025D01*
X94795Y931974D01*
X94746Y931930D01*
X94724Y931888D01*
X94695Y931851D01*
X94674Y931789D01*
X94643Y931730D01*
X94635Y931676D01*
X94623Y931639D01*
X94623Y931635D01*
X94623Y931634D01*
X94624Y931599D01*
X94616Y931545D01*
X94616Y927735D01*
X94627Y927670D01*
X94629Y927604D01*
X94647Y927561D01*
X94655Y927514D01*
X94689Y927457D01*
X94714Y927397D01*
X94745Y927362D01*
X94770Y927321D01*
X94821Y927280D01*
X94865Y927231D01*
X94907Y927209D01*
X94944Y927180D01*
X95006Y927159D01*
X95065Y927128D01*
X95119Y927120D01*
X95156Y927108D01*
X95196Y927109D01*
X95250Y927101D01*
X97790Y927101D01*
X97855Y927112D01*
G37*
G36*
X798895Y927112D02*
X798895Y927112D01*
X798961Y927114D01*
X799004Y927132D01*
X799051Y927140D01*
X799108Y927174D01*
X799168Y927199D01*
X799203Y927230D01*
X799244Y927255D01*
X799286Y927306D01*
X799334Y927350D01*
X799356Y927392D01*
X799385Y927429D01*
X799406Y927491D01*
X799437Y927550D01*
X799445Y927604D01*
X799457Y927641D01*
X799456Y927681D01*
X799464Y927735D01*
X799464Y931545D01*
X799453Y931610D01*
X799451Y931676D01*
X799433Y931719D01*
X799425Y931766D01*
X799391Y931823D01*
X799366Y931883D01*
X799335Y931918D01*
X799310Y931959D01*
X799259Y932001D01*
X799215Y932049D01*
X799173Y932071D01*
X799136Y932100D01*
X799074Y932121D01*
X799015Y932152D01*
X798961Y932160D01*
X798924Y932172D01*
X798884Y932171D01*
X798830Y932179D01*
X796290Y932179D01*
X796225Y932168D01*
X796159Y932166D01*
X796116Y932148D01*
X796069Y932140D01*
X796012Y932106D01*
X795952Y932081D01*
X795917Y932050D01*
X795876Y932025D01*
X795835Y931974D01*
X795786Y931930D01*
X795764Y931888D01*
X795735Y931851D01*
X795714Y931789D01*
X795683Y931730D01*
X795675Y931676D01*
X795663Y931639D01*
X795663Y931635D01*
X795663Y931634D01*
X795664Y931599D01*
X795656Y931545D01*
X795656Y927735D01*
X795667Y927670D01*
X795669Y927604D01*
X795687Y927561D01*
X795695Y927514D01*
X795729Y927457D01*
X795754Y927397D01*
X795785Y927362D01*
X795810Y927321D01*
X795861Y927280D01*
X795905Y927231D01*
X795947Y927209D01*
X795984Y927180D01*
X796046Y927159D01*
X796105Y927128D01*
X796159Y927120D01*
X796196Y927108D01*
X796236Y927109D01*
X796290Y927101D01*
X798830Y927101D01*
X798895Y927112D01*
G37*
G36*
X74995Y927112D02*
X74995Y927112D01*
X75061Y927114D01*
X75104Y927132D01*
X75151Y927140D01*
X75208Y927174D01*
X75268Y927199D01*
X75303Y927230D01*
X75344Y927255D01*
X75386Y927306D01*
X75434Y927350D01*
X75456Y927392D01*
X75485Y927429D01*
X75506Y927491D01*
X75537Y927550D01*
X75545Y927604D01*
X75557Y927641D01*
X75556Y927681D01*
X75564Y927735D01*
X75564Y931545D01*
X75553Y931610D01*
X75551Y931676D01*
X75533Y931719D01*
X75525Y931766D01*
X75491Y931823D01*
X75466Y931883D01*
X75435Y931918D01*
X75410Y931959D01*
X75359Y932001D01*
X75315Y932049D01*
X75273Y932071D01*
X75236Y932100D01*
X75174Y932121D01*
X75115Y932152D01*
X75061Y932160D01*
X75024Y932172D01*
X74984Y932171D01*
X74930Y932179D01*
X72390Y932179D01*
X72325Y932168D01*
X72259Y932166D01*
X72216Y932148D01*
X72169Y932140D01*
X72112Y932106D01*
X72052Y932081D01*
X72017Y932050D01*
X71976Y932025D01*
X71935Y931974D01*
X71886Y931930D01*
X71864Y931888D01*
X71835Y931851D01*
X71814Y931789D01*
X71783Y931730D01*
X71775Y931676D01*
X71763Y931639D01*
X71763Y931635D01*
X71763Y931634D01*
X71764Y931599D01*
X71756Y931545D01*
X71756Y927735D01*
X71767Y927670D01*
X71769Y927604D01*
X71787Y927561D01*
X71795Y927514D01*
X71829Y927457D01*
X71854Y927397D01*
X71885Y927362D01*
X71910Y927321D01*
X71961Y927280D01*
X72005Y927231D01*
X72047Y927209D01*
X72084Y927180D01*
X72146Y927159D01*
X72205Y927128D01*
X72259Y927120D01*
X72296Y927108D01*
X72336Y927109D01*
X72390Y927101D01*
X74930Y927101D01*
X74995Y927112D01*
G37*
G36*
X331535Y927112D02*
X331535Y927112D01*
X331601Y927114D01*
X331644Y927132D01*
X331691Y927140D01*
X331748Y927174D01*
X331808Y927199D01*
X331843Y927230D01*
X331884Y927255D01*
X331926Y927306D01*
X331974Y927350D01*
X331996Y927392D01*
X332025Y927429D01*
X332046Y927491D01*
X332077Y927550D01*
X332085Y927604D01*
X332097Y927641D01*
X332096Y927681D01*
X332104Y927735D01*
X332104Y931545D01*
X332093Y931610D01*
X332091Y931676D01*
X332073Y931719D01*
X332065Y931766D01*
X332031Y931823D01*
X332006Y931883D01*
X331975Y931918D01*
X331950Y931959D01*
X331899Y932001D01*
X331855Y932049D01*
X331813Y932071D01*
X331776Y932100D01*
X331714Y932121D01*
X331655Y932152D01*
X331601Y932160D01*
X331564Y932172D01*
X331524Y932171D01*
X331470Y932179D01*
X328930Y932179D01*
X328865Y932168D01*
X328799Y932166D01*
X328756Y932148D01*
X328709Y932140D01*
X328652Y932106D01*
X328592Y932081D01*
X328557Y932050D01*
X328516Y932025D01*
X328475Y931974D01*
X328426Y931930D01*
X328404Y931888D01*
X328375Y931851D01*
X328354Y931789D01*
X328323Y931730D01*
X328315Y931676D01*
X328303Y931639D01*
X328303Y931635D01*
X328303Y931634D01*
X328304Y931599D01*
X328296Y931545D01*
X328296Y927735D01*
X328307Y927670D01*
X328309Y927604D01*
X328327Y927561D01*
X328335Y927514D01*
X328369Y927457D01*
X328394Y927397D01*
X328425Y927362D01*
X328450Y927321D01*
X328501Y927280D01*
X328545Y927231D01*
X328587Y927209D01*
X328624Y927180D01*
X328686Y927159D01*
X328745Y927128D01*
X328799Y927120D01*
X328836Y927108D01*
X328876Y927109D01*
X328930Y927101D01*
X331470Y927101D01*
X331535Y927112D01*
G37*
G36*
X650305Y414032D02*
X650305Y414032D01*
X650371Y414034D01*
X650414Y414052D01*
X650461Y414060D01*
X650518Y414094D01*
X650578Y414119D01*
X650613Y414150D01*
X650654Y414175D01*
X650696Y414226D01*
X650744Y414270D01*
X650766Y414312D01*
X650795Y414349D01*
X650816Y414411D01*
X650847Y414470D01*
X650855Y414524D01*
X650867Y414561D01*
X650866Y414601D01*
X650874Y414655D01*
X650874Y418465D01*
X650863Y418530D01*
X650861Y418596D01*
X650843Y418639D01*
X650835Y418686D01*
X650801Y418743D01*
X650776Y418803D01*
X650745Y418838D01*
X650720Y418879D01*
X650669Y418921D01*
X650625Y418969D01*
X650583Y418991D01*
X650546Y419020D01*
X650484Y419041D01*
X650425Y419072D01*
X650371Y419080D01*
X650334Y419092D01*
X650294Y419091D01*
X650240Y419099D01*
X647700Y419099D01*
X647635Y419088D01*
X647569Y419086D01*
X647526Y419068D01*
X647479Y419060D01*
X647422Y419026D01*
X647362Y419001D01*
X647327Y418970D01*
X647286Y418945D01*
X647245Y418894D01*
X647196Y418850D01*
X647174Y418808D01*
X647145Y418771D01*
X647124Y418709D01*
X647093Y418650D01*
X647085Y418596D01*
X647073Y418559D01*
X647073Y418555D01*
X647073Y418554D01*
X647074Y418519D01*
X647066Y418465D01*
X647066Y414655D01*
X647077Y414590D01*
X647079Y414524D01*
X647097Y414481D01*
X647105Y414434D01*
X647139Y414377D01*
X647164Y414317D01*
X647195Y414282D01*
X647220Y414241D01*
X647271Y414200D01*
X647315Y414151D01*
X647357Y414129D01*
X647394Y414100D01*
X647456Y414079D01*
X647515Y414048D01*
X647569Y414040D01*
X647606Y414028D01*
X647646Y414029D01*
X647700Y414021D01*
X650240Y414021D01*
X650305Y414032D01*
G37*
G36*
X565215Y414032D02*
X565215Y414032D01*
X565281Y414034D01*
X565324Y414052D01*
X565371Y414060D01*
X565428Y414094D01*
X565488Y414119D01*
X565523Y414150D01*
X565564Y414175D01*
X565606Y414226D01*
X565654Y414270D01*
X565676Y414312D01*
X565705Y414349D01*
X565726Y414411D01*
X565757Y414470D01*
X565765Y414524D01*
X565777Y414561D01*
X565776Y414601D01*
X565784Y414655D01*
X565784Y418465D01*
X565773Y418530D01*
X565771Y418596D01*
X565753Y418639D01*
X565745Y418686D01*
X565711Y418743D01*
X565686Y418803D01*
X565655Y418838D01*
X565630Y418879D01*
X565579Y418921D01*
X565535Y418969D01*
X565493Y418991D01*
X565456Y419020D01*
X565394Y419041D01*
X565335Y419072D01*
X565281Y419080D01*
X565244Y419092D01*
X565204Y419091D01*
X565150Y419099D01*
X562610Y419099D01*
X562545Y419088D01*
X562479Y419086D01*
X562436Y419068D01*
X562389Y419060D01*
X562332Y419026D01*
X562272Y419001D01*
X562237Y418970D01*
X562196Y418945D01*
X562155Y418894D01*
X562106Y418850D01*
X562084Y418808D01*
X562055Y418771D01*
X562034Y418709D01*
X562003Y418650D01*
X561995Y418596D01*
X561983Y418559D01*
X561983Y418555D01*
X561983Y418554D01*
X561984Y418519D01*
X561976Y418465D01*
X561976Y414655D01*
X561987Y414590D01*
X561989Y414524D01*
X562007Y414481D01*
X562015Y414434D01*
X562049Y414377D01*
X562074Y414317D01*
X562105Y414282D01*
X562130Y414241D01*
X562181Y414200D01*
X562225Y414151D01*
X562267Y414129D01*
X562304Y414100D01*
X562366Y414079D01*
X562425Y414048D01*
X562479Y414040D01*
X562516Y414028D01*
X562556Y414029D01*
X562610Y414021D01*
X565150Y414021D01*
X565215Y414032D01*
G37*
G36*
X542355Y414032D02*
X542355Y414032D01*
X542421Y414034D01*
X542464Y414052D01*
X542511Y414060D01*
X542568Y414094D01*
X542628Y414119D01*
X542663Y414150D01*
X542704Y414175D01*
X542746Y414226D01*
X542794Y414270D01*
X542816Y414312D01*
X542845Y414349D01*
X542866Y414411D01*
X542897Y414470D01*
X542905Y414524D01*
X542917Y414561D01*
X542916Y414601D01*
X542924Y414655D01*
X542924Y418465D01*
X542913Y418530D01*
X542911Y418596D01*
X542893Y418639D01*
X542885Y418686D01*
X542851Y418743D01*
X542826Y418803D01*
X542795Y418838D01*
X542770Y418879D01*
X542719Y418921D01*
X542675Y418969D01*
X542633Y418991D01*
X542596Y419020D01*
X542534Y419041D01*
X542475Y419072D01*
X542421Y419080D01*
X542384Y419092D01*
X542344Y419091D01*
X542290Y419099D01*
X539750Y419099D01*
X539685Y419088D01*
X539619Y419086D01*
X539576Y419068D01*
X539529Y419060D01*
X539472Y419026D01*
X539412Y419001D01*
X539377Y418970D01*
X539336Y418945D01*
X539295Y418894D01*
X539246Y418850D01*
X539224Y418808D01*
X539195Y418771D01*
X539174Y418709D01*
X539143Y418650D01*
X539135Y418596D01*
X539123Y418559D01*
X539123Y418555D01*
X539123Y418554D01*
X539124Y418519D01*
X539116Y418465D01*
X539116Y414655D01*
X539127Y414590D01*
X539129Y414524D01*
X539147Y414481D01*
X539155Y414434D01*
X539189Y414377D01*
X539214Y414317D01*
X539245Y414282D01*
X539270Y414241D01*
X539321Y414200D01*
X539365Y414151D01*
X539407Y414129D01*
X539444Y414100D01*
X539506Y414079D01*
X539565Y414048D01*
X539619Y414040D01*
X539656Y414028D01*
X539696Y414029D01*
X539750Y414021D01*
X542290Y414021D01*
X542355Y414032D01*
G37*
G36*
X416625Y414032D02*
X416625Y414032D01*
X416691Y414034D01*
X416734Y414052D01*
X416781Y414060D01*
X416838Y414094D01*
X416898Y414119D01*
X416933Y414150D01*
X416974Y414175D01*
X417016Y414226D01*
X417064Y414270D01*
X417086Y414312D01*
X417115Y414349D01*
X417136Y414411D01*
X417167Y414470D01*
X417175Y414524D01*
X417187Y414561D01*
X417186Y414601D01*
X417194Y414655D01*
X417194Y418465D01*
X417183Y418530D01*
X417181Y418596D01*
X417163Y418639D01*
X417155Y418686D01*
X417121Y418743D01*
X417096Y418803D01*
X417065Y418838D01*
X417040Y418879D01*
X416989Y418921D01*
X416945Y418969D01*
X416903Y418991D01*
X416866Y419020D01*
X416804Y419041D01*
X416745Y419072D01*
X416691Y419080D01*
X416654Y419092D01*
X416614Y419091D01*
X416560Y419099D01*
X414020Y419099D01*
X413955Y419088D01*
X413889Y419086D01*
X413846Y419068D01*
X413799Y419060D01*
X413742Y419026D01*
X413682Y419001D01*
X413647Y418970D01*
X413606Y418945D01*
X413565Y418894D01*
X413516Y418850D01*
X413494Y418808D01*
X413465Y418771D01*
X413444Y418709D01*
X413413Y418650D01*
X413405Y418596D01*
X413393Y418559D01*
X413393Y418555D01*
X413393Y418554D01*
X413394Y418519D01*
X413386Y418465D01*
X413386Y414655D01*
X413397Y414590D01*
X413399Y414524D01*
X413417Y414481D01*
X413425Y414434D01*
X413459Y414377D01*
X413484Y414317D01*
X413515Y414282D01*
X413540Y414241D01*
X413591Y414200D01*
X413635Y414151D01*
X413677Y414129D01*
X413714Y414100D01*
X413776Y414079D01*
X413835Y414048D01*
X413889Y414040D01*
X413926Y414028D01*
X413966Y414029D01*
X414020Y414021D01*
X416560Y414021D01*
X416625Y414032D01*
G37*
G36*
X776035Y414032D02*
X776035Y414032D01*
X776101Y414034D01*
X776144Y414052D01*
X776191Y414060D01*
X776248Y414094D01*
X776308Y414119D01*
X776343Y414150D01*
X776384Y414175D01*
X776426Y414226D01*
X776474Y414270D01*
X776496Y414312D01*
X776525Y414349D01*
X776546Y414411D01*
X776577Y414470D01*
X776585Y414524D01*
X776597Y414561D01*
X776596Y414601D01*
X776604Y414655D01*
X776604Y418465D01*
X776593Y418530D01*
X776591Y418596D01*
X776573Y418639D01*
X776565Y418686D01*
X776531Y418743D01*
X776506Y418803D01*
X776475Y418838D01*
X776450Y418879D01*
X776399Y418921D01*
X776355Y418969D01*
X776313Y418991D01*
X776276Y419020D01*
X776214Y419041D01*
X776155Y419072D01*
X776101Y419080D01*
X776064Y419092D01*
X776024Y419091D01*
X775970Y419099D01*
X773430Y419099D01*
X773365Y419088D01*
X773299Y419086D01*
X773256Y419068D01*
X773209Y419060D01*
X773152Y419026D01*
X773092Y419001D01*
X773057Y418970D01*
X773016Y418945D01*
X772975Y418894D01*
X772926Y418850D01*
X772904Y418808D01*
X772875Y418771D01*
X772854Y418709D01*
X772823Y418650D01*
X772815Y418596D01*
X772803Y418559D01*
X772803Y418555D01*
X772803Y418554D01*
X772804Y418519D01*
X772796Y418465D01*
X772796Y414655D01*
X772807Y414590D01*
X772809Y414524D01*
X772827Y414481D01*
X772835Y414434D01*
X772869Y414377D01*
X772894Y414317D01*
X772925Y414282D01*
X772950Y414241D01*
X773001Y414200D01*
X773045Y414151D01*
X773087Y414129D01*
X773124Y414100D01*
X773186Y414079D01*
X773245Y414048D01*
X773299Y414040D01*
X773336Y414028D01*
X773376Y414029D01*
X773430Y414021D01*
X775970Y414021D01*
X776035Y414032D01*
G37*
G36*
X97855Y414032D02*
X97855Y414032D01*
X97921Y414034D01*
X97964Y414052D01*
X98011Y414060D01*
X98068Y414094D01*
X98128Y414119D01*
X98163Y414150D01*
X98204Y414175D01*
X98246Y414226D01*
X98294Y414270D01*
X98316Y414312D01*
X98345Y414349D01*
X98366Y414411D01*
X98397Y414470D01*
X98405Y414524D01*
X98417Y414561D01*
X98416Y414601D01*
X98424Y414655D01*
X98424Y418465D01*
X98413Y418530D01*
X98411Y418596D01*
X98393Y418639D01*
X98385Y418686D01*
X98351Y418743D01*
X98326Y418803D01*
X98295Y418838D01*
X98270Y418879D01*
X98219Y418921D01*
X98175Y418969D01*
X98133Y418991D01*
X98096Y419020D01*
X98034Y419041D01*
X97975Y419072D01*
X97921Y419080D01*
X97884Y419092D01*
X97844Y419091D01*
X97790Y419099D01*
X95250Y419099D01*
X95185Y419088D01*
X95119Y419086D01*
X95076Y419068D01*
X95029Y419060D01*
X94972Y419026D01*
X94912Y419001D01*
X94877Y418970D01*
X94836Y418945D01*
X94795Y418894D01*
X94746Y418850D01*
X94724Y418808D01*
X94695Y418771D01*
X94674Y418709D01*
X94643Y418650D01*
X94635Y418596D01*
X94623Y418559D01*
X94623Y418555D01*
X94623Y418554D01*
X94624Y418519D01*
X94616Y418465D01*
X94616Y414655D01*
X94627Y414590D01*
X94629Y414524D01*
X94647Y414481D01*
X94655Y414434D01*
X94689Y414377D01*
X94714Y414317D01*
X94745Y414282D01*
X94770Y414241D01*
X94821Y414200D01*
X94865Y414151D01*
X94907Y414129D01*
X94944Y414100D01*
X95006Y414079D01*
X95065Y414048D01*
X95119Y414040D01*
X95156Y414028D01*
X95196Y414029D01*
X95250Y414021D01*
X97790Y414021D01*
X97855Y414032D01*
G37*
G36*
X74995Y414032D02*
X74995Y414032D01*
X75061Y414034D01*
X75104Y414052D01*
X75151Y414060D01*
X75208Y414094D01*
X75268Y414119D01*
X75303Y414150D01*
X75344Y414175D01*
X75386Y414226D01*
X75434Y414270D01*
X75456Y414312D01*
X75485Y414349D01*
X75506Y414411D01*
X75537Y414470D01*
X75545Y414524D01*
X75557Y414561D01*
X75556Y414601D01*
X75564Y414655D01*
X75564Y418465D01*
X75553Y418530D01*
X75551Y418596D01*
X75533Y418639D01*
X75525Y418686D01*
X75491Y418743D01*
X75466Y418803D01*
X75435Y418838D01*
X75410Y418879D01*
X75359Y418921D01*
X75315Y418969D01*
X75273Y418991D01*
X75236Y419020D01*
X75174Y419041D01*
X75115Y419072D01*
X75061Y419080D01*
X75024Y419092D01*
X74984Y419091D01*
X74930Y419099D01*
X72390Y419099D01*
X72325Y419088D01*
X72259Y419086D01*
X72216Y419068D01*
X72169Y419060D01*
X72112Y419026D01*
X72052Y419001D01*
X72017Y418970D01*
X71976Y418945D01*
X71935Y418894D01*
X71886Y418850D01*
X71864Y418808D01*
X71835Y418771D01*
X71814Y418709D01*
X71783Y418650D01*
X71775Y418596D01*
X71763Y418559D01*
X71763Y418555D01*
X71763Y418554D01*
X71764Y418519D01*
X71756Y418465D01*
X71756Y414655D01*
X71767Y414590D01*
X71769Y414524D01*
X71787Y414481D01*
X71795Y414434D01*
X71829Y414377D01*
X71854Y414317D01*
X71885Y414282D01*
X71910Y414241D01*
X71961Y414200D01*
X72005Y414151D01*
X72047Y414129D01*
X72084Y414100D01*
X72146Y414079D01*
X72205Y414048D01*
X72259Y414040D01*
X72296Y414028D01*
X72336Y414029D01*
X72390Y414021D01*
X74930Y414021D01*
X74995Y414032D01*
G37*
G36*
X331535Y414032D02*
X331535Y414032D01*
X331601Y414034D01*
X331644Y414052D01*
X331691Y414060D01*
X331748Y414094D01*
X331808Y414119D01*
X331843Y414150D01*
X331884Y414175D01*
X331926Y414226D01*
X331974Y414270D01*
X331996Y414312D01*
X332025Y414349D01*
X332046Y414411D01*
X332077Y414470D01*
X332085Y414524D01*
X332097Y414561D01*
X332096Y414601D01*
X332104Y414655D01*
X332104Y418465D01*
X332093Y418530D01*
X332091Y418596D01*
X332073Y418639D01*
X332065Y418686D01*
X332031Y418743D01*
X332006Y418803D01*
X331975Y418838D01*
X331950Y418879D01*
X331899Y418921D01*
X331855Y418969D01*
X331813Y418991D01*
X331776Y419020D01*
X331714Y419041D01*
X331655Y419072D01*
X331601Y419080D01*
X331564Y419092D01*
X331524Y419091D01*
X331470Y419099D01*
X328930Y419099D01*
X328865Y419088D01*
X328799Y419086D01*
X328756Y419068D01*
X328709Y419060D01*
X328652Y419026D01*
X328592Y419001D01*
X328557Y418970D01*
X328516Y418945D01*
X328475Y418894D01*
X328426Y418850D01*
X328404Y418808D01*
X328375Y418771D01*
X328354Y418709D01*
X328323Y418650D01*
X328315Y418596D01*
X328303Y418559D01*
X328303Y418555D01*
X328303Y418554D01*
X328304Y418519D01*
X328296Y418465D01*
X328296Y414655D01*
X328307Y414590D01*
X328309Y414524D01*
X328327Y414481D01*
X328335Y414434D01*
X328369Y414377D01*
X328394Y414317D01*
X328425Y414282D01*
X328450Y414241D01*
X328501Y414200D01*
X328545Y414151D01*
X328587Y414129D01*
X328624Y414100D01*
X328686Y414079D01*
X328745Y414048D01*
X328799Y414040D01*
X328836Y414028D01*
X328876Y414029D01*
X328930Y414021D01*
X331470Y414021D01*
X331535Y414032D01*
G37*
G36*
X798895Y414032D02*
X798895Y414032D01*
X798961Y414034D01*
X799004Y414052D01*
X799051Y414060D01*
X799108Y414094D01*
X799168Y414119D01*
X799203Y414150D01*
X799244Y414175D01*
X799286Y414226D01*
X799334Y414270D01*
X799356Y414312D01*
X799385Y414349D01*
X799406Y414411D01*
X799437Y414470D01*
X799445Y414524D01*
X799457Y414561D01*
X799456Y414601D01*
X799464Y414655D01*
X799464Y418465D01*
X799453Y418530D01*
X799451Y418596D01*
X799433Y418639D01*
X799425Y418686D01*
X799391Y418743D01*
X799366Y418803D01*
X799335Y418838D01*
X799310Y418879D01*
X799259Y418921D01*
X799215Y418969D01*
X799173Y418991D01*
X799136Y419020D01*
X799074Y419041D01*
X799015Y419072D01*
X798961Y419080D01*
X798924Y419092D01*
X798884Y419091D01*
X798830Y419099D01*
X796290Y419099D01*
X796225Y419088D01*
X796159Y419086D01*
X796116Y419068D01*
X796069Y419060D01*
X796012Y419026D01*
X795952Y419001D01*
X795917Y418970D01*
X795876Y418945D01*
X795835Y418894D01*
X795786Y418850D01*
X795764Y418808D01*
X795735Y418771D01*
X795714Y418709D01*
X795683Y418650D01*
X795675Y418596D01*
X795663Y418559D01*
X795663Y418555D01*
X795663Y418554D01*
X795664Y418519D01*
X795656Y418465D01*
X795656Y414655D01*
X795667Y414590D01*
X795669Y414524D01*
X795687Y414481D01*
X795695Y414434D01*
X795729Y414377D01*
X795754Y414317D01*
X795785Y414282D01*
X795810Y414241D01*
X795861Y414200D01*
X795905Y414151D01*
X795947Y414129D01*
X795984Y414100D01*
X796046Y414079D01*
X796105Y414048D01*
X796159Y414040D01*
X796196Y414028D01*
X796236Y414029D01*
X796290Y414021D01*
X798830Y414021D01*
X798895Y414032D01*
G37*
G36*
X883985Y414032D02*
X883985Y414032D01*
X884051Y414034D01*
X884094Y414052D01*
X884141Y414060D01*
X884198Y414094D01*
X884258Y414119D01*
X884293Y414150D01*
X884334Y414175D01*
X884376Y414226D01*
X884424Y414270D01*
X884446Y414312D01*
X884475Y414349D01*
X884496Y414411D01*
X884527Y414470D01*
X884535Y414524D01*
X884547Y414561D01*
X884546Y414601D01*
X884554Y414655D01*
X884554Y418465D01*
X884543Y418530D01*
X884541Y418596D01*
X884523Y418639D01*
X884515Y418686D01*
X884481Y418743D01*
X884456Y418803D01*
X884425Y418838D01*
X884400Y418879D01*
X884349Y418921D01*
X884305Y418969D01*
X884263Y418991D01*
X884226Y419020D01*
X884164Y419041D01*
X884105Y419072D01*
X884051Y419080D01*
X884014Y419092D01*
X883974Y419091D01*
X883920Y419099D01*
X881380Y419099D01*
X881315Y419088D01*
X881249Y419086D01*
X881206Y419068D01*
X881159Y419060D01*
X881102Y419026D01*
X881042Y419001D01*
X881007Y418970D01*
X880966Y418945D01*
X880925Y418894D01*
X880876Y418850D01*
X880854Y418808D01*
X880825Y418771D01*
X880804Y418709D01*
X880773Y418650D01*
X880765Y418596D01*
X880753Y418559D01*
X880753Y418555D01*
X880753Y418554D01*
X880754Y418519D01*
X880746Y418465D01*
X880746Y414655D01*
X880757Y414590D01*
X880759Y414524D01*
X880777Y414481D01*
X880785Y414434D01*
X880819Y414377D01*
X880844Y414317D01*
X880875Y414282D01*
X880900Y414241D01*
X880951Y414200D01*
X880995Y414151D01*
X881037Y414129D01*
X881074Y414100D01*
X881136Y414079D01*
X881195Y414048D01*
X881249Y414040D01*
X881286Y414028D01*
X881326Y414029D01*
X881380Y414021D01*
X883920Y414021D01*
X883985Y414032D01*
G37*
G36*
X308675Y414032D02*
X308675Y414032D01*
X308741Y414034D01*
X308784Y414052D01*
X308831Y414060D01*
X308888Y414094D01*
X308948Y414119D01*
X308983Y414150D01*
X309024Y414175D01*
X309066Y414226D01*
X309114Y414270D01*
X309136Y414312D01*
X309165Y414349D01*
X309186Y414411D01*
X309217Y414470D01*
X309225Y414524D01*
X309237Y414561D01*
X309236Y414601D01*
X309244Y414655D01*
X309244Y418465D01*
X309233Y418530D01*
X309231Y418596D01*
X309213Y418639D01*
X309205Y418686D01*
X309171Y418743D01*
X309146Y418803D01*
X309115Y418838D01*
X309090Y418879D01*
X309039Y418921D01*
X308995Y418969D01*
X308953Y418991D01*
X308916Y419020D01*
X308854Y419041D01*
X308795Y419072D01*
X308741Y419080D01*
X308704Y419092D01*
X308664Y419091D01*
X308610Y419099D01*
X306070Y419099D01*
X306005Y419088D01*
X305939Y419086D01*
X305896Y419068D01*
X305849Y419060D01*
X305792Y419026D01*
X305732Y419001D01*
X305697Y418970D01*
X305656Y418945D01*
X305615Y418894D01*
X305566Y418850D01*
X305544Y418808D01*
X305515Y418771D01*
X305494Y418709D01*
X305463Y418650D01*
X305455Y418596D01*
X305443Y418559D01*
X305443Y418555D01*
X305443Y418554D01*
X305444Y418519D01*
X305436Y418465D01*
X305436Y414655D01*
X305447Y414590D01*
X305449Y414524D01*
X305467Y414481D01*
X305475Y414434D01*
X305509Y414377D01*
X305534Y414317D01*
X305565Y414282D01*
X305590Y414241D01*
X305641Y414200D01*
X305685Y414151D01*
X305727Y414129D01*
X305764Y414100D01*
X305826Y414079D01*
X305885Y414048D01*
X305939Y414040D01*
X305976Y414028D01*
X306016Y414029D01*
X306070Y414021D01*
X308610Y414021D01*
X308675Y414032D01*
G37*
G36*
X182945Y414032D02*
X182945Y414032D01*
X183011Y414034D01*
X183054Y414052D01*
X183101Y414060D01*
X183158Y414094D01*
X183218Y414119D01*
X183253Y414150D01*
X183294Y414175D01*
X183336Y414226D01*
X183384Y414270D01*
X183406Y414312D01*
X183435Y414349D01*
X183456Y414411D01*
X183487Y414470D01*
X183495Y414524D01*
X183507Y414561D01*
X183506Y414601D01*
X183514Y414655D01*
X183514Y418465D01*
X183503Y418530D01*
X183501Y418596D01*
X183483Y418639D01*
X183475Y418686D01*
X183441Y418743D01*
X183416Y418803D01*
X183385Y418838D01*
X183360Y418879D01*
X183309Y418921D01*
X183265Y418969D01*
X183223Y418991D01*
X183186Y419020D01*
X183124Y419041D01*
X183065Y419072D01*
X183011Y419080D01*
X182974Y419092D01*
X182934Y419091D01*
X182880Y419099D01*
X180340Y419099D01*
X180275Y419088D01*
X180209Y419086D01*
X180166Y419068D01*
X180119Y419060D01*
X180062Y419026D01*
X180002Y419001D01*
X179967Y418970D01*
X179926Y418945D01*
X179885Y418894D01*
X179836Y418850D01*
X179814Y418808D01*
X179785Y418771D01*
X179764Y418709D01*
X179733Y418650D01*
X179725Y418596D01*
X179713Y418559D01*
X179713Y418555D01*
X179713Y418554D01*
X179714Y418519D01*
X179706Y418465D01*
X179706Y414655D01*
X179717Y414590D01*
X179719Y414524D01*
X179737Y414481D01*
X179745Y414434D01*
X179779Y414377D01*
X179804Y414317D01*
X179835Y414282D01*
X179860Y414241D01*
X179911Y414200D01*
X179955Y414151D01*
X179997Y414129D01*
X180034Y414100D01*
X180096Y414079D01*
X180155Y414048D01*
X180209Y414040D01*
X180246Y414028D01*
X180286Y414029D01*
X180340Y414021D01*
X182880Y414021D01*
X182945Y414032D01*
G37*
G36*
X116270Y568337D02*
X116270Y568337D01*
X116336Y568339D01*
X116379Y568357D01*
X116426Y568365D01*
X116483Y568399D01*
X116543Y568424D01*
X116578Y568455D01*
X116619Y568480D01*
X116661Y568531D01*
X116709Y568575D01*
X116731Y568617D01*
X116760Y568654D01*
X116781Y568716D01*
X116812Y568775D01*
X116820Y568829D01*
X116832Y568866D01*
X116831Y568906D01*
X116839Y568960D01*
X116839Y571500D01*
X116828Y571565D01*
X116826Y571631D01*
X116808Y571674D01*
X116800Y571721D01*
X116766Y571778D01*
X116741Y571838D01*
X116710Y571873D01*
X116685Y571914D01*
X116634Y571956D01*
X116590Y572004D01*
X116548Y572026D01*
X116511Y572055D01*
X116449Y572076D01*
X116390Y572107D01*
X116336Y572115D01*
X116299Y572127D01*
X116259Y572126D01*
X116205Y572134D01*
X112395Y572134D01*
X112330Y572123D01*
X112264Y572121D01*
X112221Y572103D01*
X112174Y572095D01*
X112117Y572061D01*
X112057Y572036D01*
X112022Y572005D01*
X111981Y571980D01*
X111940Y571929D01*
X111891Y571885D01*
X111869Y571843D01*
X111840Y571806D01*
X111819Y571744D01*
X111788Y571685D01*
X111780Y571631D01*
X111768Y571594D01*
X111768Y571591D01*
X111769Y571554D01*
X111761Y571500D01*
X111761Y568960D01*
X111772Y568895D01*
X111774Y568829D01*
X111792Y568786D01*
X111800Y568739D01*
X111834Y568682D01*
X111859Y568622D01*
X111890Y568587D01*
X111915Y568546D01*
X111966Y568505D01*
X112010Y568456D01*
X112052Y568434D01*
X112089Y568405D01*
X112151Y568384D01*
X112210Y568353D01*
X112264Y568345D01*
X112301Y568333D01*
X112341Y568334D01*
X112395Y568326D01*
X116205Y568326D01*
X116270Y568337D01*
G37*
G36*
X349950Y568337D02*
X349950Y568337D01*
X350016Y568339D01*
X350059Y568357D01*
X350106Y568365D01*
X350163Y568399D01*
X350223Y568424D01*
X350258Y568455D01*
X350299Y568480D01*
X350341Y568531D01*
X350389Y568575D01*
X350411Y568617D01*
X350440Y568654D01*
X350461Y568716D01*
X350492Y568775D01*
X350500Y568829D01*
X350512Y568866D01*
X350511Y568906D01*
X350519Y568960D01*
X350519Y571500D01*
X350508Y571565D01*
X350506Y571631D01*
X350488Y571674D01*
X350480Y571721D01*
X350446Y571778D01*
X350421Y571838D01*
X350390Y571873D01*
X350365Y571914D01*
X350314Y571956D01*
X350270Y572004D01*
X350228Y572026D01*
X350191Y572055D01*
X350129Y572076D01*
X350070Y572107D01*
X350016Y572115D01*
X349979Y572127D01*
X349939Y572126D01*
X349885Y572134D01*
X346075Y572134D01*
X346010Y572123D01*
X345944Y572121D01*
X345901Y572103D01*
X345854Y572095D01*
X345797Y572061D01*
X345737Y572036D01*
X345702Y572005D01*
X345661Y571980D01*
X345620Y571929D01*
X345571Y571885D01*
X345549Y571843D01*
X345520Y571806D01*
X345499Y571744D01*
X345468Y571685D01*
X345460Y571631D01*
X345448Y571594D01*
X345448Y571591D01*
X345449Y571554D01*
X345441Y571500D01*
X345441Y568960D01*
X345452Y568895D01*
X345454Y568829D01*
X345472Y568786D01*
X345480Y568739D01*
X345514Y568682D01*
X345539Y568622D01*
X345570Y568587D01*
X345595Y568546D01*
X345646Y568505D01*
X345690Y568456D01*
X345732Y568434D01*
X345769Y568405D01*
X345831Y568384D01*
X345890Y568353D01*
X345944Y568345D01*
X345981Y568333D01*
X346021Y568334D01*
X346075Y568326D01*
X349885Y568326D01*
X349950Y568337D01*
G37*
G36*
X583630Y568337D02*
X583630Y568337D01*
X583696Y568339D01*
X583739Y568357D01*
X583786Y568365D01*
X583843Y568399D01*
X583903Y568424D01*
X583938Y568455D01*
X583979Y568480D01*
X584021Y568531D01*
X584069Y568575D01*
X584091Y568617D01*
X584120Y568654D01*
X584141Y568716D01*
X584172Y568775D01*
X584180Y568829D01*
X584192Y568866D01*
X584191Y568906D01*
X584199Y568960D01*
X584199Y571500D01*
X584188Y571565D01*
X584186Y571631D01*
X584168Y571674D01*
X584160Y571721D01*
X584126Y571778D01*
X584101Y571838D01*
X584070Y571873D01*
X584045Y571914D01*
X583994Y571956D01*
X583950Y572004D01*
X583908Y572026D01*
X583871Y572055D01*
X583809Y572076D01*
X583750Y572107D01*
X583696Y572115D01*
X583659Y572127D01*
X583619Y572126D01*
X583565Y572134D01*
X579755Y572134D01*
X579690Y572123D01*
X579624Y572121D01*
X579581Y572103D01*
X579534Y572095D01*
X579477Y572061D01*
X579417Y572036D01*
X579382Y572005D01*
X579341Y571980D01*
X579300Y571929D01*
X579251Y571885D01*
X579229Y571843D01*
X579200Y571806D01*
X579179Y571744D01*
X579148Y571685D01*
X579140Y571631D01*
X579128Y571594D01*
X579128Y571591D01*
X579129Y571554D01*
X579121Y571500D01*
X579121Y568960D01*
X579132Y568895D01*
X579134Y568829D01*
X579152Y568786D01*
X579160Y568739D01*
X579194Y568682D01*
X579219Y568622D01*
X579250Y568587D01*
X579275Y568546D01*
X579326Y568505D01*
X579370Y568456D01*
X579412Y568434D01*
X579449Y568405D01*
X579511Y568384D01*
X579570Y568353D01*
X579624Y568345D01*
X579661Y568333D01*
X579701Y568334D01*
X579755Y568326D01*
X583565Y568326D01*
X583630Y568337D01*
G37*
G36*
X817310Y568337D02*
X817310Y568337D01*
X817376Y568339D01*
X817419Y568357D01*
X817466Y568365D01*
X817523Y568399D01*
X817583Y568424D01*
X817618Y568455D01*
X817659Y568480D01*
X817701Y568531D01*
X817749Y568575D01*
X817771Y568617D01*
X817800Y568654D01*
X817821Y568716D01*
X817852Y568775D01*
X817860Y568829D01*
X817872Y568866D01*
X817871Y568906D01*
X817879Y568960D01*
X817879Y571500D01*
X817868Y571565D01*
X817866Y571631D01*
X817848Y571674D01*
X817840Y571721D01*
X817806Y571778D01*
X817781Y571838D01*
X817750Y571873D01*
X817725Y571914D01*
X817674Y571956D01*
X817630Y572004D01*
X817588Y572026D01*
X817551Y572055D01*
X817489Y572076D01*
X817430Y572107D01*
X817376Y572115D01*
X817339Y572127D01*
X817299Y572126D01*
X817245Y572134D01*
X813435Y572134D01*
X813370Y572123D01*
X813304Y572121D01*
X813261Y572103D01*
X813214Y572095D01*
X813157Y572061D01*
X813097Y572036D01*
X813062Y572005D01*
X813021Y571980D01*
X812980Y571929D01*
X812931Y571885D01*
X812909Y571843D01*
X812880Y571806D01*
X812859Y571744D01*
X812828Y571685D01*
X812820Y571631D01*
X812808Y571594D01*
X812808Y571591D01*
X812809Y571554D01*
X812801Y571500D01*
X812801Y568960D01*
X812812Y568895D01*
X812814Y568829D01*
X812832Y568786D01*
X812840Y568739D01*
X812874Y568682D01*
X812899Y568622D01*
X812930Y568587D01*
X812955Y568546D01*
X813006Y568505D01*
X813050Y568456D01*
X813092Y568434D01*
X813129Y568405D01*
X813191Y568384D01*
X813250Y568353D01*
X813304Y568345D01*
X813341Y568333D01*
X813381Y568334D01*
X813435Y568326D01*
X817245Y568326D01*
X817310Y568337D01*
G37*
G36*
X817310Y55257D02*
X817310Y55257D01*
X817376Y55259D01*
X817419Y55277D01*
X817466Y55285D01*
X817523Y55319D01*
X817583Y55344D01*
X817618Y55375D01*
X817659Y55400D01*
X817701Y55451D01*
X817749Y55495D01*
X817771Y55537D01*
X817800Y55574D01*
X817821Y55636D01*
X817852Y55695D01*
X817860Y55749D01*
X817872Y55786D01*
X817871Y55826D01*
X817879Y55880D01*
X817879Y58420D01*
X817868Y58485D01*
X817866Y58551D01*
X817848Y58594D01*
X817840Y58641D01*
X817806Y58698D01*
X817781Y58758D01*
X817750Y58793D01*
X817725Y58834D01*
X817674Y58876D01*
X817630Y58924D01*
X817588Y58946D01*
X817551Y58975D01*
X817489Y58996D01*
X817430Y59027D01*
X817376Y59035D01*
X817339Y59047D01*
X817299Y59046D01*
X817245Y59054D01*
X813435Y59054D01*
X813370Y59043D01*
X813304Y59041D01*
X813261Y59023D01*
X813214Y59015D01*
X813157Y58981D01*
X813097Y58956D01*
X813062Y58925D01*
X813021Y58900D01*
X812980Y58849D01*
X812931Y58805D01*
X812909Y58763D01*
X812880Y58726D01*
X812859Y58664D01*
X812828Y58605D01*
X812820Y58551D01*
X812808Y58514D01*
X812808Y58511D01*
X812809Y58474D01*
X812801Y58420D01*
X812801Y55880D01*
X812812Y55815D01*
X812814Y55749D01*
X812832Y55706D01*
X812840Y55659D01*
X812874Y55602D01*
X812899Y55542D01*
X812930Y55507D01*
X812955Y55466D01*
X813006Y55425D01*
X813050Y55376D01*
X813092Y55354D01*
X813129Y55325D01*
X813191Y55304D01*
X813250Y55273D01*
X813304Y55265D01*
X813341Y55253D01*
X813381Y55254D01*
X813435Y55246D01*
X817245Y55246D01*
X817310Y55257D01*
G37*
G36*
X349950Y55257D02*
X349950Y55257D01*
X350016Y55259D01*
X350059Y55277D01*
X350106Y55285D01*
X350163Y55319D01*
X350223Y55344D01*
X350258Y55375D01*
X350299Y55400D01*
X350341Y55451D01*
X350389Y55495D01*
X350411Y55537D01*
X350440Y55574D01*
X350461Y55636D01*
X350492Y55695D01*
X350500Y55749D01*
X350512Y55786D01*
X350511Y55826D01*
X350519Y55880D01*
X350519Y58420D01*
X350508Y58485D01*
X350506Y58551D01*
X350488Y58594D01*
X350480Y58641D01*
X350446Y58698D01*
X350421Y58758D01*
X350390Y58793D01*
X350365Y58834D01*
X350314Y58876D01*
X350270Y58924D01*
X350228Y58946D01*
X350191Y58975D01*
X350129Y58996D01*
X350070Y59027D01*
X350016Y59035D01*
X349979Y59047D01*
X349939Y59046D01*
X349885Y59054D01*
X346075Y59054D01*
X346010Y59043D01*
X345944Y59041D01*
X345901Y59023D01*
X345854Y59015D01*
X345797Y58981D01*
X345737Y58956D01*
X345702Y58925D01*
X345661Y58900D01*
X345620Y58849D01*
X345571Y58805D01*
X345549Y58763D01*
X345520Y58726D01*
X345499Y58664D01*
X345468Y58605D01*
X345460Y58551D01*
X345448Y58514D01*
X345448Y58511D01*
X345449Y58474D01*
X345441Y58420D01*
X345441Y55880D01*
X345452Y55815D01*
X345454Y55749D01*
X345472Y55706D01*
X345480Y55659D01*
X345514Y55602D01*
X345539Y55542D01*
X345570Y55507D01*
X345595Y55466D01*
X345646Y55425D01*
X345690Y55376D01*
X345732Y55354D01*
X345769Y55325D01*
X345831Y55304D01*
X345890Y55273D01*
X345944Y55265D01*
X345981Y55253D01*
X346021Y55254D01*
X346075Y55246D01*
X349885Y55246D01*
X349950Y55257D01*
G37*
G36*
X583630Y55257D02*
X583630Y55257D01*
X583696Y55259D01*
X583739Y55277D01*
X583786Y55285D01*
X583843Y55319D01*
X583903Y55344D01*
X583938Y55375D01*
X583979Y55400D01*
X584021Y55451D01*
X584069Y55495D01*
X584091Y55537D01*
X584120Y55574D01*
X584141Y55636D01*
X584172Y55695D01*
X584180Y55749D01*
X584192Y55786D01*
X584191Y55826D01*
X584199Y55880D01*
X584199Y58420D01*
X584188Y58485D01*
X584186Y58551D01*
X584168Y58594D01*
X584160Y58641D01*
X584126Y58698D01*
X584101Y58758D01*
X584070Y58793D01*
X584045Y58834D01*
X583994Y58876D01*
X583950Y58924D01*
X583908Y58946D01*
X583871Y58975D01*
X583809Y58996D01*
X583750Y59027D01*
X583696Y59035D01*
X583659Y59047D01*
X583619Y59046D01*
X583565Y59054D01*
X579755Y59054D01*
X579690Y59043D01*
X579624Y59041D01*
X579581Y59023D01*
X579534Y59015D01*
X579477Y58981D01*
X579417Y58956D01*
X579382Y58925D01*
X579341Y58900D01*
X579300Y58849D01*
X579251Y58805D01*
X579229Y58763D01*
X579200Y58726D01*
X579179Y58664D01*
X579148Y58605D01*
X579140Y58551D01*
X579128Y58514D01*
X579128Y58511D01*
X579129Y58474D01*
X579121Y58420D01*
X579121Y55880D01*
X579132Y55815D01*
X579134Y55749D01*
X579152Y55706D01*
X579160Y55659D01*
X579194Y55602D01*
X579219Y55542D01*
X579250Y55507D01*
X579275Y55466D01*
X579326Y55425D01*
X579370Y55376D01*
X579412Y55354D01*
X579449Y55325D01*
X579511Y55304D01*
X579570Y55273D01*
X579624Y55265D01*
X579661Y55253D01*
X579701Y55254D01*
X579755Y55246D01*
X583565Y55246D01*
X583630Y55257D01*
G37*
G36*
X116270Y55257D02*
X116270Y55257D01*
X116336Y55259D01*
X116379Y55277D01*
X116426Y55285D01*
X116483Y55319D01*
X116543Y55344D01*
X116578Y55375D01*
X116619Y55400D01*
X116661Y55451D01*
X116709Y55495D01*
X116731Y55537D01*
X116760Y55574D01*
X116781Y55636D01*
X116812Y55695D01*
X116820Y55749D01*
X116832Y55786D01*
X116831Y55826D01*
X116839Y55880D01*
X116839Y58420D01*
X116828Y58485D01*
X116826Y58551D01*
X116808Y58594D01*
X116800Y58641D01*
X116766Y58698D01*
X116741Y58758D01*
X116710Y58793D01*
X116685Y58834D01*
X116634Y58876D01*
X116590Y58924D01*
X116548Y58946D01*
X116511Y58975D01*
X116449Y58996D01*
X116390Y59027D01*
X116336Y59035D01*
X116299Y59047D01*
X116259Y59046D01*
X116205Y59054D01*
X112395Y59054D01*
X112330Y59043D01*
X112264Y59041D01*
X112221Y59023D01*
X112174Y59015D01*
X112117Y58981D01*
X112057Y58956D01*
X112022Y58925D01*
X111981Y58900D01*
X111940Y58849D01*
X111891Y58805D01*
X111869Y58763D01*
X111840Y58726D01*
X111819Y58664D01*
X111788Y58605D01*
X111780Y58551D01*
X111768Y58514D01*
X111768Y58511D01*
X111769Y58474D01*
X111761Y58420D01*
X111761Y55880D01*
X111772Y55815D01*
X111774Y55749D01*
X111792Y55706D01*
X111800Y55659D01*
X111834Y55602D01*
X111859Y55542D01*
X111890Y55507D01*
X111915Y55466D01*
X111966Y55425D01*
X112010Y55376D01*
X112052Y55354D01*
X112089Y55325D01*
X112151Y55304D01*
X112210Y55273D01*
X112264Y55265D01*
X112301Y55253D01*
X112341Y55254D01*
X112395Y55246D01*
X116205Y55246D01*
X116270Y55257D01*
G37*
D10*
X177800Y495300D03*
X12700Y50800D03*
D11*
X215900Y444500D03*
X215900Y419100D03*
X215900Y393700D03*
X215900Y368300D03*
X215900Y342900D03*
X215900Y317500D03*
X215900Y292100D03*
X215900Y266700D03*
X215900Y241300D03*
X215900Y215900D03*
X215900Y190500D03*
X215900Y165100D03*
X215900Y139700D03*
X215900Y114300D03*
X215900Y88900D03*
X215900Y63500D03*
X12700Y165100D03*
X12700Y190500D03*
X12700Y215900D03*
X12700Y241300D03*
X12700Y266700D03*
X12700Y292100D03*
X12700Y317500D03*
X12700Y342900D03*
X12700Y368300D03*
X12700Y393700D03*
X12700Y419100D03*
X12700Y444500D03*
D12*
X25400Y25400D03*
X203200Y25400D03*
X203200Y482600D03*
X25400Y482600D03*
D13*
X181610Y411353D03*
X181610Y421767D03*
X96520Y411353D03*
X96520Y421767D03*
D14*
X109093Y57150D03*
X119507Y57150D03*
D15*
X139700Y63500D03*
X165100Y63500D03*
X190500Y63500D03*
X139700Y88900D03*
X165100Y88900D03*
X190500Y88900D03*
D13*
X73660Y411353D03*
X73660Y421767D03*
D16*
X88900Y88900D03*
X88900Y139700D03*
X139700Y114300D03*
X76200Y330200D03*
D10*
X411480Y495300D03*
X246380Y50800D03*
D11*
X449580Y444500D03*
X449580Y419100D03*
X449580Y393700D03*
X449580Y368300D03*
X449580Y342900D03*
X449580Y317500D03*
X449580Y292100D03*
X449580Y266700D03*
X449580Y241300D03*
X449580Y215900D03*
X449580Y190500D03*
X449580Y165100D03*
X449580Y139700D03*
X449580Y114300D03*
X449580Y88900D03*
X449580Y63500D03*
X246380Y165100D03*
X246380Y190500D03*
X246380Y215900D03*
X246380Y241300D03*
X246380Y266700D03*
X246380Y292100D03*
X246380Y317500D03*
X246380Y342900D03*
X246380Y368300D03*
X246380Y393700D03*
X246380Y419100D03*
X246380Y444500D03*
D12*
X259080Y25400D03*
X436880Y25400D03*
X436880Y482600D03*
X259080Y482600D03*
D13*
X415290Y411353D03*
X415290Y421767D03*
X330200Y411353D03*
X330200Y421767D03*
D14*
X342773Y57150D03*
X353187Y57150D03*
D15*
X373380Y63500D03*
X398780Y63500D03*
X424180Y63500D03*
X373380Y88900D03*
X398780Y88900D03*
X424180Y88900D03*
D13*
X307340Y411353D03*
X307340Y421767D03*
D16*
X322580Y88900D03*
X322580Y139700D03*
X373380Y114300D03*
X309880Y330200D03*
D10*
X645160Y495300D03*
X480060Y50800D03*
D11*
X683260Y444500D03*
X683260Y419100D03*
X683260Y393700D03*
X683260Y368300D03*
X683260Y342900D03*
X683260Y317500D03*
X683260Y292100D03*
X683260Y266700D03*
X683260Y241300D03*
X683260Y215900D03*
X683260Y190500D03*
X683260Y165100D03*
X683260Y139700D03*
X683260Y114300D03*
X683260Y88900D03*
X683260Y63500D03*
X480060Y165100D03*
X480060Y190500D03*
X480060Y215900D03*
X480060Y241300D03*
X480060Y266700D03*
X480060Y292100D03*
X480060Y317500D03*
X480060Y342900D03*
X480060Y368300D03*
X480060Y393700D03*
X480060Y419100D03*
X480060Y444500D03*
D12*
X492760Y25400D03*
X670560Y25400D03*
X670560Y482600D03*
X492760Y482600D03*
D13*
X648970Y411353D03*
X648970Y421767D03*
X563880Y411353D03*
X563880Y421767D03*
D14*
X576453Y57150D03*
X586867Y57150D03*
D15*
X607060Y63500D03*
X632460Y63500D03*
X657860Y63500D03*
X607060Y88900D03*
X632460Y88900D03*
X657860Y88900D03*
D13*
X541020Y411353D03*
X541020Y421767D03*
D16*
X556260Y88900D03*
X556260Y139700D03*
X607060Y114300D03*
X543560Y330200D03*
D10*
X878840Y495300D03*
X713740Y50800D03*
D11*
X916940Y444500D03*
X916940Y419100D03*
X916940Y393700D03*
X916940Y368300D03*
X916940Y342900D03*
X916940Y317500D03*
X916940Y292100D03*
X916940Y266700D03*
X916940Y241300D03*
X916940Y215900D03*
X916940Y190500D03*
X916940Y165100D03*
X916940Y139700D03*
X916940Y114300D03*
X916940Y88900D03*
X916940Y63500D03*
X713740Y165100D03*
X713740Y190500D03*
X713740Y215900D03*
X713740Y241300D03*
X713740Y266700D03*
X713740Y292100D03*
X713740Y317500D03*
X713740Y342900D03*
X713740Y368300D03*
X713740Y393700D03*
X713740Y419100D03*
X713740Y444500D03*
D12*
X726440Y25400D03*
X904240Y25400D03*
X904240Y482600D03*
X726440Y482600D03*
D13*
X882650Y411353D03*
X882650Y421767D03*
X797560Y411353D03*
X797560Y421767D03*
D14*
X810133Y57150D03*
X820547Y57150D03*
D15*
X840740Y63500D03*
X866140Y63500D03*
X891540Y63500D03*
X840740Y88900D03*
X866140Y88900D03*
X891540Y88900D03*
D13*
X774700Y411353D03*
X774700Y421767D03*
D16*
X789940Y88900D03*
X789940Y139700D03*
X840740Y114300D03*
X777240Y330200D03*
D10*
X177800Y1008380D03*
X12700Y563880D03*
D11*
X215900Y957580D03*
X215900Y932180D03*
X215900Y906780D03*
X215900Y881380D03*
X215900Y855980D03*
X215900Y830580D03*
X215900Y805180D03*
X215900Y779780D03*
X215900Y754380D03*
X215900Y728980D03*
X215900Y703580D03*
X215900Y678180D03*
X215900Y652780D03*
X215900Y627380D03*
X215900Y601980D03*
X215900Y576580D03*
X12700Y678180D03*
X12700Y703580D03*
X12700Y728980D03*
X12700Y754380D03*
X12700Y779780D03*
X12700Y805180D03*
X12700Y830580D03*
X12700Y855980D03*
X12700Y881380D03*
X12700Y906780D03*
X12700Y932180D03*
X12700Y957580D03*
D12*
X25400Y538480D03*
X203200Y538480D03*
X203200Y995680D03*
X25400Y995680D03*
D13*
X181610Y924433D03*
X181610Y934847D03*
X96520Y924433D03*
X96520Y934847D03*
D14*
X109093Y570230D03*
X119507Y570230D03*
D15*
X139700Y576580D03*
X165100Y576580D03*
X190500Y576580D03*
X139700Y601980D03*
X165100Y601980D03*
X190500Y601980D03*
D13*
X73660Y924433D03*
X73660Y934847D03*
D16*
X88900Y601980D03*
X88900Y652780D03*
X139700Y627380D03*
X76200Y843280D03*
D10*
X411480Y1008380D03*
X246380Y563880D03*
D11*
X449580Y957580D03*
X449580Y932180D03*
X449580Y906780D03*
X449580Y881380D03*
X449580Y855980D03*
X449580Y830580D03*
X449580Y805180D03*
X449580Y779780D03*
X449580Y754380D03*
X449580Y728980D03*
X449580Y703580D03*
X449580Y678180D03*
X449580Y652780D03*
X449580Y627380D03*
X449580Y601980D03*
X449580Y576580D03*
X246380Y678180D03*
X246380Y703580D03*
X246380Y728980D03*
X246380Y754380D03*
X246380Y779780D03*
X246380Y805180D03*
X246380Y830580D03*
X246380Y855980D03*
X246380Y881380D03*
X246380Y906780D03*
X246380Y932180D03*
X246380Y957580D03*
D12*
X259080Y538480D03*
X436880Y538480D03*
X436880Y995680D03*
X259080Y995680D03*
D13*
X415290Y924433D03*
X415290Y934847D03*
X330200Y924433D03*
X330200Y934847D03*
D14*
X342773Y570230D03*
X353187Y570230D03*
D15*
X373380Y576580D03*
X398780Y576580D03*
X424180Y576580D03*
X373380Y601980D03*
X398780Y601980D03*
X424180Y601980D03*
D13*
X307340Y924433D03*
X307340Y934847D03*
D16*
X322580Y601980D03*
X322580Y652780D03*
X373380Y627380D03*
X309880Y843280D03*
D10*
X645160Y1008380D03*
X480060Y563880D03*
D11*
X683260Y957580D03*
X683260Y932180D03*
X683260Y906780D03*
X683260Y881380D03*
X683260Y855980D03*
X683260Y830580D03*
X683260Y805180D03*
X683260Y779780D03*
X683260Y754380D03*
X683260Y728980D03*
X683260Y703580D03*
X683260Y678180D03*
X683260Y652780D03*
X683260Y627380D03*
X683260Y601980D03*
X683260Y576580D03*
X480060Y678180D03*
X480060Y703580D03*
X480060Y728980D03*
X480060Y754380D03*
X480060Y779780D03*
X480060Y805180D03*
X480060Y830580D03*
X480060Y855980D03*
X480060Y881380D03*
X480060Y906780D03*
X480060Y932180D03*
X480060Y957580D03*
D12*
X492760Y538480D03*
X670560Y538480D03*
X670560Y995680D03*
X492760Y995680D03*
D13*
X648970Y924433D03*
X648970Y934847D03*
X563880Y924433D03*
X563880Y934847D03*
D14*
X576453Y570230D03*
X586867Y570230D03*
D15*
X607060Y576580D03*
X632460Y576580D03*
X657860Y576580D03*
X607060Y601980D03*
X632460Y601980D03*
X657860Y601980D03*
D13*
X541020Y924433D03*
X541020Y934847D03*
D16*
X556260Y601980D03*
X556260Y652780D03*
X607060Y627380D03*
X543560Y843280D03*
D10*
X878840Y1008380D03*
X713740Y563880D03*
D11*
X916940Y957580D03*
X916940Y932180D03*
X916940Y906780D03*
X916940Y881380D03*
X916940Y855980D03*
X916940Y830580D03*
X916940Y805180D03*
X916940Y779780D03*
X916940Y754380D03*
X916940Y728980D03*
X916940Y703580D03*
X916940Y678180D03*
X916940Y652780D03*
X916940Y627380D03*
X916940Y601980D03*
X916940Y576580D03*
X713740Y678180D03*
X713740Y703580D03*
X713740Y728980D03*
X713740Y754380D03*
X713740Y779780D03*
X713740Y805180D03*
X713740Y830580D03*
X713740Y855980D03*
X713740Y881380D03*
X713740Y906780D03*
X713740Y932180D03*
X713740Y957580D03*
D12*
X726440Y538480D03*
X904240Y538480D03*
X904240Y995680D03*
X726440Y995680D03*
D13*
X882650Y924433D03*
X882650Y934847D03*
X797560Y924433D03*
X797560Y934847D03*
D14*
X810133Y570230D03*
X820547Y570230D03*
D15*
X840740Y576580D03*
X866140Y576580D03*
X891540Y576580D03*
X840740Y601980D03*
X866140Y601980D03*
X891540Y601980D03*
D13*
X774700Y924433D03*
X774700Y934847D03*
D16*
X789940Y601980D03*
X789940Y652780D03*
X840740Y627380D03*
X777240Y843280D03*
D10*
X68580Y1042035D03*
X860425Y1042035D03*
D17*
X59525Y-20955D02*
X59528Y-20733D01*
X59536Y-20511D01*
X59550Y-20289D01*
X59569Y-20067D01*
X59593Y-19847D01*
X59623Y-19626D01*
X59658Y-19407D01*
X59699Y-19188D01*
X59745Y-18971D01*
X59796Y-18755D01*
X59853Y-18540D01*
X59915Y-18326D01*
X59982Y-18115D01*
X60054Y-17904D01*
X60132Y-17696D01*
X60214Y-17490D01*
X60302Y-17286D01*
X60394Y-17083D01*
X60492Y-16884D01*
X60594Y-16687D01*
X60701Y-16492D01*
X60813Y-16300D01*
X60930Y-16111D01*
X61051Y-15924D01*
X61177Y-15741D01*
X61307Y-15561D01*
X61442Y-15384D01*
X61580Y-15211D01*
X61723Y-15041D01*
X61871Y-14874D01*
X62022Y-14711D01*
X62177Y-14552D01*
X62336Y-14397D01*
X62499Y-14246D01*
X62666Y-14098D01*
X62836Y-13955D01*
X63009Y-13817D01*
X63186Y-13682D01*
X63366Y-13552D01*
X63549Y-13426D01*
X63736Y-13305D01*
X63925Y-13188D01*
X64117Y-13076D01*
X64312Y-12969D01*
X64509Y-12867D01*
X64708Y-12769D01*
X64911Y-12677D01*
X65115Y-12589D01*
X65321Y-12507D01*
X65529Y-12429D01*
X65740Y-12357D01*
X65951Y-12290D01*
X66165Y-12228D01*
X66380Y-12171D01*
X66596Y-12120D01*
X66813Y-12074D01*
X67032Y-12033D01*
X67251Y-11998D01*
X67472Y-11968D01*
X67692Y-11944D01*
X67914Y-11925D01*
X68136Y-11911D01*
X68358Y-11903D01*
X68580Y-11900D01*
X68802Y-11903D01*
X69024Y-11911D01*
X69246Y-11925D01*
X69468Y-11944D01*
X69688Y-11968D01*
X69909Y-11998D01*
X70128Y-12033D01*
X70347Y-12074D01*
X70564Y-12120D01*
X70780Y-12171D01*
X70995Y-12228D01*
X71209Y-12290D01*
X71420Y-12357D01*
X71631Y-12429D01*
X71839Y-12507D01*
X72045Y-12589D01*
X72249Y-12677D01*
X72452Y-12769D01*
X72651Y-12867D01*
X72848Y-12969D01*
X73043Y-13076D01*
X73235Y-13188D01*
X73424Y-13305D01*
X73611Y-13426D01*
X73794Y-13552D01*
X73974Y-13682D01*
X74151Y-13817D01*
X74324Y-13955D01*
X74494Y-14098D01*
X74661Y-14246D01*
X74824Y-14397D01*
X74983Y-14552D01*
X75138Y-14711D01*
X75289Y-14874D01*
X75437Y-15041D01*
X75580Y-15211D01*
X75718Y-15384D01*
X75853Y-15561D01*
X75983Y-15741D01*
X76109Y-15924D01*
X76230Y-16111D01*
X76347Y-16300D01*
X76459Y-16492D01*
X76566Y-16687D01*
X76668Y-16884D01*
X76766Y-17083D01*
X76858Y-17286D01*
X76946Y-17490D01*
X77028Y-17696D01*
X77106Y-17904D01*
X77178Y-18115D01*
X77245Y-18326D01*
X77307Y-18540D01*
X77364Y-18755D01*
X77415Y-18971D01*
X77461Y-19188D01*
X77502Y-19407D01*
X77537Y-19626D01*
X77567Y-19847D01*
X77591Y-20067D01*
X77610Y-20289D01*
X77624Y-20511D01*
X77632Y-20733D01*
X77635Y-20955D01*
X77632Y-21177D01*
X77624Y-21399D01*
X77610Y-21621D01*
X77591Y-21843D01*
X77567Y-22063D01*
X77537Y-22284D01*
X77502Y-22503D01*
X77461Y-22722D01*
X77415Y-22939D01*
X77364Y-23155D01*
X77307Y-23370D01*
X77245Y-23584D01*
X77178Y-23795D01*
X77106Y-24006D01*
X77028Y-24214D01*
X76946Y-24420D01*
X76858Y-24624D01*
X76766Y-24827D01*
X76668Y-25026D01*
X76566Y-25223D01*
X76459Y-25418D01*
X76347Y-25610D01*
X76230Y-25799D01*
X76109Y-25986D01*
X75983Y-26169D01*
X75853Y-26349D01*
X75718Y-26526D01*
X75580Y-26699D01*
X75437Y-26869D01*
X75289Y-27036D01*
X75138Y-27199D01*
X74983Y-27358D01*
X74824Y-27513D01*
X74661Y-27664D01*
X74494Y-27812D01*
X74324Y-27955D01*
X74151Y-28093D01*
X73974Y-28228D01*
X73794Y-28358D01*
X73611Y-28484D01*
X73424Y-28605D01*
X73235Y-28722D01*
X73043Y-28834D01*
X72848Y-28941D01*
X72651Y-29043D01*
X72452Y-29141D01*
X72249Y-29233D01*
X72045Y-29321D01*
X71839Y-29403D01*
X71631Y-29481D01*
X71420Y-29553D01*
X71209Y-29620D01*
X70995Y-29682D01*
X70780Y-29739D01*
X70564Y-29790D01*
X70347Y-29836D01*
X70128Y-29877D01*
X69909Y-29912D01*
X69688Y-29942D01*
X69468Y-29966D01*
X69246Y-29985D01*
X69024Y-29999D01*
X68802Y-30007D01*
X68580Y-30010D01*
X68358Y-30007D01*
X68136Y-29999D01*
X67914Y-29985D01*
X67692Y-29966D01*
X67472Y-29942D01*
X67251Y-29912D01*
X67032Y-29877D01*
X66813Y-29836D01*
X66596Y-29790D01*
X66380Y-29739D01*
X66165Y-29682D01*
X65951Y-29620D01*
X65740Y-29553D01*
X65529Y-29481D01*
X65321Y-29403D01*
X65115Y-29321D01*
X64911Y-29233D01*
X64708Y-29141D01*
X64509Y-29043D01*
X64312Y-28941D01*
X64117Y-28834D01*
X63925Y-28722D01*
X63736Y-28605D01*
X63549Y-28484D01*
X63366Y-28358D01*
X63186Y-28228D01*
X63009Y-28093D01*
X62836Y-27955D01*
X62666Y-27812D01*
X62499Y-27664D01*
X62336Y-27513D01*
X62177Y-27358D01*
X62022Y-27199D01*
X61871Y-27036D01*
X61723Y-26869D01*
X61580Y-26699D01*
X61442Y-26526D01*
X61307Y-26349D01*
X61177Y-26169D01*
X61051Y-25986D01*
X60930Y-25799D01*
X60813Y-25610D01*
X60701Y-25418D01*
X60594Y-25223D01*
X60492Y-25026D01*
X60394Y-24827D01*
X60302Y-24624D01*
X60214Y-24420D01*
X60132Y-24214D01*
X60054Y-24006D01*
X59982Y-23795D01*
X59915Y-23584D01*
X59853Y-23370D01*
X59796Y-23155D01*
X59745Y-22939D01*
X59699Y-22722D01*
X59658Y-22503D01*
X59623Y-22284D01*
X59593Y-22063D01*
X59569Y-21843D01*
X59550Y-21621D01*
X59536Y-21399D01*
X59528Y-21177D01*
X59525Y-20955D01*
D18*
X68580Y-20955D03*
M02*
