M48
;GenerationSoftware,Autodesk,EAGLE,9.6.0*%
;CreationDate,2020-07-28T08:31:57Z*%
FMAT,2
ICI,OFF
METRIC,TZ,000.000
T3C0.200
T2C1.016
T1C3.302
%
G90
M71
T1
X90424Y99568
X72644Y99568
X2540Y2540
X20320Y2540
X20320Y48260
X2540Y48260
X25908Y2540
X43688Y2540
X43688Y48260
X25908Y48260
X49276Y2540
X67056Y2540
X67056Y48260
X49276Y48260
X72644Y2540
X90424Y2540
X90424Y48260
X72644Y48260
X2540Y53848
X20320Y53848
X20320Y99568
X2540Y99568
X25908Y53848
X43688Y53848
X43688Y99568
X25908Y99568
X49276Y53848
X67056Y53848
X67056Y99568
X49276Y99568
X72644Y53848
X90424Y53848
T2
X73914Y60198
X21590Y29210
X21590Y44450
X21590Y41910
X21590Y39370
X21590Y36830
X21590Y34290
X21590Y31750
X21590Y26670
X21590Y24130
X21590Y21590
X21590Y19050
X21590Y16510
X21590Y13970
X21590Y11430
X21590Y8890
X21590Y6350
X1270Y16510
X1270Y19050
X1270Y21590
X1270Y24130
X1270Y26670
X1270Y29210
X1270Y31750
X1270Y34290
X1270Y36830
X1270Y39370
X1270Y41910
X1270Y44450
X19050Y8890
X16510Y8890
X6350Y8890
X3810Y8890
X44958Y44450
X44958Y41910
X44958Y39370
X44958Y36830
X44958Y34290
X44958Y31750
X44958Y29210
X44958Y26670
X44958Y24130
X44958Y21590
X44958Y19050
X44958Y16510
X44958Y13970
X44958Y11430
X44958Y8890
X44958Y6350
X24638Y16510
X24638Y19050
X24638Y21590
X24638Y24130
X24638Y26670
X24638Y29210
X24638Y31750
X24638Y34290
X24638Y36830
X24638Y39370
X24638Y41910
X24638Y44450
X42418Y8890
X39878Y8890
X29718Y8890
X27178Y8890
X68326Y44450
X68326Y41910
X68326Y39370
X68326Y36830
X68326Y34290
X68326Y31750
X68326Y29210
X68326Y26670
X68326Y24130
X68326Y21590
X68326Y19050
X68326Y16510
X68326Y13970
X68326Y11430
X68326Y8890
X68326Y6350
X48006Y16510
X48006Y19050
X48006Y21590
X48006Y24130
X48006Y26670
X48006Y29210
X48006Y31750
X48006Y34290
X48006Y36830
X48006Y39370
X48006Y41910
X48006Y44450
X65786Y8890
X63246Y8890
X53086Y8890
X50546Y8890
X91694Y44450
X91694Y41910
X91694Y39370
X91694Y36830
X91694Y34290
X91694Y31750
X91694Y29210
X91694Y26670
X91694Y24130
X91694Y21590
X91694Y19050
X91694Y16510
X91694Y13970
X91694Y11430
X91694Y8890
X91694Y6350
X71374Y16510
X71374Y19050
X71374Y21590
X71374Y24130
X71374Y26670
X71374Y29210
X71374Y31750
X71374Y34290
X71374Y36830
X71374Y39370
X71374Y41910
X71374Y44450
X89154Y8890
X86614Y8890
X76454Y8890
X73914Y8890
X21590Y95758
X21590Y93218
X21590Y90678
X21590Y88138
X21590Y85598
X21590Y83058
X21590Y80518
X21590Y77978
X21590Y75438
X21590Y72898
X21590Y70358
X21590Y67818
X21590Y65278
X21590Y62738
X21590Y60198
X21590Y57658
X1270Y67818
X1270Y70358
X1270Y72898
X1270Y75438
X1270Y77978
X1270Y80518
X1270Y83058
X1270Y85598
X1270Y88138
X1270Y90678
X1270Y93218
X1270Y95758
X19050Y60198
X16510Y60198
X6350Y60198
X3810Y60198
X44958Y95758
X44958Y93218
X44958Y90678
X44958Y88138
X44958Y85598
X44958Y83058
X44958Y80518
X44958Y77978
X44958Y75438
X44958Y72898
X44958Y70358
X44958Y67818
X44958Y65278
X44958Y62738
X44958Y60198
X44958Y57658
X24638Y67818
X24638Y70358
X24638Y72898
X24638Y75438
X24638Y77978
X24638Y80518
X24638Y83058
X24638Y85598
X24638Y88138
X24638Y90678
X24638Y93218
X24638Y95758
X42418Y60198
X39878Y60198
X29718Y60198
X27178Y60198
X68326Y95758
X68326Y93218
X68326Y90678
X68326Y88138
X68326Y85598
X68326Y83058
X68326Y80518
X68326Y77978
X68326Y75438
X68326Y72898
X68326Y70358
X68326Y67818
X68326Y65278
X68326Y62738
X68326Y60198
X68326Y57658
X48006Y67818
X48006Y70358
X48006Y72898
X48006Y75438
X48006Y77978
X48006Y80518
X48006Y83058
X48006Y85598
X48006Y88138
X48006Y90678
X48006Y93218
X48006Y95758
X65786Y60198
X63246Y60198
X53086Y60198
X50546Y60198
X91694Y95758
X91694Y93218
X91694Y90678
X91694Y88138
X91694Y85598
X91694Y83058
X91694Y80518
X91694Y77978
X91694Y75438
X91694Y72898
X91694Y70358
X91694Y67818
X91694Y65278
X91694Y62738
X91694Y60198
X91694Y57658
X71374Y67818
X71374Y70358
X71374Y72898
X71374Y75438
X71374Y77978
X71374Y80518
X71374Y83058
X71374Y85598
X71374Y88138
X71374Y90678
X71374Y93218
X71374Y95758
X89154Y60198
X86614Y60198
X76454Y60198
T3
X40259Y46355
X40259Y47625
X35687Y46355
X35687Y47625
X36195Y48768
X37338Y49530
X38608Y49530
X39751Y48768
X36449Y27305
X37402Y27241
X31623Y24130
X29210Y24130
X27749Y26797
X34290Y42418
X40450Y41466
X34036Y35433
X34544Y35941
X35052Y35433
X34544Y34925
X34544Y35433
X28829Y48260
X31369Y48260
X28829Y45720
X31369Y45720
X42418Y12700
X29210Y22161
X29210Y20511
X33084Y15621
X35878Y15684
X33909Y14414
X30797Y11747
X32004Y11747
X28638Y12954
X30670Y26479
X31623Y26479
X29718Y30861
X31623Y30861
X34290Y40577
X34290Y41339
X35370Y41339
X29337Y36894
X32702Y37084
X31369Y43307
X33020Y40196
X31051Y34671
X28829Y42736
X29527Y40767
X27813Y38100
X29527Y38735
X28892Y31750
X30797Y31750
X27622Y44704
X30797Y40958
X32258Y31750
X32258Y33655
X42291Y21654
X42291Y28462
X43244Y26049
X28003Y41910
X27749Y40640
X27749Y39370
X37338Y7112
X32639Y12763
X42418Y38100
X42418Y36830
X42418Y34290
X43688Y32702
X43688Y30797
X42418Y6350
X39878Y6350
X34798Y6350
X32258Y6350
X29718Y6350
X27178Y6350
X24638Y7620
X24638Y10160
X24638Y12700
X27178Y15240
X27178Y17780
X30988Y13970
X32830Y8890
X37338Y10160
X41148Y15240
X40069Y18225
X30734Y16891
X42418Y19685
X27749Y21209
X26225Y28511
X26543Y31115
X26352Y35560
X25717Y43180
X32893Y5080
X40640Y24482
X36767Y42164
X40640Y24003
X39180Y42121
X43815Y25400
X29210Y23177
X39878Y12382
X40894Y20447
X38608Y12382
X40767Y20955
X34798Y18542
X35306Y18542
X35814Y18542
X34290Y18542
X32766Y18669
X33147Y19177
X32512Y19685
X32067Y20193
X28765Y30988
X29210Y21209
X32131Y15684
X42736Y21019
X42291Y29273
X32575Y18098
X37818Y17935
X37148Y34481
X36894Y27622
X37348Y18542
X34036Y26799
X35308Y26794
X37636Y26798
X32999Y36682
X32639Y43307
X32766Y39180
X32639Y45466
X30099Y48514
X32639Y48514
X33274Y37084
X30099Y43307
X30099Y39180
X30099Y45466
X41529Y42799
X33465Y42990
X31940Y8050
X31940Y7175
X36703Y5080
X62865Y26797
X61341Y27178
X61341Y31750
X61341Y30480
X61341Y29210
X61341Y27940
X63055Y28575
X63055Y27305
X61595Y41021
X62230Y41021
X62738Y40640
X63055Y31115
X63055Y32385
X63055Y40005
X59182Y25146
X60706Y25146
X62357Y25146
X62357Y22733
X62357Y24003
X60706Y22733
X59182Y22733
X57531Y22733
X57531Y25146
X57531Y24003
X57531Y20320
X59182Y20320
X60706Y20320
X62357Y20320
X62357Y21463
X57531Y21463
X63055Y29845
X63055Y33655
X63055Y34925
X61341Y33020
X61341Y34290
X63055Y36195
X63055Y37465
X61341Y35560
X61341Y36830
X63055Y38735
X61341Y38100
X59182Y27241
X59182Y28575
X59182Y30480
X59182Y31750
X59182Y33020
X59436Y34036
X57277Y33020
X57277Y31750
X57277Y30480
X57277Y29210
X57277Y27940
X57277Y27305
X61341Y39116
X59436Y36830
X59182Y37465
X59690Y37846
X60706Y37846
X57658Y39561
X57658Y38608
X59372Y40577
X59372Y39561
X60071Y39878
X60071Y40640
X60706Y40767
X60071Y41402
X64897Y40386
X60452Y43180
X60452Y44450
X60325Y45212
X62230Y44450
X62230Y43180
X62357Y45212
X59690Y45466
X62992Y45466
X63627Y46355
X63627Y47625
X59055Y46355
X59055Y47625
X59563Y48768
X60706Y49530
X61976Y49530
X63119Y48768
X59817Y27305
X60769Y27241
X54991Y24130
X52578Y24130
X51117Y26797
X57658Y42418
X63817Y41466
X57404Y35433
X57912Y35941
X58420Y35433
X57912Y34925
X57912Y35433
X52197Y48260
X54737Y48260
X52197Y45720
X54737Y45720
X65786Y12700
X52578Y22161
X52578Y20511
X56451Y15621
X59245Y15684
X57277Y14414
X54165Y11747
X55372Y11747
X52006Y12954
X54038Y26479
X54991Y26479
X53086Y30861
X54991Y30861
X57658Y40577
X57658Y41339
X58737Y41339
X52705Y36894
X56070Y37084
X54737Y43307
X56388Y40196
X54419Y34671
X52197Y42736
X52895Y40767
X51181Y38100
X52895Y38735
X52260Y31750
X54165Y31750
X50990Y44704
X54165Y40958
X55626Y31750
X55626Y33655
X65659Y21654
X65659Y28462
X66612Y26049
X51371Y41910
X51117Y40640
X51117Y39370
X60706Y7112
X56007Y12763
X65786Y38100
X65786Y36830
X65786Y34290
X67056Y32702
X67056Y30797
X65786Y6350
X63246Y6350
X58166Y6350
X55626Y6350
X53086Y6350
X50546Y6350
X48006Y7620
X48006Y10160
X48006Y12700
X50546Y15240
X50546Y17780
X54356Y13970
X56197Y8890
X60706Y10160
X64516Y15240
X63436Y18225
X54102Y16891
X65786Y19685
X51117Y21209
X49593Y28511
X49911Y31115
X49720Y35560
X49085Y43180
X56261Y5080
X64008Y24482
X60134Y42164
X64008Y24003
X62547Y42121
X67183Y25400
X52578Y23177
X63246Y12382
X64262Y20447
X61976Y12382
X64135Y20955
X58166Y18542
X58674Y18542
X59182Y18542
X57658Y18542
X56134Y18669
X56515Y19177
X55880Y19685
X55435Y20193
X52133Y30988
X52578Y21209
X55499Y15684
X66104Y21019
X65659Y29273
X55943Y18098
X61186Y17935
X60515Y34481
X60261Y27622
X60715Y18542
X57404Y26799
X58676Y26794
X61004Y26798
X56367Y36682
X56007Y43307
X56134Y39180
X56007Y45466
X53467Y48514
X56007Y48514
X56642Y37084
X53467Y43307
X53467Y39180
X53467Y45466
X64897Y42799
X56832Y42990
X55308Y8050
X55308Y7175
X60071Y5080
X86233Y26797
X84709Y27178
X84709Y31750
X84709Y30480
X84709Y29210
X84709Y27940
X86424Y28575
X86424Y27305
X84963Y41021
X85598Y41021
X86106Y40640
X86424Y31115
X86424Y32385
X86424Y40005
X82550Y25146
X84074Y25146
X85725Y25146
X85725Y22733
X85725Y24003
X84074Y22733
X82550Y22733
X80899Y22733
X80899Y25146
X80899Y24003
X80899Y20320
X82550Y20320
X84074Y20320
X85725Y20320
X85725Y21463
X80899Y21463
X86424Y29845
X86424Y33655
X86424Y34925
X84709Y33020
X84709Y34290
X86424Y36195
X86424Y37465
X84709Y35560
X84709Y36830
X86424Y38735
X84709Y38100
X82550Y27241
X82550Y28575
X82550Y30480
X82550Y31750
X82550Y33020
X82804Y34036
X80645Y33020
X80645Y31750
X80645Y30480
X80645Y29210
X80645Y27940
X80645Y27305
X84709Y39116
X82804Y36830
X82550Y37465
X83058Y37846
X84074Y37846
X81026Y39561
X81026Y38608
X82741Y40577
X82741Y39561
X83439Y39878
X83439Y40640
X84074Y40767
X83439Y41402
X88265Y40386
X83820Y43180
X83820Y44450
X83693Y45212
X85598Y44450
X85598Y43180
X85725Y45212
X83058Y45466
X86360Y45466
X86995Y46355
X86995Y47625
X82423Y46355
X82423Y47625
X82931Y48768
X84074Y49530
X85344Y49530
X86487Y48768
X83185Y27305
X84138Y27241
X78359Y24130
X75946Y24130
X74486Y26797
X81026Y42418
X87186Y41466
X80772Y35433
X81280Y35941
X81788Y35433
X81280Y34925
X81280Y35433
X75565Y48260
X78105Y48260
X75565Y45720
X78105Y45720
X89154Y12700
X75946Y22161
X75946Y20511
X79820Y15621
X82614Y15684
X80645Y14414
X77534Y11747
X78740Y11747
X75375Y12954
X77407Y26479
X78359Y26479
X76454Y30861
X78359Y30861
X81026Y40577
X81026Y41339
X82106Y41339
X76073Y36894
X79439Y37084
X78105Y43307
X79756Y40196
X77788Y34671
X75565Y42736
X76264Y40767
X74549Y38100
X76264Y38735
X75629Y31750
X77534Y31750
X74359Y44704
X77534Y40958
X78994Y31750
X78994Y33655
X89027Y21654
X89027Y28462
X89979Y26049
X74740Y41910
X74486Y40640
X74486Y39370
X84074Y7112
X79375Y12763
X89154Y38100
X89154Y36830
X89154Y34290
X90424Y32702
X90424Y30797
X89154Y6350
X86614Y6350
X81534Y6350
X78994Y6350
X76454Y6350
X73914Y6350
X71374Y7620
X71374Y10160
X71374Y12700
X73914Y15240
X73914Y17780
X77724Y13970
X79566Y8890
X84074Y10160
X87884Y15240
X86805Y18225
X77470Y16891
X89154Y19685
X74486Y21209
X72962Y28511
X73279Y31115
X73089Y35560
X72454Y43180
X79629Y5080
X87376Y24482
X83503Y42164
X87376Y24003
X85916Y42121
X90551Y25400
X75946Y23177
X86614Y12382
X87630Y20447
X85344Y12382
X87503Y20955
X81534Y18542
X82042Y18542
X82550Y18542
X81026Y18542
X79502Y18669
X79883Y19177
X79248Y19685
X78804Y20193
X75502Y30988
X75946Y21209
X78867Y15684
X89471Y21019
X89027Y29273
X79312Y18098
X84554Y17935
X83884Y34481
X83630Y27622
X84084Y18542
X80772Y26799
X82044Y26794
X84372Y26798
X79735Y36682
X79375Y43307
X79502Y39180
X79375Y45466
X76835Y48514
X79375Y48514
X80010Y37084
X76835Y43307
X76835Y39180
X76835Y45466
X88265Y42799
X80201Y42990
X78677Y8050
X78677Y7175
X83439Y5080
X16129Y78105
X14605Y78486
X14605Y83058
X14605Y81788
X14605Y80518
X14605Y79248
X16319Y79883
X16319Y78613
X14859Y92329
X15494Y92329
X16002Y91948
X16319Y82423
X16319Y83693
X16319Y91313
X12446Y76454
X13970Y76454
X15621Y76454
X15621Y74041
X15621Y75311
X13970Y74041
X12446Y74041
X10795Y74041
X10795Y76454
X10795Y75311
X10795Y71628
X12446Y71628
X13970Y71628
X15621Y71628
X15621Y72771
X10795Y72771
X16319Y81153
X16319Y84963
X16319Y86233
X14605Y84328
X14605Y85598
X16319Y87503
X16319Y88773
X14605Y86868
X14605Y88138
X16319Y90043
X14605Y89408
X12446Y78550
X12446Y79883
X12446Y81788
X12446Y83058
X12446Y84328
X12700Y85344
X10541Y84328
X10541Y83058
X10541Y81788
X10541Y80518
X10541Y79248
X10541Y78613
X14605Y90424
X12700Y88138
X12446Y88773
X12954Y89154
X13970Y89154
X10922Y90868
X10922Y89916
X12636Y91884
X12636Y90868
X13335Y91186
X13335Y91948
X13970Y92075
X13335Y92710
X18161Y91694
X13716Y94488
X13716Y95758
X13589Y96520
X15494Y95758
X15494Y94488
X15621Y96520
X12954Y96774
X16256Y96774
X16891Y97663
X16891Y98933
X12319Y97663
X12319Y98933
X12827Y100076
X13970Y100838
X15240Y100838
X16383Y100076
X13081Y78613
X14033Y78550
X8255Y75438
X5842Y75438
X4382Y78105
X10922Y93726
X17082Y92773
X10668Y86741
X11176Y87249
X11684Y86741
X11176Y86233
X11176Y86741
X5461Y99568
X8001Y99568
X5461Y97028
X8001Y97028
X19050Y64008
X5842Y73470
X5842Y71819
X9716Y66929
X12509Y66993
X10541Y65723
X7429Y63055
X8636Y63055
X5271Y64262
X7302Y77788
X8255Y77788
X6350Y82169
X8255Y82169
X10922Y91884
X10922Y92646
X12001Y92646
X5969Y88201
X9335Y88392
X8001Y94615
X9652Y91503
X7683Y85979
X5461Y94043
X6159Y92075
X4445Y89408
X6159Y90043
X5524Y83058
X7429Y83058
X4255Y96012
X7429Y92265
X8890Y83058
X8890Y84963
X18923Y72962
X18923Y79770
X19876Y77357
X4636Y93218
X4382Y91948
X4382Y90678
X13970Y58420
X9271Y64071
X19050Y89408
X19050Y88138
X19050Y85598
X20320Y84011
X20320Y82106
X19050Y57658
X39688Y37465
X11430Y57658
X8890Y57658
X6350Y57658
X3810Y57658
X1270Y58928
X1270Y61468
X1270Y64008
X3810Y66548
X3810Y69088
X7620Y65278
X9462Y60198
X13970Y61468
X17780Y66548
X16701Y69533
X7366Y68199
X19050Y70993
X4382Y72517
X2857Y79820
X3175Y82423
X2984Y86868
X2350Y94488
X9525Y56388
X17272Y75790
X13398Y93472
X17272Y75311
X15811Y93429
X20447Y76708
X5842Y74486
X16510Y63690
X17526Y71755
X15240Y63690
X17399Y72263
X11430Y69850
X11938Y69850
X12446Y69850
X10922Y69850
X9398Y69977
X9779Y70485
X9144Y70993
X8700Y71501
X5398Y82296
X5842Y72517
X8763Y66993
X19368Y72327
X18923Y80582
X9208Y69406
X14450Y69243
X13779Y85789
X13525Y78931
X13979Y69850
X10668Y78107
X11940Y78102
X14268Y78106
X9631Y87990
X9271Y94615
X9398Y90487
X9271Y96774
X6731Y99822
X9271Y99822
X9906Y88392
X6731Y94615
X6731Y90487
X6731Y96774
X18161Y94107
X10097Y94297
X8573Y59358
X8573Y58483
X13335Y56388
X39497Y78105
X37973Y78486
X37973Y83058
X37973Y81788
X37973Y80518
X37973Y79248
X39688Y79883
X39688Y78613
X38227Y92329
X38862Y92329
X39370Y91948
X39688Y82423
X39688Y83693
X39688Y91313
X35814Y76454
X37338Y76454
X38989Y76454
X38989Y74041
X38989Y75311
X37338Y74041
X35814Y74041
X34163Y74041
X34163Y76454
X34163Y75311
X34163Y71628
X35814Y71628
X37338Y71628
X38989Y71628
X38989Y72771
X34163Y72771
X39688Y81153
X39688Y84963
X39688Y86233
X37973Y84328
X37973Y85598
X39688Y87503
X39688Y88773
X37973Y86868
X37973Y88138
X39688Y90043
X37973Y89408
X35814Y78550
X35814Y79883
X35814Y81788
X35814Y83058
X35814Y84328
X36068Y85344
X33909Y84328
X33909Y83058
X33909Y81788
X33909Y80518
X33909Y79248
X33909Y78613
X37973Y90424
X36068Y88138
X35814Y88773
X36322Y89154
X37338Y89154
X34290Y90868
X34290Y89916
X36005Y91884
X36005Y90868
X36703Y91186
X36703Y91948
X37338Y92075
X36703Y92710
X41529Y91694
X37084Y94488
X37084Y95758
X36957Y96520
X38862Y95758
X38862Y94488
X38989Y96520
X36322Y96774
X39624Y96774
X40259Y97663
X40259Y98933
X35687Y97663
X35687Y98933
X36195Y100076
X37338Y100838
X38608Y100838
X39751Y100076
X36449Y78613
X37402Y78550
X31623Y75438
X29210Y75438
X27749Y78105
X34290Y93726
X40450Y92773
X34036Y86741
X34544Y87249
X35052Y86741
X34544Y86233
X34544Y86741
X28829Y99568
X31369Y99568
X28829Y97028
X31369Y97028
X42418Y64008
X29210Y73470
X29210Y71819
X33084Y66929
X35878Y66993
X33909Y65723
X30797Y63055
X32004Y63055
X28638Y64262
X30670Y77788
X31623Y77788
X29718Y82169
X31623Y82169
X34290Y91884
X34290Y92646
X35370Y92646
X29337Y88201
X32702Y88392
X31369Y94615
X33020Y91503
X31051Y85979
X28829Y94043
X29527Y92075
X27813Y89408
X29527Y90043
X28892Y83058
X30797Y83058
X27622Y96012
X30797Y92265
X32258Y83058
X32258Y84963
X42291Y72962
X42291Y79770
X43244Y77357
X28003Y93218
X27749Y91948
X27749Y90678
X37338Y58420
X32639Y64071
X42418Y89408
X42418Y88138
X42418Y85598
X43688Y84011
X43688Y82106
X42418Y57658
X39878Y57658
X34798Y57658
X32258Y57658
X29718Y57658
X27178Y57658
X24638Y58928
X24638Y61468
X24638Y64008
X27178Y66548
X27178Y69088
X30988Y65278
X32830Y60198
X37338Y61468
X41148Y66548
X40069Y69533
X30734Y68199
X42418Y70993
X27749Y72517
X26225Y79820
X26543Y82423
X26352Y86868
X25717Y94488
X32893Y56388
X40640Y75790
X36767Y93472
X40640Y75311
X39180Y93429
X43815Y76708
X29210Y74486
X39878Y63690
X40894Y71755
X38608Y63690
X40767Y72263
X34798Y69850
X35306Y69850
X35814Y69850
X34290Y69850
X32766Y69977
X33147Y70485
X32512Y70993
X32067Y71501
X28765Y82296
X29210Y72517
X32131Y66993
X42736Y72327
X42291Y80582
X32575Y69406
X37818Y69243
X37148Y85789
X36894Y78931
X37348Y69850
X34036Y78107
X35308Y78102
X37636Y78106
X32999Y87990
X32639Y94615
X32766Y90487
X32639Y96774
X30099Y99822
X32639Y99822
X33274Y88392
X30099Y94615
X30099Y90487
X30099Y96774
X41529Y94107
X33465Y94297
X31940Y59358
X31940Y58483
X36703Y56388
X62865Y78105
X61341Y78486
X61341Y83058
X61341Y81788
X61341Y80518
X61341Y79248
X63055Y79883
X63055Y78613
X61595Y92329
X62230Y92329
X62738Y91948
X63055Y82423
X63055Y83693
X63055Y91313
X59182Y76454
X60706Y76454
X62357Y76454
X62357Y74041
X62357Y75311
X60706Y74041
X59182Y74041
X57531Y74041
X57531Y76454
X57531Y75311
X57531Y71628
X59182Y71628
X60706Y71628
X62357Y71628
X62357Y72771
X57531Y72771
X63055Y81153
X63055Y84963
X63055Y86233
X61341Y84328
X61341Y85598
X63055Y87503
X63055Y88773
X61341Y86868
X61341Y88138
X63055Y90043
X61341Y89408
X59182Y78550
X59182Y79883
X59182Y81788
X59182Y83058
X59182Y84328
X59436Y85344
X57277Y84328
X57277Y83058
X57277Y81788
X57277Y80518
X57277Y79248
X57277Y78613
X61341Y90424
X59436Y88138
X59182Y88773
X59690Y89154
X60706Y89154
X57658Y90868
X57658Y89916
X59372Y91884
X59372Y90868
X60071Y91186
X60071Y91948
X60706Y92075
X60071Y92710
X64897Y91694
X60452Y94488
X60452Y95758
X60325Y96520
X62230Y95758
X62230Y94488
X62357Y96520
X59690Y96774
X62992Y96774
X63627Y97663
X63627Y98933
X59055Y97663
X59055Y98933
X59563Y100076
X60706Y100838
X61976Y100838
X63119Y100076
X59817Y78613
X60769Y78550
X54991Y75438
X52578Y75438
X51117Y78105
X57658Y93726
X63817Y92773
X57404Y86741
X57912Y87249
X58420Y86741
X57912Y86233
X57912Y86741
X52197Y99568
X54737Y99568
X52197Y97028
X54737Y97028
X65786Y64008
X52578Y73470
X52578Y71819
X56451Y66929
X59245Y66993
X57277Y65723
X54165Y63055
X55372Y63055
X52006Y64262
X54038Y77788
X54991Y77788
X53086Y82169
X54991Y82169
X57658Y91884
X57658Y92646
X58737Y92646
X52705Y88201
X56070Y88392
X54737Y94615
X56388Y91503
X54419Y85979
X52197Y94043
X52895Y92075
X51181Y89408
X52895Y90043
X52260Y83058
X54165Y83058
X50990Y96012
X54165Y92265
X55626Y83058
X55626Y84963
X65659Y72962
X65659Y79770
X66612Y77357
X51371Y93218
X51117Y91948
X51117Y90678
X60706Y58420
X56007Y64071
X65786Y89408
X65786Y88138
X65786Y85598
X67056Y84011
X67056Y82106
X65786Y57658
X63246Y57658
X58166Y57658
X55626Y57658
X53086Y57658
X50546Y57658
X48006Y58928
X48006Y61468
X48006Y64008
X50546Y66548
X50546Y69088
X54356Y65278
X56197Y60198
X60706Y61468
X64516Y66548
X63436Y69533
X54102Y68199
X65786Y70993
X51117Y72517
X49593Y79820
X49911Y82423
X49720Y86868
X49085Y94488
X56261Y56388
X64008Y75790
X60134Y93472
X64008Y75311
X62547Y93429
X67183Y76708
X52578Y74486
X63246Y63690
X64262Y71755
X61976Y63690
X64135Y72263
X58166Y69850
X58674Y69850
X59182Y69850
X57658Y69850
X56134Y69977
X56515Y70485
X55880Y70993
X55435Y71501
X52133Y82296
X52578Y72517
X55499Y66993
X66104Y72327
X65659Y80582
X55943Y69406
X61186Y69243
X60515Y85789
X60261Y78931
X60715Y69850
X57404Y78107
X58676Y78102
X61004Y78106
X56367Y87990
X56007Y94615
X56134Y90487
X56007Y96774
X53467Y99822
X56007Y99822
X56642Y88392
X53467Y94615
X53467Y90487
X53467Y96774
X64897Y94107
X56832Y94297
X55308Y59358
X55308Y58483
X60071Y56388
X86233Y78105
X84709Y78486
X16129Y26797
X84709Y81788
X84709Y80518
X84709Y79248
X86424Y79883
X86424Y78613
X84963Y92329
X85598Y92329
X86106Y91948
X86424Y82423
X86424Y83693
X86424Y91313
X82550Y76454
X84074Y76454
X85725Y76454
X85725Y74041
X85725Y75311
X84074Y74041
X82550Y74041
X80899Y74041
X80899Y76454
X80899Y75311
X80899Y71628
X82550Y71628
X84074Y71628
X85725Y71628
X85725Y72771
X80899Y72771
X86424Y81153
X86424Y84963
X86424Y86233
X84709Y84328
X84709Y85598
X86424Y87503
X86424Y88773
X84709Y86868
X84709Y88138
X86424Y90043
X84709Y89408
X82550Y78550
X82550Y79883
X82550Y81788
X82550Y83058
X82550Y84328
X82804Y85344
X80645Y84328
X80645Y83058
X80645Y81788
X80645Y80518
X80645Y79248
X80645Y78613
X84709Y90424
X82804Y88138
X82550Y88773
X83058Y89154
X84074Y89154
X81026Y90868
X81026Y89916
X82741Y91884
X82741Y90868
X83439Y91186
X83439Y91948
X84074Y92075
X83439Y92710
X88265Y91694
X83820Y94488
X83820Y95758
X83693Y96520
X85598Y95758
X85598Y94488
X85725Y96520
X83058Y96774
X86360Y96774
X86995Y97663
X86995Y98933
X82423Y97663
X82423Y98933
X82931Y100076
X84074Y100838
X85344Y100838
X86487Y100076
X83185Y78613
X84138Y78550
X78359Y75438
X75946Y75438
X74486Y78105
X81026Y93726
X87186Y92773
X80772Y86741
X81280Y87249
X81788Y86741
X81280Y86233
X81280Y86741
X75565Y99568
X78105Y99568
X75565Y97028
X78105Y97028
X89154Y64008
X75946Y73470
X75946Y71819
X79820Y66929
X82614Y66993
X80645Y65723
X77534Y63055
X78740Y63055
X75375Y64262
X77407Y77788
X78359Y77788
X76454Y82169
X78359Y82169
X81026Y91884
X81026Y92646
X82106Y92646
X76073Y88201
X79439Y88392
X78105Y94615
X79756Y91503
X77788Y85979
X75565Y94043
X76264Y92075
X74549Y89408
X76264Y90043
X75629Y83058
X77534Y83058
X74359Y96012
X77534Y92265
X78994Y83058
X78994Y84963
X89027Y72962
X89027Y79770
X89979Y77357
X74740Y93218
X74486Y91948
X74486Y90678
X84074Y58420
X79375Y64071
X89154Y89408
X89154Y88138
X89154Y85598
X90424Y84011
X90424Y82106
X89154Y57658
X86614Y57658
X81534Y57658
X78994Y57658
X76454Y57658
X73914Y57658
X71374Y58928
X71374Y61468
X71374Y64008
X73914Y66548
X73914Y69088
X77724Y65278
X79566Y60198
X84074Y61468
X87884Y66548
X86805Y69533
X77470Y68199
X89154Y70993
X74486Y72517
X72962Y79820
X73279Y82423
X73089Y86868
X72454Y94488
X79629Y56388
X87376Y75790
X83503Y93472
X87376Y75311
X85916Y93429
X90551Y76708
X75946Y74486
X86614Y63690
X87630Y71755
X85344Y63690
X87503Y72263
X81534Y69850
X82042Y69850
X82550Y69850
X81026Y69850
X79502Y69977
X79883Y70485
X79248Y70993
X78804Y71501
X75502Y82296
X75946Y72517
X78867Y66993
X89471Y72327
X89027Y80582
X79312Y69406
X84554Y69243
X83884Y85789
X83630Y78931
X84084Y69850
X80772Y78107
X82044Y78102
X84372Y78106
X79735Y87990
X79375Y94615
X79502Y90487
X79375Y96774
X76835Y99822
X79375Y99822
X80010Y88392
X76835Y94615
X76835Y90487
X76835Y96774
X88265Y94107
X80201Y94297
X78677Y59358
X78677Y58483
X83439Y56388
X14605Y27178
X14605Y31750
X14605Y30480
X14605Y29210
X14605Y27940
X16319Y28575
X16319Y27305
X14859Y41021
X15494Y41021
X16002Y40640
X16319Y31115
X16319Y32385
X16319Y40005
X12446Y25146
X13970Y25146
X15621Y25146
X15621Y22733
X15621Y24003
X13970Y22733
X12446Y22733
X10795Y22733
X10795Y25146
X10795Y24003
X10795Y20320
X12446Y20320
X13970Y20320
X15621Y20320
X15621Y21463
X10795Y21463
X16319Y29845
X16319Y33655
X16319Y34925
X14605Y33020
X14605Y34290
X16319Y36195
X16319Y37465
X14605Y35560
X14605Y36830
X16510Y57658
X16319Y38735
X14605Y38100
X12446Y27241
X12446Y28575
X12446Y30480
X12446Y31750
X12446Y33020
X12700Y34036
X10541Y33020
X10541Y31750
X10541Y30480
X10541Y29210
X10541Y27940
X10541Y27305
X14605Y39116
X12700Y36830
X12446Y37465
X12954Y37846
X13970Y37846
X10922Y39561
X10922Y38608
X12636Y40577
X12636Y39561
X13335Y39878
X13335Y40640
X13970Y40767
X13335Y41402
X18161Y40386
X13716Y43180
X13716Y44450
X13589Y45212
X15494Y44450
X15494Y43180
X15621Y45212
X12954Y45466
X16256Y45466
X16891Y46355
X16891Y47625
X12319Y46355
X12319Y47625
X12827Y48768
X13970Y49530
X15240Y49530
X16383Y48768
X13081Y27305
X14033Y27241
X8255Y24130
X5842Y24130
X4382Y26797
X10922Y42418
X17082Y41466
X10668Y35433
X11176Y35941
X11684Y35433
X11176Y34925
X11176Y35433
X5461Y48260
X8001Y48260
X5461Y45720
X8001Y45720
X19050Y12700
X5842Y22161
X5842Y20511
X9716Y15621
X12509Y15684
X10541Y14414
X7429Y11747
X8636Y11747
X5271Y12954
X7302Y26479
X8255Y26479
X6350Y30861
X8255Y30861
X10922Y40577
X10922Y41339
X12001Y41339
X5969Y36894
X9335Y37084
X8001Y43307
X9652Y40196
X7683Y34671
X5461Y42736
X6159Y40767
X4445Y38100
X6159Y38735
X5524Y31750
X7429Y31750
X4255Y44704
X7429Y40958
X8890Y31750
X8890Y33655
X18923Y21654
X18923Y28462
X19876Y26049
X4636Y41910
X4382Y40640
X4382Y39370
X13970Y7112
X9271Y12763
X19050Y38100
X19050Y36830
X19050Y34290
X20320Y32702
X20320Y30797
X19050Y6350
X16510Y6350
X11430Y6350
X8890Y6350
X6350Y6350
X3810Y6350
X1270Y7620
X1270Y10160
X1270Y12700
X3810Y15240
X3810Y17780
X7620Y13970
X9462Y8890
X13970Y10160
X17780Y15240
X16701Y18225
X7366Y16891
X19050Y19685
X4382Y21209
X2857Y28511
X3175Y31115
X2984Y35560
X2350Y43180
X9525Y5080
X17272Y24482
X13398Y42164
X17272Y24003
X15811Y42121
X20447Y25400
X5842Y23177
X16510Y12382
X17526Y20447
X15240Y12382
X17399Y20955
X11430Y18542
X11938Y18542
X12446Y18542
X10922Y18542
X9398Y18669
X9779Y19177
X9144Y19685
X8700Y20193
X5398Y30988
X5842Y21209
X8763Y15684
X19368Y21019
X18923Y29273
X9208Y18098
X14450Y17935
X13779Y34481
X13525Y27622
X13979Y18542
X10668Y26799
X11940Y26794
X14268Y26798
X9631Y36682
X9271Y43307
X9398Y39180
X9271Y45466
X6731Y48514
X9271Y48514
X9906Y37084
X6731Y43307
X6731Y39180
X6731Y45466
X18161Y42799
X10097Y42990
X8573Y8050
X8573Y7175
X13335Y5080
X39497Y26797
X37973Y27178
X37973Y31750
X37973Y30480
X37973Y29210
X37973Y27940
X39688Y28575
X39688Y27305
X38227Y41021
X38862Y41021
X39370Y40640
X39688Y31115
X39688Y32385
X39688Y40005
X35814Y25146
X37338Y25146
X38989Y25146
X38989Y22733
X38989Y24003
X37338Y22733
X35814Y22733
X34163Y22733
X34163Y25146
X34163Y24003
X34163Y20320
X35814Y20320
X37338Y20320
X38989Y20320
X38989Y21463
X34163Y21463
X39688Y29845
X39688Y33655
X39688Y34925
X37973Y33020
X37973Y34290
X39688Y36195
X37973Y35560
X37973Y36830
X39688Y38735
X37973Y38100
X35814Y27241
X35814Y28575
X35814Y30480
X35814Y31750
X35814Y33020
X36068Y34036
X33909Y33020
X33909Y31750
X33909Y30480
X33909Y29210
X33909Y27940
X33909Y27305
X37973Y39116
X36068Y36830
X35814Y37465
X36322Y37846
X37338Y37846
X34290Y39561
X34290Y38608
X36005Y40577
X36005Y39561
X36703Y39878
X36703Y40640
X37338Y40767
X36703Y41402
X41529Y40386
X37084Y43180
X37084Y44450
X36957Y45212
X38862Y44450
X38862Y43180
X38989Y45212
X36322Y45466
X39624Y45466
X84709Y83058
M30