G04 EAGLE Gerber RS-274X export*
G75*
%MOMM*%
%FSLAX34Y34*%
%LPD*%
%INSolderpaste Top*%
%IPPOS*%
%AMOC8*
5,1,8,0,0,1.08239X$1,22.5*%
G01*
%ADD10R,0.250000X0.700000*%
%ADD11R,0.700000X0.250000*%
%ADD12R,1.000000X1.500000*%
%ADD13R,0.250000X0.800000*%
%ADD14R,0.800000X0.250000*%
%ADD15R,0.600000X0.600000*%
%ADD16R,0.450000X0.950000*%
%ADD17R,0.850000X2.200000*%
%ADD18R,1.000000X1.050000*%
%ADD19R,0.750000X0.400000*%
%ADD20R,0.685800X0.330200*%
%ADD21C,0.300000*%
%ADD22R,0.500000X0.550000*%
%ADD23R,0.660400X0.355600*%
%ADD24R,0.355600X0.660400*%
%ADD25R,0.600000X0.400000*%
%ADD26R,0.600000X1.200000*%
%ADD27R,1.200000X0.550000*%
%ADD28R,0.550000X1.150000*%
%ADD29R,0.830000X0.630000*%
%ADD30R,0.800000X0.900000*%


D10*
X104580Y193330D03*
X109580Y193330D03*
X114580Y193330D03*
X119580Y193330D03*
X124580Y193330D03*
X129580Y193330D03*
X134580Y193330D03*
X139580Y193330D03*
X144580Y193330D03*
X149580Y193330D03*
X154580Y193330D03*
X159580Y193330D03*
D11*
X166080Y199830D03*
X166080Y204830D03*
X166080Y209830D03*
X166080Y214830D03*
X166080Y219830D03*
X166080Y224830D03*
X166080Y229830D03*
X166080Y234830D03*
X166080Y239830D03*
X166080Y244830D03*
X166080Y249830D03*
X166080Y254830D03*
D10*
X159580Y261330D03*
X154580Y261330D03*
X149580Y261330D03*
X144580Y261330D03*
X139580Y261330D03*
X134580Y261330D03*
X129580Y261330D03*
X124580Y261330D03*
X119580Y261330D03*
X114580Y261330D03*
X109580Y261330D03*
X104580Y261330D03*
D11*
X98080Y254830D03*
X98080Y249830D03*
X98080Y244830D03*
X98080Y239830D03*
X98080Y234830D03*
X98080Y229830D03*
X98080Y224830D03*
X98080Y219830D03*
X98080Y214830D03*
X98080Y209830D03*
X98080Y204830D03*
X98080Y199830D03*
D12*
X117080Y214830D03*
X117080Y239830D03*
X147080Y239830D03*
X147080Y214830D03*
X132080Y214830D03*
X132080Y239830D03*
D13*
X104260Y339830D03*
X109260Y339830D03*
X114260Y339830D03*
X119260Y339830D03*
D14*
X126260Y346830D03*
X126260Y351830D03*
X126260Y356830D03*
X126260Y361830D03*
D13*
X119260Y368830D03*
X114260Y368830D03*
X109260Y368830D03*
X104260Y368830D03*
D14*
X97260Y361830D03*
X97260Y356830D03*
X97260Y351830D03*
X97260Y346830D03*
D15*
X106760Y349330D03*
X106760Y359330D03*
X116760Y359330D03*
X116760Y349330D03*
D16*
X139550Y399210D03*
X146050Y399210D03*
X152550Y399210D03*
X152550Y421210D03*
X146050Y421210D03*
X139550Y421210D03*
D15*
X126920Y399415D03*
X116920Y399415D03*
X154305Y386000D03*
X154305Y376000D03*
X146050Y443150D03*
X146050Y433150D03*
D17*
X159800Y469900D03*
X132300Y469900D03*
D18*
X146050Y454650D03*
X146050Y485150D03*
D15*
X116205Y112315D03*
X116205Y102315D03*
D19*
X105405Y113815D03*
X105405Y100815D03*
D20*
X88900Y114046D03*
X88900Y107315D03*
X88900Y100584D03*
D15*
X76200Y114220D03*
X76200Y104220D03*
X44370Y53975D03*
X34370Y53975D03*
X12145Y99060D03*
X22145Y99060D03*
X122475Y128905D03*
X112475Y128905D03*
X122475Y149225D03*
X112475Y149225D03*
X122475Y139065D03*
X112475Y139065D03*
X135255Y144225D03*
X135255Y154225D03*
X135255Y134540D03*
X135255Y124540D03*
X126920Y421640D03*
X116920Y421640D03*
X163910Y421640D03*
X173910Y421640D03*
X198755Y267415D03*
X198755Y277415D03*
X179705Y267415D03*
X179705Y277415D03*
X189230Y267415D03*
X189230Y277415D03*
X198755Y243920D03*
X198755Y253920D03*
X179705Y243920D03*
X179705Y253920D03*
X189230Y243920D03*
X189230Y253920D03*
X165100Y443150D03*
X165100Y433150D03*
X127000Y443150D03*
X127000Y433150D03*
D21*
X178110Y439230D02*
X185110Y439230D01*
X185110Y432230D01*
X178110Y432230D01*
X178110Y439230D01*
X178110Y435080D02*
X185110Y435080D01*
X185110Y437930D02*
X178110Y437930D01*
X178110Y456770D02*
X185110Y456770D01*
X185110Y449770D01*
X178110Y449770D01*
X178110Y456770D01*
X178110Y452620D02*
X185110Y452620D01*
X185110Y455470D02*
X178110Y455470D01*
X113990Y439230D02*
X106990Y439230D01*
X113990Y439230D02*
X113990Y432230D01*
X106990Y432230D01*
X106990Y439230D01*
X106990Y435080D02*
X113990Y435080D01*
X113990Y437930D02*
X106990Y437930D01*
X106990Y456770D02*
X113990Y456770D01*
X113990Y449770D01*
X106990Y449770D01*
X106990Y456770D01*
X106990Y452620D02*
X113990Y452620D01*
X113990Y455470D02*
X106990Y455470D01*
D15*
X87630Y173910D03*
X87630Y163910D03*
X106680Y173910D03*
X106680Y163910D03*
X97155Y173910D03*
X97155Y163910D03*
X116205Y173910D03*
X116205Y163910D03*
X135255Y173910D03*
X135255Y163910D03*
X125730Y173910D03*
X125730Y163910D03*
X66120Y183515D03*
X76120Y183515D03*
X76120Y193040D03*
X66120Y193040D03*
X53975Y291545D03*
X53975Y301545D03*
X63500Y281860D03*
X63500Y271860D03*
X82550Y281860D03*
X82550Y271860D03*
X73025Y281860D03*
X73025Y271860D03*
X76120Y202565D03*
X66120Y202565D03*
X76120Y212090D03*
X66120Y212090D03*
X76120Y231140D03*
X66120Y231140D03*
X76120Y221615D03*
X66120Y221615D03*
D22*
X51420Y249860D03*
X51420Y240360D03*
X65420Y240360D03*
X65420Y249860D03*
D15*
X50720Y260350D03*
X40720Y260350D03*
X40640Y250110D03*
X40640Y240110D03*
X76280Y250190D03*
X86280Y250190D03*
X82550Y291545D03*
X82550Y301545D03*
X73025Y291545D03*
X73025Y301545D03*
X63500Y291545D03*
X63500Y301545D03*
X114300Y273130D03*
X114300Y283130D03*
X114300Y303610D03*
X114300Y313610D03*
X124380Y293370D03*
X114380Y293370D03*
D23*
X114300Y322072D03*
X114300Y330708D03*
D15*
X71120Y391875D03*
X71120Y401875D03*
X85090Y401875D03*
X85090Y391875D03*
X93345Y318215D03*
X93345Y328215D03*
X93345Y298530D03*
X93345Y308530D03*
D24*
X78232Y356870D03*
X86868Y356870D03*
D15*
X69215Y358695D03*
X69215Y348695D03*
X59690Y358695D03*
X59690Y348695D03*
D24*
X94107Y379095D03*
X102743Y379095D03*
D23*
X116840Y377952D03*
X116840Y386588D03*
D24*
X163068Y279400D03*
X154432Y279400D03*
X163068Y330200D03*
X154432Y330200D03*
D25*
X154305Y300800D03*
X154305Y308800D03*
D15*
X97235Y399415D03*
X107235Y399415D03*
X83185Y379015D03*
X83185Y369015D03*
X73025Y379015D03*
X73025Y369015D03*
X62865Y379015D03*
X62865Y369015D03*
X137795Y342345D03*
X137795Y352345D03*
X137795Y366475D03*
X137795Y376475D03*
X50165Y358695D03*
X50165Y348695D03*
X198755Y233600D03*
X198755Y223600D03*
X179705Y233600D03*
X179705Y223600D03*
X189230Y233600D03*
X189230Y223600D03*
X109300Y76200D03*
X119300Y76200D03*
D21*
X119570Y51125D02*
X119570Y44125D01*
X119570Y51125D02*
X126570Y51125D01*
X126570Y44125D01*
X119570Y44125D01*
X119570Y46975D02*
X126570Y46975D01*
X126570Y49825D02*
X119570Y49825D01*
X102030Y51125D02*
X102030Y44125D01*
X102030Y51125D02*
X109030Y51125D01*
X109030Y44125D01*
X102030Y44125D01*
X102030Y46975D02*
X109030Y46975D01*
X109030Y49825D02*
X102030Y49825D01*
D26*
X152400Y111700D03*
X165100Y111700D03*
X177800Y111700D03*
X190500Y111700D03*
X190500Y167700D03*
X177800Y167700D03*
X165100Y167700D03*
X152400Y167700D03*
D27*
X25099Y85700D03*
X25099Y76200D03*
X25099Y66700D03*
X51101Y66700D03*
X51101Y85700D03*
X25099Y130150D03*
X25099Y120650D03*
X25099Y111150D03*
X51101Y111150D03*
X51101Y130150D03*
D15*
X47545Y99060D03*
X37545Y99060D03*
X66675Y85645D03*
X66675Y75645D03*
X70485Y449500D03*
X70485Y439500D03*
D21*
X85400Y439230D02*
X92400Y439230D01*
X92400Y432230D01*
X85400Y432230D01*
X85400Y439230D01*
X85400Y435080D02*
X92400Y435080D01*
X92400Y437930D02*
X85400Y437930D01*
X85400Y456770D02*
X92400Y456770D01*
X92400Y449770D01*
X85400Y449770D01*
X85400Y456770D01*
X85400Y452620D02*
X92400Y452620D01*
X92400Y455470D02*
X85400Y455470D01*
D28*
X59245Y413360D03*
X51245Y413360D03*
X51245Y394360D03*
X59245Y394360D03*
D15*
X66675Y130255D03*
X66675Y140255D03*
X21510Y142875D03*
X11510Y142875D03*
D29*
X33655Y179000D03*
X33655Y202000D03*
D30*
X52680Y164940D03*
X33680Y164940D03*
X43180Y143940D03*
D15*
X66675Y150575D03*
X66675Y160575D03*
D27*
X47324Y337795D03*
X47324Y328295D03*
X47324Y318795D03*
X73326Y318795D03*
X73326Y337795D03*
D15*
X39370Y397590D03*
X39370Y407590D03*
X137795Y327580D03*
X137795Y317580D03*
X137795Y293450D03*
X137795Y303450D03*
D10*
X338260Y193330D03*
X343260Y193330D03*
X348260Y193330D03*
X353260Y193330D03*
X358260Y193330D03*
X363260Y193330D03*
X368260Y193330D03*
X373260Y193330D03*
X378260Y193330D03*
X383260Y193330D03*
X388260Y193330D03*
X393260Y193330D03*
D11*
X399760Y199830D03*
X399760Y204830D03*
X399760Y209830D03*
X399760Y214830D03*
X399760Y219830D03*
X399760Y224830D03*
X399760Y229830D03*
X399760Y234830D03*
X399760Y239830D03*
X399760Y244830D03*
X399760Y249830D03*
X399760Y254830D03*
D10*
X393260Y261330D03*
X388260Y261330D03*
X383260Y261330D03*
X378260Y261330D03*
X373260Y261330D03*
X368260Y261330D03*
X363260Y261330D03*
X358260Y261330D03*
X353260Y261330D03*
X348260Y261330D03*
X343260Y261330D03*
X338260Y261330D03*
D11*
X331760Y254830D03*
X331760Y249830D03*
X331760Y244830D03*
X331760Y239830D03*
X331760Y234830D03*
X331760Y229830D03*
X331760Y224830D03*
X331760Y219830D03*
X331760Y214830D03*
X331760Y209830D03*
X331760Y204830D03*
X331760Y199830D03*
D12*
X350760Y214830D03*
X350760Y239830D03*
X380760Y239830D03*
X380760Y214830D03*
X365760Y214830D03*
X365760Y239830D03*
D13*
X337940Y339830D03*
X342940Y339830D03*
X347940Y339830D03*
X352940Y339830D03*
D14*
X359940Y346830D03*
X359940Y351830D03*
X359940Y356830D03*
X359940Y361830D03*
D13*
X352940Y368830D03*
X347940Y368830D03*
X342940Y368830D03*
X337940Y368830D03*
D14*
X330940Y361830D03*
X330940Y356830D03*
X330940Y351830D03*
X330940Y346830D03*
D15*
X340440Y349330D03*
X340440Y359330D03*
X350440Y359330D03*
X350440Y349330D03*
D16*
X373230Y399210D03*
X379730Y399210D03*
X386230Y399210D03*
X386230Y421210D03*
X379730Y421210D03*
X373230Y421210D03*
D15*
X360600Y399415D03*
X350600Y399415D03*
X387985Y386000D03*
X387985Y376000D03*
X379730Y443150D03*
X379730Y433150D03*
D17*
X393480Y469900D03*
X365980Y469900D03*
D18*
X379730Y454650D03*
X379730Y485150D03*
D15*
X349885Y112315D03*
X349885Y102315D03*
D19*
X339085Y113815D03*
X339085Y100815D03*
D20*
X322580Y114046D03*
X322580Y107315D03*
X322580Y100584D03*
D15*
X309880Y114220D03*
X309880Y104220D03*
X278050Y53975D03*
X268050Y53975D03*
X245825Y99060D03*
X255825Y99060D03*
X356155Y128905D03*
X346155Y128905D03*
X356155Y149225D03*
X346155Y149225D03*
X356155Y139065D03*
X346155Y139065D03*
X368935Y144225D03*
X368935Y154225D03*
X368935Y134540D03*
X368935Y124540D03*
X360600Y421640D03*
X350600Y421640D03*
X397590Y421640D03*
X407590Y421640D03*
X432435Y267415D03*
X432435Y277415D03*
X413385Y267415D03*
X413385Y277415D03*
X422910Y267415D03*
X422910Y277415D03*
X432435Y243920D03*
X432435Y253920D03*
X413385Y243920D03*
X413385Y253920D03*
X422910Y243920D03*
X422910Y253920D03*
X398780Y443150D03*
X398780Y433150D03*
X360680Y443150D03*
X360680Y433150D03*
D21*
X411790Y439230D02*
X418790Y439230D01*
X418790Y432230D01*
X411790Y432230D01*
X411790Y439230D01*
X411790Y435080D02*
X418790Y435080D01*
X418790Y437930D02*
X411790Y437930D01*
X411790Y456770D02*
X418790Y456770D01*
X418790Y449770D01*
X411790Y449770D01*
X411790Y456770D01*
X411790Y452620D02*
X418790Y452620D01*
X418790Y455470D02*
X411790Y455470D01*
X347670Y439230D02*
X340670Y439230D01*
X347670Y439230D02*
X347670Y432230D01*
X340670Y432230D01*
X340670Y439230D01*
X340670Y435080D02*
X347670Y435080D01*
X347670Y437930D02*
X340670Y437930D01*
X340670Y456770D02*
X347670Y456770D01*
X347670Y449770D01*
X340670Y449770D01*
X340670Y456770D01*
X340670Y452620D02*
X347670Y452620D01*
X347670Y455470D02*
X340670Y455470D01*
D15*
X321310Y173910D03*
X321310Y163910D03*
X340360Y173910D03*
X340360Y163910D03*
X330835Y173910D03*
X330835Y163910D03*
X349885Y173910D03*
X349885Y163910D03*
X368935Y173910D03*
X368935Y163910D03*
X359410Y173910D03*
X359410Y163910D03*
X299800Y183515D03*
X309800Y183515D03*
X309800Y193040D03*
X299800Y193040D03*
X287655Y291545D03*
X287655Y301545D03*
X297180Y281860D03*
X297180Y271860D03*
X316230Y281860D03*
X316230Y271860D03*
X306705Y281860D03*
X306705Y271860D03*
X309800Y202565D03*
X299800Y202565D03*
X309800Y212090D03*
X299800Y212090D03*
X309800Y231140D03*
X299800Y231140D03*
X309800Y221615D03*
X299800Y221615D03*
D22*
X285100Y249860D03*
X285100Y240360D03*
X299100Y240360D03*
X299100Y249860D03*
D15*
X284400Y260350D03*
X274400Y260350D03*
X274320Y250110D03*
X274320Y240110D03*
X309960Y250190D03*
X319960Y250190D03*
X316230Y291545D03*
X316230Y301545D03*
X306705Y291545D03*
X306705Y301545D03*
X297180Y291545D03*
X297180Y301545D03*
X347980Y273130D03*
X347980Y283130D03*
X347980Y303610D03*
X347980Y313610D03*
X358060Y293370D03*
X348060Y293370D03*
D23*
X347980Y322072D03*
X347980Y330708D03*
D15*
X304800Y391875D03*
X304800Y401875D03*
X318770Y401875D03*
X318770Y391875D03*
X327025Y318215D03*
X327025Y328215D03*
X327025Y298530D03*
X327025Y308530D03*
D24*
X311912Y356870D03*
X320548Y356870D03*
D15*
X302895Y358695D03*
X302895Y348695D03*
X293370Y358695D03*
X293370Y348695D03*
D24*
X327787Y379095D03*
X336423Y379095D03*
D23*
X350520Y377952D03*
X350520Y386588D03*
D24*
X396748Y279400D03*
X388112Y279400D03*
X396748Y330200D03*
X388112Y330200D03*
D25*
X387985Y300800D03*
X387985Y308800D03*
D15*
X330915Y399415D03*
X340915Y399415D03*
X316865Y379015D03*
X316865Y369015D03*
X306705Y379015D03*
X306705Y369015D03*
X296545Y379015D03*
X296545Y369015D03*
X371475Y342345D03*
X371475Y352345D03*
X371475Y366475D03*
X371475Y376475D03*
X283845Y358695D03*
X283845Y348695D03*
X432435Y233600D03*
X432435Y223600D03*
X413385Y233600D03*
X413385Y223600D03*
X422910Y233600D03*
X422910Y223600D03*
X342980Y76200D03*
X352980Y76200D03*
D21*
X353250Y51125D02*
X353250Y44125D01*
X353250Y51125D02*
X360250Y51125D01*
X360250Y44125D01*
X353250Y44125D01*
X353250Y46975D02*
X360250Y46975D01*
X360250Y49825D02*
X353250Y49825D01*
X335710Y51125D02*
X335710Y44125D01*
X335710Y51125D02*
X342710Y51125D01*
X342710Y44125D01*
X335710Y44125D01*
X335710Y46975D02*
X342710Y46975D01*
X342710Y49825D02*
X335710Y49825D01*
D26*
X386080Y111700D03*
X398780Y111700D03*
X411480Y111700D03*
X424180Y111700D03*
X424180Y167700D03*
X411480Y167700D03*
X398780Y167700D03*
X386080Y167700D03*
D27*
X258779Y85700D03*
X258779Y76200D03*
X258779Y66700D03*
X284781Y66700D03*
X284781Y85700D03*
X258779Y130150D03*
X258779Y120650D03*
X258779Y111150D03*
X284781Y111150D03*
X284781Y130150D03*
D15*
X281225Y99060D03*
X271225Y99060D03*
X300355Y85645D03*
X300355Y75645D03*
X304165Y449500D03*
X304165Y439500D03*
D21*
X319080Y439230D02*
X326080Y439230D01*
X326080Y432230D01*
X319080Y432230D01*
X319080Y439230D01*
X319080Y435080D02*
X326080Y435080D01*
X326080Y437930D02*
X319080Y437930D01*
X319080Y456770D02*
X326080Y456770D01*
X326080Y449770D01*
X319080Y449770D01*
X319080Y456770D01*
X319080Y452620D02*
X326080Y452620D01*
X326080Y455470D02*
X319080Y455470D01*
D28*
X292925Y413360D03*
X284925Y413360D03*
X284925Y394360D03*
X292925Y394360D03*
D15*
X300355Y130255D03*
X300355Y140255D03*
X255190Y142875D03*
X245190Y142875D03*
D29*
X267335Y179000D03*
X267335Y202000D03*
D30*
X286360Y164940D03*
X267360Y164940D03*
X276860Y143940D03*
D15*
X300355Y150575D03*
X300355Y160575D03*
D27*
X281004Y337795D03*
X281004Y328295D03*
X281004Y318795D03*
X307006Y318795D03*
X307006Y337795D03*
D15*
X273050Y397590D03*
X273050Y407590D03*
X371475Y327580D03*
X371475Y317580D03*
X371475Y293450D03*
X371475Y303450D03*
D10*
X571940Y193330D03*
X576940Y193330D03*
X581940Y193330D03*
X586940Y193330D03*
X591940Y193330D03*
X596940Y193330D03*
X601940Y193330D03*
X606940Y193330D03*
X611940Y193330D03*
X616940Y193330D03*
X621940Y193330D03*
X626940Y193330D03*
D11*
X633440Y199830D03*
X633440Y204830D03*
X633440Y209830D03*
X633440Y214830D03*
X633440Y219830D03*
X633440Y224830D03*
X633440Y229830D03*
X633440Y234830D03*
X633440Y239830D03*
X633440Y244830D03*
X633440Y249830D03*
X633440Y254830D03*
D10*
X626940Y261330D03*
X621940Y261330D03*
X616940Y261330D03*
X611940Y261330D03*
X606940Y261330D03*
X601940Y261330D03*
X596940Y261330D03*
X591940Y261330D03*
X586940Y261330D03*
X581940Y261330D03*
X576940Y261330D03*
X571940Y261330D03*
D11*
X565440Y254830D03*
X565440Y249830D03*
X565440Y244830D03*
X565440Y239830D03*
X565440Y234830D03*
X565440Y229830D03*
X565440Y224830D03*
X565440Y219830D03*
X565440Y214830D03*
X565440Y209830D03*
X565440Y204830D03*
X565440Y199830D03*
D12*
X584440Y214830D03*
X584440Y239830D03*
X614440Y239830D03*
X614440Y214830D03*
X599440Y214830D03*
X599440Y239830D03*
D13*
X571620Y339830D03*
X576620Y339830D03*
X581620Y339830D03*
X586620Y339830D03*
D14*
X593620Y346830D03*
X593620Y351830D03*
X593620Y356830D03*
X593620Y361830D03*
D13*
X586620Y368830D03*
X581620Y368830D03*
X576620Y368830D03*
X571620Y368830D03*
D14*
X564620Y361830D03*
X564620Y356830D03*
X564620Y351830D03*
X564620Y346830D03*
D15*
X574120Y349330D03*
X574120Y359330D03*
X584120Y359330D03*
X584120Y349330D03*
D16*
X606910Y399210D03*
X613410Y399210D03*
X619910Y399210D03*
X619910Y421210D03*
X613410Y421210D03*
X606910Y421210D03*
D15*
X594280Y399415D03*
X584280Y399415D03*
X621665Y386000D03*
X621665Y376000D03*
X613410Y443150D03*
X613410Y433150D03*
D17*
X627160Y469900D03*
X599660Y469900D03*
D18*
X613410Y454650D03*
X613410Y485150D03*
D15*
X583565Y112315D03*
X583565Y102315D03*
D19*
X572765Y113815D03*
X572765Y100815D03*
D20*
X556260Y114046D03*
X556260Y107315D03*
X556260Y100584D03*
D15*
X543560Y114220D03*
X543560Y104220D03*
X511730Y53975D03*
X501730Y53975D03*
X479505Y99060D03*
X489505Y99060D03*
X589835Y128905D03*
X579835Y128905D03*
X589835Y149225D03*
X579835Y149225D03*
X589835Y139065D03*
X579835Y139065D03*
X602615Y144225D03*
X602615Y154225D03*
X602615Y134540D03*
X602615Y124540D03*
X594280Y421640D03*
X584280Y421640D03*
X631270Y421640D03*
X641270Y421640D03*
X666115Y267415D03*
X666115Y277415D03*
X647065Y267415D03*
X647065Y277415D03*
X656590Y267415D03*
X656590Y277415D03*
X666115Y243920D03*
X666115Y253920D03*
X647065Y243920D03*
X647065Y253920D03*
X656590Y243920D03*
X656590Y253920D03*
X632460Y443150D03*
X632460Y433150D03*
X594360Y443150D03*
X594360Y433150D03*
D21*
X645470Y439230D02*
X652470Y439230D01*
X652470Y432230D01*
X645470Y432230D01*
X645470Y439230D01*
X645470Y435080D02*
X652470Y435080D01*
X652470Y437930D02*
X645470Y437930D01*
X645470Y456770D02*
X652470Y456770D01*
X652470Y449770D01*
X645470Y449770D01*
X645470Y456770D01*
X645470Y452620D02*
X652470Y452620D01*
X652470Y455470D02*
X645470Y455470D01*
X581350Y439230D02*
X574350Y439230D01*
X581350Y439230D02*
X581350Y432230D01*
X574350Y432230D01*
X574350Y439230D01*
X574350Y435080D02*
X581350Y435080D01*
X581350Y437930D02*
X574350Y437930D01*
X574350Y456770D02*
X581350Y456770D01*
X581350Y449770D01*
X574350Y449770D01*
X574350Y456770D01*
X574350Y452620D02*
X581350Y452620D01*
X581350Y455470D02*
X574350Y455470D01*
D15*
X554990Y173910D03*
X554990Y163910D03*
X574040Y173910D03*
X574040Y163910D03*
X564515Y173910D03*
X564515Y163910D03*
X583565Y173910D03*
X583565Y163910D03*
X602615Y173910D03*
X602615Y163910D03*
X593090Y173910D03*
X593090Y163910D03*
X533480Y183515D03*
X543480Y183515D03*
X543480Y193040D03*
X533480Y193040D03*
X521335Y291545D03*
X521335Y301545D03*
X530860Y281860D03*
X530860Y271860D03*
X549910Y281860D03*
X549910Y271860D03*
X540385Y281860D03*
X540385Y271860D03*
X543480Y202565D03*
X533480Y202565D03*
X543480Y212090D03*
X533480Y212090D03*
X543480Y231140D03*
X533480Y231140D03*
X543480Y221615D03*
X533480Y221615D03*
D22*
X518780Y249860D03*
X518780Y240360D03*
X532780Y240360D03*
X532780Y249860D03*
D15*
X518080Y260350D03*
X508080Y260350D03*
X508000Y250110D03*
X508000Y240110D03*
X543640Y250190D03*
X553640Y250190D03*
X549910Y291545D03*
X549910Y301545D03*
X540385Y291545D03*
X540385Y301545D03*
X530860Y291545D03*
X530860Y301545D03*
X581660Y273130D03*
X581660Y283130D03*
X581660Y303610D03*
X581660Y313610D03*
X591740Y293370D03*
X581740Y293370D03*
D23*
X581660Y322072D03*
X581660Y330708D03*
D15*
X538480Y391875D03*
X538480Y401875D03*
X552450Y401875D03*
X552450Y391875D03*
X560705Y318215D03*
X560705Y328215D03*
X560705Y298530D03*
X560705Y308530D03*
D24*
X545592Y356870D03*
X554228Y356870D03*
D15*
X536575Y358695D03*
X536575Y348695D03*
X527050Y358695D03*
X527050Y348695D03*
D24*
X561467Y379095D03*
X570103Y379095D03*
D23*
X584200Y377952D03*
X584200Y386588D03*
D24*
X630428Y279400D03*
X621792Y279400D03*
X630428Y330200D03*
X621792Y330200D03*
D25*
X621665Y300800D03*
X621665Y308800D03*
D15*
X564595Y399415D03*
X574595Y399415D03*
X550545Y379015D03*
X550545Y369015D03*
X540385Y379015D03*
X540385Y369015D03*
X530225Y379015D03*
X530225Y369015D03*
X605155Y342345D03*
X605155Y352345D03*
X605155Y366475D03*
X605155Y376475D03*
X517525Y358695D03*
X517525Y348695D03*
X666115Y233600D03*
X666115Y223600D03*
X647065Y233600D03*
X647065Y223600D03*
X656590Y233600D03*
X656590Y223600D03*
X576660Y76200D03*
X586660Y76200D03*
D21*
X586930Y51125D02*
X586930Y44125D01*
X586930Y51125D02*
X593930Y51125D01*
X593930Y44125D01*
X586930Y44125D01*
X586930Y46975D02*
X593930Y46975D01*
X593930Y49825D02*
X586930Y49825D01*
X569390Y51125D02*
X569390Y44125D01*
X569390Y51125D02*
X576390Y51125D01*
X576390Y44125D01*
X569390Y44125D01*
X569390Y46975D02*
X576390Y46975D01*
X576390Y49825D02*
X569390Y49825D01*
D26*
X619760Y111700D03*
X632460Y111700D03*
X645160Y111700D03*
X657860Y111700D03*
X657860Y167700D03*
X645160Y167700D03*
X632460Y167700D03*
X619760Y167700D03*
D27*
X492459Y85700D03*
X492459Y76200D03*
X492459Y66700D03*
X518461Y66700D03*
X518461Y85700D03*
X492459Y130150D03*
X492459Y120650D03*
X492459Y111150D03*
X518461Y111150D03*
X518461Y130150D03*
D15*
X514905Y99060D03*
X504905Y99060D03*
X534035Y85645D03*
X534035Y75645D03*
X537845Y449500D03*
X537845Y439500D03*
D21*
X552760Y439230D02*
X559760Y439230D01*
X559760Y432230D01*
X552760Y432230D01*
X552760Y439230D01*
X552760Y435080D02*
X559760Y435080D01*
X559760Y437930D02*
X552760Y437930D01*
X552760Y456770D02*
X559760Y456770D01*
X559760Y449770D01*
X552760Y449770D01*
X552760Y456770D01*
X552760Y452620D02*
X559760Y452620D01*
X559760Y455470D02*
X552760Y455470D01*
D28*
X526605Y413360D03*
X518605Y413360D03*
X518605Y394360D03*
X526605Y394360D03*
D15*
X534035Y130255D03*
X534035Y140255D03*
X488870Y142875D03*
X478870Y142875D03*
D29*
X501015Y179000D03*
X501015Y202000D03*
D30*
X520040Y164940D03*
X501040Y164940D03*
X510540Y143940D03*
D15*
X534035Y150575D03*
X534035Y160575D03*
D27*
X514684Y337795D03*
X514684Y328295D03*
X514684Y318795D03*
X540686Y318795D03*
X540686Y337795D03*
D15*
X506730Y397590D03*
X506730Y407590D03*
X605155Y327580D03*
X605155Y317580D03*
X605155Y293450D03*
X605155Y303450D03*
D10*
X805620Y193330D03*
X810620Y193330D03*
X815620Y193330D03*
X820620Y193330D03*
X825620Y193330D03*
X830620Y193330D03*
X835620Y193330D03*
X840620Y193330D03*
X845620Y193330D03*
X850620Y193330D03*
X855620Y193330D03*
X860620Y193330D03*
D11*
X867120Y199830D03*
X867120Y204830D03*
X867120Y209830D03*
X867120Y214830D03*
X867120Y219830D03*
X867120Y224830D03*
X867120Y229830D03*
X867120Y234830D03*
X867120Y239830D03*
X867120Y244830D03*
X867120Y249830D03*
X867120Y254830D03*
D10*
X860620Y261330D03*
X855620Y261330D03*
X850620Y261330D03*
X845620Y261330D03*
X840620Y261330D03*
X835620Y261330D03*
X830620Y261330D03*
X825620Y261330D03*
X820620Y261330D03*
X815620Y261330D03*
X810620Y261330D03*
X805620Y261330D03*
D11*
X799120Y254830D03*
X799120Y249830D03*
X799120Y244830D03*
X799120Y239830D03*
X799120Y234830D03*
X799120Y229830D03*
X799120Y224830D03*
X799120Y219830D03*
X799120Y214830D03*
X799120Y209830D03*
X799120Y204830D03*
X799120Y199830D03*
D12*
X818120Y214830D03*
X818120Y239830D03*
X848120Y239830D03*
X848120Y214830D03*
X833120Y214830D03*
X833120Y239830D03*
D13*
X805300Y339830D03*
X810300Y339830D03*
X815300Y339830D03*
X820300Y339830D03*
D14*
X827300Y346830D03*
X827300Y351830D03*
X827300Y356830D03*
X827300Y361830D03*
D13*
X820300Y368830D03*
X815300Y368830D03*
X810300Y368830D03*
X805300Y368830D03*
D14*
X798300Y361830D03*
X798300Y356830D03*
X798300Y351830D03*
X798300Y346830D03*
D15*
X807800Y349330D03*
X807800Y359330D03*
X817800Y359330D03*
X817800Y349330D03*
D16*
X840590Y399210D03*
X847090Y399210D03*
X853590Y399210D03*
X853590Y421210D03*
X847090Y421210D03*
X840590Y421210D03*
D15*
X827960Y399415D03*
X817960Y399415D03*
X855345Y386000D03*
X855345Y376000D03*
X847090Y443150D03*
X847090Y433150D03*
D17*
X860840Y469900D03*
X833340Y469900D03*
D18*
X847090Y454650D03*
X847090Y485150D03*
D15*
X817245Y112315D03*
X817245Y102315D03*
D19*
X806445Y113815D03*
X806445Y100815D03*
D20*
X789940Y114046D03*
X789940Y107315D03*
X789940Y100584D03*
D15*
X777240Y114220D03*
X777240Y104220D03*
X745410Y53975D03*
X735410Y53975D03*
X713185Y99060D03*
X723185Y99060D03*
X823515Y128905D03*
X813515Y128905D03*
X823515Y149225D03*
X813515Y149225D03*
X823515Y139065D03*
X813515Y139065D03*
X836295Y144225D03*
X836295Y154225D03*
X836295Y134540D03*
X836295Y124540D03*
X827960Y421640D03*
X817960Y421640D03*
X864950Y421640D03*
X874950Y421640D03*
X899795Y267415D03*
X899795Y277415D03*
X880745Y267415D03*
X880745Y277415D03*
X890270Y267415D03*
X890270Y277415D03*
X899795Y243920D03*
X899795Y253920D03*
X880745Y243920D03*
X880745Y253920D03*
X890270Y243920D03*
X890270Y253920D03*
X866140Y443150D03*
X866140Y433150D03*
X828040Y443150D03*
X828040Y433150D03*
D21*
X879150Y439230D02*
X886150Y439230D01*
X886150Y432230D01*
X879150Y432230D01*
X879150Y439230D01*
X879150Y435080D02*
X886150Y435080D01*
X886150Y437930D02*
X879150Y437930D01*
X879150Y456770D02*
X886150Y456770D01*
X886150Y449770D01*
X879150Y449770D01*
X879150Y456770D01*
X879150Y452620D02*
X886150Y452620D01*
X886150Y455470D02*
X879150Y455470D01*
X815030Y439230D02*
X808030Y439230D01*
X815030Y439230D02*
X815030Y432230D01*
X808030Y432230D01*
X808030Y439230D01*
X808030Y435080D02*
X815030Y435080D01*
X815030Y437930D02*
X808030Y437930D01*
X808030Y456770D02*
X815030Y456770D01*
X815030Y449770D01*
X808030Y449770D01*
X808030Y456770D01*
X808030Y452620D02*
X815030Y452620D01*
X815030Y455470D02*
X808030Y455470D01*
D15*
X788670Y173910D03*
X788670Y163910D03*
X807720Y173910D03*
X807720Y163910D03*
X798195Y173910D03*
X798195Y163910D03*
X817245Y173910D03*
X817245Y163910D03*
X836295Y173910D03*
X836295Y163910D03*
X826770Y173910D03*
X826770Y163910D03*
X767160Y183515D03*
X777160Y183515D03*
X777160Y193040D03*
X767160Y193040D03*
X755015Y291545D03*
X755015Y301545D03*
X764540Y281860D03*
X764540Y271860D03*
X783590Y281860D03*
X783590Y271860D03*
X774065Y281860D03*
X774065Y271860D03*
X777160Y202565D03*
X767160Y202565D03*
X777160Y212090D03*
X767160Y212090D03*
X777160Y231140D03*
X767160Y231140D03*
X777160Y221615D03*
X767160Y221615D03*
D22*
X752460Y249860D03*
X752460Y240360D03*
X766460Y240360D03*
X766460Y249860D03*
D15*
X751760Y260350D03*
X741760Y260350D03*
X741680Y250110D03*
X741680Y240110D03*
X777320Y250190D03*
X787320Y250190D03*
X783590Y291545D03*
X783590Y301545D03*
X774065Y291545D03*
X774065Y301545D03*
X764540Y291545D03*
X764540Y301545D03*
X815340Y273130D03*
X815340Y283130D03*
X815340Y303610D03*
X815340Y313610D03*
X825420Y293370D03*
X815420Y293370D03*
D23*
X815340Y322072D03*
X815340Y330708D03*
D15*
X772160Y391875D03*
X772160Y401875D03*
X786130Y401875D03*
X786130Y391875D03*
X794385Y318215D03*
X794385Y328215D03*
X794385Y298530D03*
X794385Y308530D03*
D24*
X779272Y356870D03*
X787908Y356870D03*
D15*
X770255Y358695D03*
X770255Y348695D03*
X760730Y358695D03*
X760730Y348695D03*
D24*
X795147Y379095D03*
X803783Y379095D03*
D23*
X817880Y377952D03*
X817880Y386588D03*
D24*
X864108Y279400D03*
X855472Y279400D03*
X864108Y330200D03*
X855472Y330200D03*
D25*
X855345Y300800D03*
X855345Y308800D03*
D15*
X798275Y399415D03*
X808275Y399415D03*
X784225Y379015D03*
X784225Y369015D03*
X774065Y379015D03*
X774065Y369015D03*
X763905Y379015D03*
X763905Y369015D03*
X838835Y342345D03*
X838835Y352345D03*
X838835Y366475D03*
X838835Y376475D03*
X751205Y358695D03*
X751205Y348695D03*
X899795Y233600D03*
X899795Y223600D03*
X880745Y233600D03*
X880745Y223600D03*
X890270Y233600D03*
X890270Y223600D03*
X810340Y76200D03*
X820340Y76200D03*
D21*
X820610Y51125D02*
X820610Y44125D01*
X820610Y51125D02*
X827610Y51125D01*
X827610Y44125D01*
X820610Y44125D01*
X820610Y46975D02*
X827610Y46975D01*
X827610Y49825D02*
X820610Y49825D01*
X803070Y51125D02*
X803070Y44125D01*
X803070Y51125D02*
X810070Y51125D01*
X810070Y44125D01*
X803070Y44125D01*
X803070Y46975D02*
X810070Y46975D01*
X810070Y49825D02*
X803070Y49825D01*
D26*
X853440Y111700D03*
X866140Y111700D03*
X878840Y111700D03*
X891540Y111700D03*
X891540Y167700D03*
X878840Y167700D03*
X866140Y167700D03*
X853440Y167700D03*
D27*
X726139Y85700D03*
X726139Y76200D03*
X726139Y66700D03*
X752141Y66700D03*
X752141Y85700D03*
X726139Y130150D03*
X726139Y120650D03*
X726139Y111150D03*
X752141Y111150D03*
X752141Y130150D03*
D15*
X748585Y99060D03*
X738585Y99060D03*
X767715Y85645D03*
X767715Y75645D03*
X771525Y449500D03*
X771525Y439500D03*
D21*
X786440Y439230D02*
X793440Y439230D01*
X793440Y432230D01*
X786440Y432230D01*
X786440Y439230D01*
X786440Y435080D02*
X793440Y435080D01*
X793440Y437930D02*
X786440Y437930D01*
X786440Y456770D02*
X793440Y456770D01*
X793440Y449770D01*
X786440Y449770D01*
X786440Y456770D01*
X786440Y452620D02*
X793440Y452620D01*
X793440Y455470D02*
X786440Y455470D01*
D28*
X760285Y413360D03*
X752285Y413360D03*
X752285Y394360D03*
X760285Y394360D03*
D15*
X767715Y130255D03*
X767715Y140255D03*
X722550Y142875D03*
X712550Y142875D03*
D29*
X734695Y179000D03*
X734695Y202000D03*
D30*
X753720Y164940D03*
X734720Y164940D03*
X744220Y143940D03*
D15*
X767715Y150575D03*
X767715Y160575D03*
D27*
X748364Y337795D03*
X748364Y328295D03*
X748364Y318795D03*
X774366Y318795D03*
X774366Y337795D03*
D15*
X740410Y397590D03*
X740410Y407590D03*
X838835Y327580D03*
X838835Y317580D03*
X838835Y293450D03*
X838835Y303450D03*
D10*
X104580Y706410D03*
X109580Y706410D03*
X114580Y706410D03*
X119580Y706410D03*
X124580Y706410D03*
X129580Y706410D03*
X134580Y706410D03*
X139580Y706410D03*
X144580Y706410D03*
X149580Y706410D03*
X154580Y706410D03*
X159580Y706410D03*
D11*
X166080Y712910D03*
X166080Y717910D03*
X166080Y722910D03*
X166080Y727910D03*
X166080Y732910D03*
X166080Y737910D03*
X166080Y742910D03*
X166080Y747910D03*
X166080Y752910D03*
X166080Y757910D03*
X166080Y762910D03*
X166080Y767910D03*
D10*
X159580Y774410D03*
X154580Y774410D03*
X149580Y774410D03*
X144580Y774410D03*
X139580Y774410D03*
X134580Y774410D03*
X129580Y774410D03*
X124580Y774410D03*
X119580Y774410D03*
X114580Y774410D03*
X109580Y774410D03*
X104580Y774410D03*
D11*
X98080Y767910D03*
X98080Y762910D03*
X98080Y757910D03*
X98080Y752910D03*
X98080Y747910D03*
X98080Y742910D03*
X98080Y737910D03*
X98080Y732910D03*
X98080Y727910D03*
X98080Y722910D03*
X98080Y717910D03*
X98080Y712910D03*
D12*
X117080Y727910D03*
X117080Y752910D03*
X147080Y752910D03*
X147080Y727910D03*
X132080Y727910D03*
X132080Y752910D03*
D13*
X104260Y852910D03*
X109260Y852910D03*
X114260Y852910D03*
X119260Y852910D03*
D14*
X126260Y859910D03*
X126260Y864910D03*
X126260Y869910D03*
X126260Y874910D03*
D13*
X119260Y881910D03*
X114260Y881910D03*
X109260Y881910D03*
X104260Y881910D03*
D14*
X97260Y874910D03*
X97260Y869910D03*
X97260Y864910D03*
X97260Y859910D03*
D15*
X106760Y862410D03*
X106760Y872410D03*
X116760Y872410D03*
X116760Y862410D03*
D16*
X139550Y912290D03*
X146050Y912290D03*
X152550Y912290D03*
X152550Y934290D03*
X146050Y934290D03*
X139550Y934290D03*
D15*
X126920Y912495D03*
X116920Y912495D03*
X154305Y899080D03*
X154305Y889080D03*
X146050Y956230D03*
X146050Y946230D03*
D17*
X159800Y982980D03*
X132300Y982980D03*
D18*
X146050Y967730D03*
X146050Y998230D03*
D15*
X116205Y625395D03*
X116205Y615395D03*
D19*
X105405Y626895D03*
X105405Y613895D03*
D20*
X88900Y627126D03*
X88900Y620395D03*
X88900Y613664D03*
D15*
X76200Y627300D03*
X76200Y617300D03*
X44370Y567055D03*
X34370Y567055D03*
X12145Y612140D03*
X22145Y612140D03*
X122475Y641985D03*
X112475Y641985D03*
X122475Y662305D03*
X112475Y662305D03*
X122475Y652145D03*
X112475Y652145D03*
X135255Y657305D03*
X135255Y667305D03*
X135255Y647620D03*
X135255Y637620D03*
X126920Y934720D03*
X116920Y934720D03*
X163910Y934720D03*
X173910Y934720D03*
X198755Y780495D03*
X198755Y790495D03*
X179705Y780495D03*
X179705Y790495D03*
X189230Y780495D03*
X189230Y790495D03*
X198755Y757000D03*
X198755Y767000D03*
X179705Y757000D03*
X179705Y767000D03*
X189230Y757000D03*
X189230Y767000D03*
X165100Y956230D03*
X165100Y946230D03*
X127000Y956230D03*
X127000Y946230D03*
D21*
X178110Y952310D02*
X185110Y952310D01*
X185110Y945310D01*
X178110Y945310D01*
X178110Y952310D01*
X178110Y948160D02*
X185110Y948160D01*
X185110Y951010D02*
X178110Y951010D01*
X178110Y969850D02*
X185110Y969850D01*
X185110Y962850D01*
X178110Y962850D01*
X178110Y969850D01*
X178110Y965700D02*
X185110Y965700D01*
X185110Y968550D02*
X178110Y968550D01*
X113990Y952310D02*
X106990Y952310D01*
X113990Y952310D02*
X113990Y945310D01*
X106990Y945310D01*
X106990Y952310D01*
X106990Y948160D02*
X113990Y948160D01*
X113990Y951010D02*
X106990Y951010D01*
X106990Y969850D02*
X113990Y969850D01*
X113990Y962850D01*
X106990Y962850D01*
X106990Y969850D01*
X106990Y965700D02*
X113990Y965700D01*
X113990Y968550D02*
X106990Y968550D01*
D15*
X87630Y686990D03*
X87630Y676990D03*
X106680Y686990D03*
X106680Y676990D03*
X97155Y686990D03*
X97155Y676990D03*
X116205Y686990D03*
X116205Y676990D03*
X135255Y686990D03*
X135255Y676990D03*
X125730Y686990D03*
X125730Y676990D03*
X66120Y696595D03*
X76120Y696595D03*
X76120Y706120D03*
X66120Y706120D03*
X53975Y804625D03*
X53975Y814625D03*
X63500Y794940D03*
X63500Y784940D03*
X82550Y794940D03*
X82550Y784940D03*
X73025Y794940D03*
X73025Y784940D03*
X76120Y715645D03*
X66120Y715645D03*
X76120Y725170D03*
X66120Y725170D03*
X76120Y744220D03*
X66120Y744220D03*
X76120Y734695D03*
X66120Y734695D03*
D22*
X51420Y762940D03*
X51420Y753440D03*
X65420Y753440D03*
X65420Y762940D03*
D15*
X50720Y773430D03*
X40720Y773430D03*
X40640Y763190D03*
X40640Y753190D03*
X76280Y763270D03*
X86280Y763270D03*
X82550Y804625D03*
X82550Y814625D03*
X73025Y804625D03*
X73025Y814625D03*
X63500Y804625D03*
X63500Y814625D03*
X114300Y786210D03*
X114300Y796210D03*
X114300Y816690D03*
X114300Y826690D03*
X124380Y806450D03*
X114380Y806450D03*
D23*
X114300Y835152D03*
X114300Y843788D03*
D15*
X71120Y904955D03*
X71120Y914955D03*
X85090Y914955D03*
X85090Y904955D03*
X93345Y831295D03*
X93345Y841295D03*
X93345Y811610D03*
X93345Y821610D03*
D24*
X78232Y869950D03*
X86868Y869950D03*
D15*
X69215Y871775D03*
X69215Y861775D03*
X59690Y871775D03*
X59690Y861775D03*
D24*
X94107Y892175D03*
X102743Y892175D03*
D23*
X116840Y891032D03*
X116840Y899668D03*
D24*
X163068Y792480D03*
X154432Y792480D03*
X163068Y843280D03*
X154432Y843280D03*
D25*
X154305Y813880D03*
X154305Y821880D03*
D15*
X97235Y912495D03*
X107235Y912495D03*
X83185Y892095D03*
X83185Y882095D03*
X73025Y892095D03*
X73025Y882095D03*
X62865Y892095D03*
X62865Y882095D03*
X137795Y855425D03*
X137795Y865425D03*
X137795Y879555D03*
X137795Y889555D03*
X50165Y871775D03*
X50165Y861775D03*
X198755Y746680D03*
X198755Y736680D03*
X179705Y746680D03*
X179705Y736680D03*
X189230Y746680D03*
X189230Y736680D03*
X109300Y589280D03*
X119300Y589280D03*
D21*
X119570Y564205D02*
X119570Y557205D01*
X119570Y564205D02*
X126570Y564205D01*
X126570Y557205D01*
X119570Y557205D01*
X119570Y560055D02*
X126570Y560055D01*
X126570Y562905D02*
X119570Y562905D01*
X102030Y564205D02*
X102030Y557205D01*
X102030Y564205D02*
X109030Y564205D01*
X109030Y557205D01*
X102030Y557205D01*
X102030Y560055D02*
X109030Y560055D01*
X109030Y562905D02*
X102030Y562905D01*
D26*
X152400Y624780D03*
X165100Y624780D03*
X177800Y624780D03*
X190500Y624780D03*
X190500Y680780D03*
X177800Y680780D03*
X165100Y680780D03*
X152400Y680780D03*
D27*
X25099Y598780D03*
X25099Y589280D03*
X25099Y579780D03*
X51101Y579780D03*
X51101Y598780D03*
X25099Y643230D03*
X25099Y633730D03*
X25099Y624230D03*
X51101Y624230D03*
X51101Y643230D03*
D15*
X47545Y612140D03*
X37545Y612140D03*
X66675Y598725D03*
X66675Y588725D03*
X70485Y962580D03*
X70485Y952580D03*
D21*
X85400Y952310D02*
X92400Y952310D01*
X92400Y945310D01*
X85400Y945310D01*
X85400Y952310D01*
X85400Y948160D02*
X92400Y948160D01*
X92400Y951010D02*
X85400Y951010D01*
X85400Y969850D02*
X92400Y969850D01*
X92400Y962850D01*
X85400Y962850D01*
X85400Y969850D01*
X85400Y965700D02*
X92400Y965700D01*
X92400Y968550D02*
X85400Y968550D01*
D28*
X59245Y926440D03*
X51245Y926440D03*
X51245Y907440D03*
X59245Y907440D03*
D15*
X66675Y643335D03*
X66675Y653335D03*
X21510Y655955D03*
X11510Y655955D03*
D29*
X33655Y692080D03*
X33655Y715080D03*
D30*
X52680Y678020D03*
X33680Y678020D03*
X43180Y657020D03*
D15*
X66675Y663655D03*
X66675Y673655D03*
D27*
X47324Y850875D03*
X47324Y841375D03*
X47324Y831875D03*
X73326Y831875D03*
X73326Y850875D03*
D15*
X39370Y910670D03*
X39370Y920670D03*
X137795Y840660D03*
X137795Y830660D03*
X137795Y806530D03*
X137795Y816530D03*
D10*
X338260Y706410D03*
X343260Y706410D03*
X348260Y706410D03*
X353260Y706410D03*
X358260Y706410D03*
X363260Y706410D03*
X368260Y706410D03*
X373260Y706410D03*
X378260Y706410D03*
X383260Y706410D03*
X388260Y706410D03*
X393260Y706410D03*
D11*
X399760Y712910D03*
X399760Y717910D03*
X399760Y722910D03*
X399760Y727910D03*
X399760Y732910D03*
X399760Y737910D03*
X399760Y742910D03*
X399760Y747910D03*
X399760Y752910D03*
X399760Y757910D03*
X399760Y762910D03*
X399760Y767910D03*
D10*
X393260Y774410D03*
X388260Y774410D03*
X383260Y774410D03*
X378260Y774410D03*
X373260Y774410D03*
X368260Y774410D03*
X363260Y774410D03*
X358260Y774410D03*
X353260Y774410D03*
X348260Y774410D03*
X343260Y774410D03*
X338260Y774410D03*
D11*
X331760Y767910D03*
X331760Y762910D03*
X331760Y757910D03*
X331760Y752910D03*
X331760Y747910D03*
X331760Y742910D03*
X331760Y737910D03*
X331760Y732910D03*
X331760Y727910D03*
X331760Y722910D03*
X331760Y717910D03*
X331760Y712910D03*
D12*
X350760Y727910D03*
X350760Y752910D03*
X380760Y752910D03*
X380760Y727910D03*
X365760Y727910D03*
X365760Y752910D03*
D13*
X337940Y852910D03*
X342940Y852910D03*
X347940Y852910D03*
X352940Y852910D03*
D14*
X359940Y859910D03*
X359940Y864910D03*
X359940Y869910D03*
X359940Y874910D03*
D13*
X352940Y881910D03*
X347940Y881910D03*
X342940Y881910D03*
X337940Y881910D03*
D14*
X330940Y874910D03*
X330940Y869910D03*
X330940Y864910D03*
X330940Y859910D03*
D15*
X340440Y862410D03*
X340440Y872410D03*
X350440Y872410D03*
X350440Y862410D03*
D16*
X373230Y912290D03*
X379730Y912290D03*
X386230Y912290D03*
X386230Y934290D03*
X379730Y934290D03*
X373230Y934290D03*
D15*
X360600Y912495D03*
X350600Y912495D03*
X387985Y899080D03*
X387985Y889080D03*
X379730Y956230D03*
X379730Y946230D03*
D17*
X393480Y982980D03*
X365980Y982980D03*
D18*
X379730Y967730D03*
X379730Y998230D03*
D15*
X349885Y625395D03*
X349885Y615395D03*
D19*
X339085Y626895D03*
X339085Y613895D03*
D20*
X322580Y627126D03*
X322580Y620395D03*
X322580Y613664D03*
D15*
X309880Y627300D03*
X309880Y617300D03*
X278050Y567055D03*
X268050Y567055D03*
X245825Y612140D03*
X255825Y612140D03*
X356155Y641985D03*
X346155Y641985D03*
X356155Y662305D03*
X346155Y662305D03*
X356155Y652145D03*
X346155Y652145D03*
X368935Y657305D03*
X368935Y667305D03*
X368935Y647620D03*
X368935Y637620D03*
X360600Y934720D03*
X350600Y934720D03*
X397590Y934720D03*
X407590Y934720D03*
X432435Y780495D03*
X432435Y790495D03*
X413385Y780495D03*
X413385Y790495D03*
X422910Y780495D03*
X422910Y790495D03*
X432435Y757000D03*
X432435Y767000D03*
X413385Y757000D03*
X413385Y767000D03*
X422910Y757000D03*
X422910Y767000D03*
X398780Y956230D03*
X398780Y946230D03*
X360680Y956230D03*
X360680Y946230D03*
D21*
X411790Y952310D02*
X418790Y952310D01*
X418790Y945310D01*
X411790Y945310D01*
X411790Y952310D01*
X411790Y948160D02*
X418790Y948160D01*
X418790Y951010D02*
X411790Y951010D01*
X411790Y969850D02*
X418790Y969850D01*
X418790Y962850D01*
X411790Y962850D01*
X411790Y969850D01*
X411790Y965700D02*
X418790Y965700D01*
X418790Y968550D02*
X411790Y968550D01*
X347670Y952310D02*
X340670Y952310D01*
X347670Y952310D02*
X347670Y945310D01*
X340670Y945310D01*
X340670Y952310D01*
X340670Y948160D02*
X347670Y948160D01*
X347670Y951010D02*
X340670Y951010D01*
X340670Y969850D02*
X347670Y969850D01*
X347670Y962850D01*
X340670Y962850D01*
X340670Y969850D01*
X340670Y965700D02*
X347670Y965700D01*
X347670Y968550D02*
X340670Y968550D01*
D15*
X321310Y686990D03*
X321310Y676990D03*
X340360Y686990D03*
X340360Y676990D03*
X330835Y686990D03*
X330835Y676990D03*
X349885Y686990D03*
X349885Y676990D03*
X368935Y686990D03*
X368935Y676990D03*
X359410Y686990D03*
X359410Y676990D03*
X299800Y696595D03*
X309800Y696595D03*
X309800Y706120D03*
X299800Y706120D03*
X287655Y804625D03*
X287655Y814625D03*
X297180Y794940D03*
X297180Y784940D03*
X316230Y794940D03*
X316230Y784940D03*
X306705Y794940D03*
X306705Y784940D03*
X309800Y715645D03*
X299800Y715645D03*
X309800Y725170D03*
X299800Y725170D03*
X309800Y744220D03*
X299800Y744220D03*
X309800Y734695D03*
X299800Y734695D03*
D22*
X285100Y762940D03*
X285100Y753440D03*
X299100Y753440D03*
X299100Y762940D03*
D15*
X284400Y773430D03*
X274400Y773430D03*
X274320Y763190D03*
X274320Y753190D03*
X309960Y763270D03*
X319960Y763270D03*
X316230Y804625D03*
X316230Y814625D03*
X306705Y804625D03*
X306705Y814625D03*
X297180Y804625D03*
X297180Y814625D03*
X347980Y786210D03*
X347980Y796210D03*
X347980Y816690D03*
X347980Y826690D03*
X358060Y806450D03*
X348060Y806450D03*
D23*
X347980Y835152D03*
X347980Y843788D03*
D15*
X304800Y904955D03*
X304800Y914955D03*
X318770Y914955D03*
X318770Y904955D03*
X327025Y831295D03*
X327025Y841295D03*
X327025Y811610D03*
X327025Y821610D03*
D24*
X311912Y869950D03*
X320548Y869950D03*
D15*
X302895Y871775D03*
X302895Y861775D03*
X293370Y871775D03*
X293370Y861775D03*
D24*
X327787Y892175D03*
X336423Y892175D03*
D23*
X350520Y891032D03*
X350520Y899668D03*
D24*
X396748Y792480D03*
X388112Y792480D03*
X396748Y843280D03*
X388112Y843280D03*
D25*
X387985Y813880D03*
X387985Y821880D03*
D15*
X330915Y912495D03*
X340915Y912495D03*
X316865Y892095D03*
X316865Y882095D03*
X306705Y892095D03*
X306705Y882095D03*
X296545Y892095D03*
X296545Y882095D03*
X371475Y855425D03*
X371475Y865425D03*
X371475Y879555D03*
X371475Y889555D03*
X283845Y871775D03*
X283845Y861775D03*
X432435Y746680D03*
X432435Y736680D03*
X413385Y746680D03*
X413385Y736680D03*
X422910Y746680D03*
X422910Y736680D03*
X342980Y589280D03*
X352980Y589280D03*
D21*
X353250Y564205D02*
X353250Y557205D01*
X353250Y564205D02*
X360250Y564205D01*
X360250Y557205D01*
X353250Y557205D01*
X353250Y560055D02*
X360250Y560055D01*
X360250Y562905D02*
X353250Y562905D01*
X335710Y564205D02*
X335710Y557205D01*
X335710Y564205D02*
X342710Y564205D01*
X342710Y557205D01*
X335710Y557205D01*
X335710Y560055D02*
X342710Y560055D01*
X342710Y562905D02*
X335710Y562905D01*
D26*
X386080Y624780D03*
X398780Y624780D03*
X411480Y624780D03*
X424180Y624780D03*
X424180Y680780D03*
X411480Y680780D03*
X398780Y680780D03*
X386080Y680780D03*
D27*
X258779Y598780D03*
X258779Y589280D03*
X258779Y579780D03*
X284781Y579780D03*
X284781Y598780D03*
X258779Y643230D03*
X258779Y633730D03*
X258779Y624230D03*
X284781Y624230D03*
X284781Y643230D03*
D15*
X281225Y612140D03*
X271225Y612140D03*
X300355Y598725D03*
X300355Y588725D03*
X304165Y962580D03*
X304165Y952580D03*
D21*
X319080Y952310D02*
X326080Y952310D01*
X326080Y945310D01*
X319080Y945310D01*
X319080Y952310D01*
X319080Y948160D02*
X326080Y948160D01*
X326080Y951010D02*
X319080Y951010D01*
X319080Y969850D02*
X326080Y969850D01*
X326080Y962850D01*
X319080Y962850D01*
X319080Y969850D01*
X319080Y965700D02*
X326080Y965700D01*
X326080Y968550D02*
X319080Y968550D01*
D28*
X292925Y926440D03*
X284925Y926440D03*
X284925Y907440D03*
X292925Y907440D03*
D15*
X300355Y643335D03*
X300355Y653335D03*
X255190Y655955D03*
X245190Y655955D03*
D29*
X267335Y692080D03*
X267335Y715080D03*
D30*
X286360Y678020D03*
X267360Y678020D03*
X276860Y657020D03*
D15*
X300355Y663655D03*
X300355Y673655D03*
D27*
X281004Y850875D03*
X281004Y841375D03*
X281004Y831875D03*
X307006Y831875D03*
X307006Y850875D03*
D15*
X273050Y910670D03*
X273050Y920670D03*
X371475Y840660D03*
X371475Y830660D03*
X371475Y806530D03*
X371475Y816530D03*
D10*
X571940Y706410D03*
X576940Y706410D03*
X581940Y706410D03*
X586940Y706410D03*
X591940Y706410D03*
X596940Y706410D03*
X601940Y706410D03*
X606940Y706410D03*
X611940Y706410D03*
X616940Y706410D03*
X621940Y706410D03*
X626940Y706410D03*
D11*
X633440Y712910D03*
X633440Y717910D03*
X633440Y722910D03*
X633440Y727910D03*
X633440Y732910D03*
X633440Y737910D03*
X633440Y742910D03*
X633440Y747910D03*
X633440Y752910D03*
X633440Y757910D03*
X633440Y762910D03*
X633440Y767910D03*
D10*
X626940Y774410D03*
X621940Y774410D03*
X616940Y774410D03*
X611940Y774410D03*
X606940Y774410D03*
X601940Y774410D03*
X596940Y774410D03*
X591940Y774410D03*
X586940Y774410D03*
X581940Y774410D03*
X576940Y774410D03*
X571940Y774410D03*
D11*
X565440Y767910D03*
X565440Y762910D03*
X565440Y757910D03*
X565440Y752910D03*
X565440Y747910D03*
X565440Y742910D03*
X565440Y737910D03*
X565440Y732910D03*
X565440Y727910D03*
X565440Y722910D03*
X565440Y717910D03*
X565440Y712910D03*
D12*
X584440Y727910D03*
X584440Y752910D03*
X614440Y752910D03*
X614440Y727910D03*
X599440Y727910D03*
X599440Y752910D03*
D13*
X571620Y852910D03*
X576620Y852910D03*
X581620Y852910D03*
X586620Y852910D03*
D14*
X593620Y859910D03*
X593620Y864910D03*
X593620Y869910D03*
X593620Y874910D03*
D13*
X586620Y881910D03*
X581620Y881910D03*
X576620Y881910D03*
X571620Y881910D03*
D14*
X564620Y874910D03*
X564620Y869910D03*
X564620Y864910D03*
X564620Y859910D03*
D15*
X574120Y862410D03*
X574120Y872410D03*
X584120Y872410D03*
X584120Y862410D03*
D16*
X606910Y912290D03*
X613410Y912290D03*
X619910Y912290D03*
X619910Y934290D03*
X613410Y934290D03*
X606910Y934290D03*
D15*
X594280Y912495D03*
X584280Y912495D03*
X621665Y899080D03*
X621665Y889080D03*
X613410Y956230D03*
X613410Y946230D03*
D17*
X627160Y982980D03*
X599660Y982980D03*
D18*
X613410Y967730D03*
X613410Y998230D03*
D15*
X583565Y625395D03*
X583565Y615395D03*
D19*
X572765Y626895D03*
X572765Y613895D03*
D20*
X556260Y627126D03*
X556260Y620395D03*
X556260Y613664D03*
D15*
X543560Y627300D03*
X543560Y617300D03*
X511730Y567055D03*
X501730Y567055D03*
X479505Y612140D03*
X489505Y612140D03*
X589835Y641985D03*
X579835Y641985D03*
X589835Y662305D03*
X579835Y662305D03*
X589835Y652145D03*
X579835Y652145D03*
X602615Y657305D03*
X602615Y667305D03*
X602615Y647620D03*
X602615Y637620D03*
X594280Y934720D03*
X584280Y934720D03*
X631270Y934720D03*
X641270Y934720D03*
X666115Y780495D03*
X666115Y790495D03*
X647065Y780495D03*
X647065Y790495D03*
X656590Y780495D03*
X656590Y790495D03*
X666115Y757000D03*
X666115Y767000D03*
X647065Y757000D03*
X647065Y767000D03*
X656590Y757000D03*
X656590Y767000D03*
X632460Y956230D03*
X632460Y946230D03*
X594360Y956230D03*
X594360Y946230D03*
D21*
X645470Y952310D02*
X652470Y952310D01*
X652470Y945310D01*
X645470Y945310D01*
X645470Y952310D01*
X645470Y948160D02*
X652470Y948160D01*
X652470Y951010D02*
X645470Y951010D01*
X645470Y969850D02*
X652470Y969850D01*
X652470Y962850D01*
X645470Y962850D01*
X645470Y969850D01*
X645470Y965700D02*
X652470Y965700D01*
X652470Y968550D02*
X645470Y968550D01*
X581350Y952310D02*
X574350Y952310D01*
X581350Y952310D02*
X581350Y945310D01*
X574350Y945310D01*
X574350Y952310D01*
X574350Y948160D02*
X581350Y948160D01*
X581350Y951010D02*
X574350Y951010D01*
X574350Y969850D02*
X581350Y969850D01*
X581350Y962850D01*
X574350Y962850D01*
X574350Y969850D01*
X574350Y965700D02*
X581350Y965700D01*
X581350Y968550D02*
X574350Y968550D01*
D15*
X554990Y686990D03*
X554990Y676990D03*
X574040Y686990D03*
X574040Y676990D03*
X564515Y686990D03*
X564515Y676990D03*
X583565Y686990D03*
X583565Y676990D03*
X602615Y686990D03*
X602615Y676990D03*
X593090Y686990D03*
X593090Y676990D03*
X533480Y696595D03*
X543480Y696595D03*
X543480Y706120D03*
X533480Y706120D03*
X521335Y804625D03*
X521335Y814625D03*
X530860Y794940D03*
X530860Y784940D03*
X549910Y794940D03*
X549910Y784940D03*
X540385Y794940D03*
X540385Y784940D03*
X543480Y715645D03*
X533480Y715645D03*
X543480Y725170D03*
X533480Y725170D03*
X543480Y744220D03*
X533480Y744220D03*
X543480Y734695D03*
X533480Y734695D03*
D22*
X518780Y762940D03*
X518780Y753440D03*
X532780Y753440D03*
X532780Y762940D03*
D15*
X518080Y773430D03*
X508080Y773430D03*
X508000Y763190D03*
X508000Y753190D03*
X543640Y763270D03*
X553640Y763270D03*
X549910Y804625D03*
X549910Y814625D03*
X540385Y804625D03*
X540385Y814625D03*
X530860Y804625D03*
X530860Y814625D03*
X581660Y786210D03*
X581660Y796210D03*
X581660Y816690D03*
X581660Y826690D03*
X591740Y806450D03*
X581740Y806450D03*
D23*
X581660Y835152D03*
X581660Y843788D03*
D15*
X538480Y904955D03*
X538480Y914955D03*
X552450Y914955D03*
X552450Y904955D03*
X560705Y831295D03*
X560705Y841295D03*
X560705Y811610D03*
X560705Y821610D03*
D24*
X545592Y869950D03*
X554228Y869950D03*
D15*
X536575Y871775D03*
X536575Y861775D03*
X527050Y871775D03*
X527050Y861775D03*
D24*
X561467Y892175D03*
X570103Y892175D03*
D23*
X584200Y891032D03*
X584200Y899668D03*
D24*
X630428Y792480D03*
X621792Y792480D03*
X630428Y843280D03*
X621792Y843280D03*
D25*
X621665Y813880D03*
X621665Y821880D03*
D15*
X564595Y912495D03*
X574595Y912495D03*
X550545Y892095D03*
X550545Y882095D03*
X540385Y892095D03*
X540385Y882095D03*
X530225Y892095D03*
X530225Y882095D03*
X605155Y855425D03*
X605155Y865425D03*
X605155Y879555D03*
X605155Y889555D03*
X517525Y871775D03*
X517525Y861775D03*
X666115Y746680D03*
X666115Y736680D03*
X647065Y746680D03*
X647065Y736680D03*
X656590Y746680D03*
X656590Y736680D03*
X576660Y589280D03*
X586660Y589280D03*
D21*
X586930Y564205D02*
X586930Y557205D01*
X586930Y564205D02*
X593930Y564205D01*
X593930Y557205D01*
X586930Y557205D01*
X586930Y560055D02*
X593930Y560055D01*
X593930Y562905D02*
X586930Y562905D01*
X569390Y564205D02*
X569390Y557205D01*
X569390Y564205D02*
X576390Y564205D01*
X576390Y557205D01*
X569390Y557205D01*
X569390Y560055D02*
X576390Y560055D01*
X576390Y562905D02*
X569390Y562905D01*
D26*
X619760Y624780D03*
X632460Y624780D03*
X645160Y624780D03*
X657860Y624780D03*
X657860Y680780D03*
X645160Y680780D03*
X632460Y680780D03*
X619760Y680780D03*
D27*
X492459Y598780D03*
X492459Y589280D03*
X492459Y579780D03*
X518461Y579780D03*
X518461Y598780D03*
X492459Y643230D03*
X492459Y633730D03*
X492459Y624230D03*
X518461Y624230D03*
X518461Y643230D03*
D15*
X514905Y612140D03*
X504905Y612140D03*
X534035Y598725D03*
X534035Y588725D03*
X537845Y962580D03*
X537845Y952580D03*
D21*
X552760Y952310D02*
X559760Y952310D01*
X559760Y945310D01*
X552760Y945310D01*
X552760Y952310D01*
X552760Y948160D02*
X559760Y948160D01*
X559760Y951010D02*
X552760Y951010D01*
X552760Y969850D02*
X559760Y969850D01*
X559760Y962850D01*
X552760Y962850D01*
X552760Y969850D01*
X552760Y965700D02*
X559760Y965700D01*
X559760Y968550D02*
X552760Y968550D01*
D28*
X526605Y926440D03*
X518605Y926440D03*
X518605Y907440D03*
X526605Y907440D03*
D15*
X534035Y643335D03*
X534035Y653335D03*
X488870Y655955D03*
X478870Y655955D03*
D29*
X501015Y692080D03*
X501015Y715080D03*
D30*
X520040Y678020D03*
X501040Y678020D03*
X510540Y657020D03*
D15*
X534035Y663655D03*
X534035Y673655D03*
D27*
X514684Y850875D03*
X514684Y841375D03*
X514684Y831875D03*
X540686Y831875D03*
X540686Y850875D03*
D15*
X506730Y910670D03*
X506730Y920670D03*
X605155Y840660D03*
X605155Y830660D03*
X605155Y806530D03*
X605155Y816530D03*
D10*
X805620Y706410D03*
X810620Y706410D03*
X815620Y706410D03*
X820620Y706410D03*
X825620Y706410D03*
X830620Y706410D03*
X835620Y706410D03*
X840620Y706410D03*
X845620Y706410D03*
X850620Y706410D03*
X855620Y706410D03*
X860620Y706410D03*
D11*
X867120Y712910D03*
X867120Y717910D03*
X867120Y722910D03*
X867120Y727910D03*
X867120Y732910D03*
X867120Y737910D03*
X867120Y742910D03*
X867120Y747910D03*
X867120Y752910D03*
X867120Y757910D03*
X867120Y762910D03*
X867120Y767910D03*
D10*
X860620Y774410D03*
X855620Y774410D03*
X850620Y774410D03*
X845620Y774410D03*
X840620Y774410D03*
X835620Y774410D03*
X830620Y774410D03*
X825620Y774410D03*
X820620Y774410D03*
X815620Y774410D03*
X810620Y774410D03*
X805620Y774410D03*
D11*
X799120Y767910D03*
X799120Y762910D03*
X799120Y757910D03*
X799120Y752910D03*
X799120Y747910D03*
X799120Y742910D03*
X799120Y737910D03*
X799120Y732910D03*
X799120Y727910D03*
X799120Y722910D03*
X799120Y717910D03*
X799120Y712910D03*
D12*
X818120Y727910D03*
X818120Y752910D03*
X848120Y752910D03*
X848120Y727910D03*
X833120Y727910D03*
X833120Y752910D03*
D13*
X805300Y852910D03*
X810300Y852910D03*
X815300Y852910D03*
X820300Y852910D03*
D14*
X827300Y859910D03*
X827300Y864910D03*
X827300Y869910D03*
X827300Y874910D03*
D13*
X820300Y881910D03*
X815300Y881910D03*
X810300Y881910D03*
X805300Y881910D03*
D14*
X798300Y874910D03*
X798300Y869910D03*
X798300Y864910D03*
X798300Y859910D03*
D15*
X807800Y862410D03*
X807800Y872410D03*
X817800Y872410D03*
X817800Y862410D03*
D16*
X840590Y912290D03*
X847090Y912290D03*
X853590Y912290D03*
X853590Y934290D03*
X847090Y934290D03*
X840590Y934290D03*
D15*
X827960Y912495D03*
X817960Y912495D03*
X855345Y899080D03*
X855345Y889080D03*
X847090Y956230D03*
X847090Y946230D03*
D17*
X860840Y982980D03*
X833340Y982980D03*
D18*
X847090Y967730D03*
X847090Y998230D03*
D15*
X817245Y625395D03*
X817245Y615395D03*
D19*
X806445Y626895D03*
X806445Y613895D03*
D20*
X789940Y627126D03*
X789940Y620395D03*
X789940Y613664D03*
D15*
X777240Y627300D03*
X777240Y617300D03*
X745410Y567055D03*
X735410Y567055D03*
X713185Y612140D03*
X723185Y612140D03*
X823515Y641985D03*
X813515Y641985D03*
X823515Y662305D03*
X813515Y662305D03*
X823515Y652145D03*
X813515Y652145D03*
X836295Y657305D03*
X836295Y667305D03*
X836295Y647620D03*
X836295Y637620D03*
X827960Y934720D03*
X817960Y934720D03*
X864950Y934720D03*
X874950Y934720D03*
X899795Y780495D03*
X899795Y790495D03*
X880745Y780495D03*
X880745Y790495D03*
X890270Y780495D03*
X890270Y790495D03*
X899795Y757000D03*
X899795Y767000D03*
X880745Y757000D03*
X880745Y767000D03*
X890270Y757000D03*
X890270Y767000D03*
X866140Y956230D03*
X866140Y946230D03*
X828040Y956230D03*
X828040Y946230D03*
D21*
X879150Y952310D02*
X886150Y952310D01*
X886150Y945310D01*
X879150Y945310D01*
X879150Y952310D01*
X879150Y948160D02*
X886150Y948160D01*
X886150Y951010D02*
X879150Y951010D01*
X879150Y969850D02*
X886150Y969850D01*
X886150Y962850D01*
X879150Y962850D01*
X879150Y969850D01*
X879150Y965700D02*
X886150Y965700D01*
X886150Y968550D02*
X879150Y968550D01*
X815030Y952310D02*
X808030Y952310D01*
X815030Y952310D02*
X815030Y945310D01*
X808030Y945310D01*
X808030Y952310D01*
X808030Y948160D02*
X815030Y948160D01*
X815030Y951010D02*
X808030Y951010D01*
X808030Y969850D02*
X815030Y969850D01*
X815030Y962850D01*
X808030Y962850D01*
X808030Y969850D01*
X808030Y965700D02*
X815030Y965700D01*
X815030Y968550D02*
X808030Y968550D01*
D15*
X788670Y686990D03*
X788670Y676990D03*
X807720Y686990D03*
X807720Y676990D03*
X798195Y686990D03*
X798195Y676990D03*
X817245Y686990D03*
X817245Y676990D03*
X836295Y686990D03*
X836295Y676990D03*
X826770Y686990D03*
X826770Y676990D03*
X767160Y696595D03*
X777160Y696595D03*
X777160Y706120D03*
X767160Y706120D03*
X755015Y804625D03*
X755015Y814625D03*
X764540Y794940D03*
X764540Y784940D03*
X783590Y794940D03*
X783590Y784940D03*
X774065Y794940D03*
X774065Y784940D03*
X777160Y715645D03*
X767160Y715645D03*
X777160Y725170D03*
X767160Y725170D03*
X777160Y744220D03*
X767160Y744220D03*
X777160Y734695D03*
X767160Y734695D03*
D22*
X752460Y762940D03*
X752460Y753440D03*
X766460Y753440D03*
X766460Y762940D03*
D15*
X751760Y773430D03*
X741760Y773430D03*
X741680Y763190D03*
X741680Y753190D03*
X777320Y763270D03*
X787320Y763270D03*
X783590Y804625D03*
X783590Y814625D03*
X774065Y804625D03*
X774065Y814625D03*
X764540Y804625D03*
X764540Y814625D03*
X815340Y786210D03*
X815340Y796210D03*
X815340Y816690D03*
X815340Y826690D03*
X825420Y806450D03*
X815420Y806450D03*
D23*
X815340Y835152D03*
X815340Y843788D03*
D15*
X772160Y904955D03*
X772160Y914955D03*
X786130Y914955D03*
X786130Y904955D03*
X794385Y831295D03*
X794385Y841295D03*
X794385Y811610D03*
X794385Y821610D03*
D24*
X779272Y869950D03*
X787908Y869950D03*
D15*
X770255Y871775D03*
X770255Y861775D03*
X760730Y871775D03*
X760730Y861775D03*
D24*
X795147Y892175D03*
X803783Y892175D03*
D23*
X817880Y891032D03*
X817880Y899668D03*
D24*
X864108Y792480D03*
X855472Y792480D03*
X864108Y843280D03*
X855472Y843280D03*
D25*
X855345Y813880D03*
X855345Y821880D03*
D15*
X798275Y912495D03*
X808275Y912495D03*
X784225Y892095D03*
X784225Y882095D03*
X774065Y892095D03*
X774065Y882095D03*
X763905Y892095D03*
X763905Y882095D03*
X838835Y855425D03*
X838835Y865425D03*
X838835Y879555D03*
X838835Y889555D03*
X751205Y871775D03*
X751205Y861775D03*
X899795Y746680D03*
X899795Y736680D03*
X880745Y746680D03*
X880745Y736680D03*
X890270Y746680D03*
X890270Y736680D03*
X810340Y589280D03*
X820340Y589280D03*
D21*
X820610Y564205D02*
X820610Y557205D01*
X820610Y564205D02*
X827610Y564205D01*
X827610Y557205D01*
X820610Y557205D01*
X820610Y560055D02*
X827610Y560055D01*
X827610Y562905D02*
X820610Y562905D01*
X803070Y564205D02*
X803070Y557205D01*
X803070Y564205D02*
X810070Y564205D01*
X810070Y557205D01*
X803070Y557205D01*
X803070Y560055D02*
X810070Y560055D01*
X810070Y562905D02*
X803070Y562905D01*
D26*
X853440Y624780D03*
X866140Y624780D03*
X878840Y624780D03*
X891540Y624780D03*
X891540Y680780D03*
X878840Y680780D03*
X866140Y680780D03*
X853440Y680780D03*
D27*
X726139Y598780D03*
X726139Y589280D03*
X726139Y579780D03*
X752141Y579780D03*
X752141Y598780D03*
X726139Y643230D03*
X726139Y633730D03*
X726139Y624230D03*
X752141Y624230D03*
X752141Y643230D03*
D15*
X748585Y612140D03*
X738585Y612140D03*
X767715Y598725D03*
X767715Y588725D03*
X771525Y962580D03*
X771525Y952580D03*
D21*
X786440Y952310D02*
X793440Y952310D01*
X793440Y945310D01*
X786440Y945310D01*
X786440Y952310D01*
X786440Y948160D02*
X793440Y948160D01*
X793440Y951010D02*
X786440Y951010D01*
X786440Y969850D02*
X793440Y969850D01*
X793440Y962850D01*
X786440Y962850D01*
X786440Y969850D01*
X786440Y965700D02*
X793440Y965700D01*
X793440Y968550D02*
X786440Y968550D01*
D28*
X760285Y926440D03*
X752285Y926440D03*
X752285Y907440D03*
X760285Y907440D03*
D15*
X767715Y643335D03*
X767715Y653335D03*
X722550Y655955D03*
X712550Y655955D03*
D29*
X734695Y692080D03*
X734695Y715080D03*
D30*
X753720Y678020D03*
X734720Y678020D03*
X744220Y657020D03*
D15*
X767715Y663655D03*
X767715Y673655D03*
D27*
X748364Y850875D03*
X748364Y841375D03*
X748364Y831875D03*
X774366Y831875D03*
X774366Y850875D03*
D15*
X740410Y910670D03*
X740410Y920670D03*
X838835Y840660D03*
X838835Y830660D03*
X838835Y806530D03*
X838835Y816530D03*
M02*
